M48
; DRILL file {KiCad (5.1.8)-1} date 03/20/21 14:28:49
; FORMAT={-:-/ absolute / inch / decimal}
; #@! TF.CreationDate,2021-03-20T14:28:49+01:00
; #@! TF.GenerationSoftware,Kicad,Pcbnew,(5.1.8)-1
; #@! TF.FileFunction,Plated,1,2,PTH
FMAT,2
INCH
T1C0.0157
T2C0.0236
T3C0.0276
T4C0.0315
T5C0.0315
T6C0.0354
T7C0.0394
T8C0.0400
T9C0.0500
T10C0.0598
T11C0.1260
%
G90
G05
T1
X2.72Y-2.8575
X2.8475Y-2.8125
X2.8625Y-2.4425
X2.8925Y-3.06
X2.9Y-3.2875
X3.06Y-3.08
X3.55Y-3.3375
X3.7Y-2.805
X3.765Y-3.8175
X4.24Y-2.91
X4.24Y-3.0875
X4.34Y-2.61
X4.5855Y-2.5575
X4.59Y-3.505
X4.6275Y-2.825
X4.6275Y-2.9275
X4.6475Y-2.9775
X4.6575Y-2.68
X4.66Y-3.73
X4.9125Y-3.0925
X4.985Y-2.055
T2
X3.4238Y-3.06
X3.5025Y-3.06
X3.8925Y-2.3938
X3.8925Y-2.4725
X2.6775Y-2.4613
X2.6775Y-2.54
X3.025Y-3.565
X3.025Y-3.6437
X3.2713Y-2.38
X3.35Y-2.38
X3.195Y-3.8975
X3.195Y-3.9762
X2.48Y-2.7225
X2.5587Y-2.7225
X2.6775Y-2.2775
X2.6775Y-2.3562
T3
X3.43Y-3.8875
X3.53Y-3.8875
X4.635Y-2.17
X4.735Y-2.17
X2.7375Y-2.1875
X2.8375Y-2.1875
X3.43Y-3.9825
X3.53Y-3.9825
X4.635Y-2.275
X4.735Y-2.275
T4
X2.6575Y-2.6525
X2.9575Y-2.6525
X2.49Y-3.345
X2.49Y-3.445
X2.49Y-3.545
X2.49Y-3.645
X2.79Y-3.345
X2.79Y-3.445
X2.79Y-3.545
X2.79Y-3.645
X3.0675Y-2.9725
X3.0675Y-3.2725
X3.97Y-2.595
X3.97Y-2.895
X3.98Y-3.585
X3.98Y-3.6834
X2.92Y-2.385
X3.02Y-2.385
X3.12Y-2.385
X3.11Y-2.6275
X3.11Y-2.7275
X3.11Y-2.8275
X3.28Y-2.59
X3.28Y-2.69
X3.28Y-2.79
X3.28Y-2.89
X3.58Y-2.59
X3.58Y-2.69
X3.58Y-2.79
X3.58Y-2.89
X3.4475Y-2.45
X3.7475Y-2.45
X4.0925Y-2.595
X4.0925Y-2.895
X2.915Y-3.43
X3.015Y-3.43
X3.115Y-3.43
X3.31Y-3.0106
X3.31Y-3.2075
X3.405Y-3.335
X3.705Y-3.335
X2.6575Y-2.78
X2.9575Y-2.78
X2.475Y-2.2375
X2.475Y-2.3375
X2.475Y-2.4375
X3.67Y-3.615
X3.77Y-3.615
X2.9425Y-2.92
X2.9425Y-3.22
X4.205Y-3.585
X4.205Y-3.6834
X4.0825Y-2.43
X4.1825Y-2.43
X4.2825Y-2.43
X3.1875Y-3.0106
X3.1875Y-3.2075
X3.8475Y-2.595
X3.8475Y-2.895
X3.7275Y-2.595
X3.7275Y-2.895
X3.9375Y-3.2425
X4.0375Y-3.2425
X4.1375Y-3.2425
X2.26Y-2.2375
X2.26Y-2.3375
X2.26Y-2.4375
X3.545Y-3.2025
X3.845Y-3.2025
X4.835Y-2.0125
X4.835Y-2.3125
X3.575Y-2.27
X3.675Y-2.27
X3.775Y-2.27
T5
X5.01Y-3.64
T6
X3.91Y-2.9875
X3.91Y-3.0875
X4.2325Y-2.6225
X4.2325Y-2.8225
X3.7275Y-2.9875
X3.7275Y-3.0875
X4.0925Y-2.9875
X4.0925Y-3.0875
T7
X4.275Y-2.249
X2.2157Y-3.0333
X2.2157Y-3.1424
X2.2157Y-3.2514
X2.2157Y-3.3605
X2.3275Y-2.9788
X2.3275Y-3.0878
X2.3275Y-3.1969
X2.3275Y-3.3059
X2.3275Y-3.415
X4.97Y-2.16
X4.97Y-2.26
X4.97Y-2.36
X4.97Y-2.46
X4.97Y-2.56
X4.97Y-2.66
X5.07Y-2.16
X5.07Y-2.26
X5.07Y-2.36
X5.07Y-2.46
X5.07Y-2.56
X5.07Y-2.66
X2.96Y-2.205
X3.06Y-2.205
X3.16Y-2.205
X3.26Y-2.205
X3.36Y-2.205
X3.46Y-2.205
X2.5Y-3.065
X2.5Y-3.165
X4.465Y-2.03
X4.395Y-2.8
X4.395Y-2.9
X4.395Y-3.0
X4.395Y-3.1
X4.395Y-3.2
X4.395Y-3.3
X4.395Y-3.4
X4.395Y-3.5
X4.395Y-3.6
X4.395Y-3.7
X4.495Y-2.8
X4.495Y-2.9
X4.495Y-3.0
X4.495Y-3.1
X4.495Y-3.2
X4.495Y-3.3
X4.495Y-3.4
X4.495Y-3.5
X4.495Y-3.6
X4.495Y-3.7
X4.72Y-2.43
X4.72Y-2.53
X4.72Y-2.63
X4.72Y-2.73
X4.72Y-2.83
X4.72Y-2.93
X4.72Y-3.03
X4.72Y-3.13
X4.72Y-3.23
X4.72Y-3.33
X4.72Y-3.43
X4.72Y-3.53
X4.72Y-3.63
X4.82Y-2.43
X4.82Y-2.53
X4.82Y-2.63
X4.82Y-2.73
X4.82Y-2.83
X4.82Y-2.93
X4.82Y-3.03
X4.82Y-3.13
X4.82Y-3.23
X4.82Y-3.33
X4.82Y-3.43
X4.82Y-3.53
X4.82Y-3.63
X4.97Y-2.915
X4.97Y-3.015
X4.97Y-3.115
X4.97Y-3.215
X4.97Y-3.315
X4.97Y-3.415
X5.07Y-2.915
X5.07Y-3.015
X5.07Y-3.115
X5.07Y-3.215
X5.07Y-3.315
X5.07Y-3.415
X4.02Y-2.25
X4.455Y-2.3925
X4.455Y-2.4925
X4.455Y-2.5925
X4.42Y-2.245
X4.52Y-2.245
T8
X2.15Y-1.975
X2.15Y-2.075
X2.25Y-1.975
X2.25Y-2.075
X2.35Y-1.975
X2.35Y-2.075
X2.45Y-1.975
X2.45Y-2.075
X2.55Y-1.975
X2.55Y-2.075
X2.65Y-1.975
X2.65Y-2.075
X2.75Y-1.975
X2.75Y-2.075
X2.85Y-1.975
X2.85Y-2.075
X2.95Y-1.975
X2.95Y-2.075
X3.05Y-1.975
X3.05Y-2.075
X3.15Y-1.975
X3.15Y-2.075
X3.25Y-1.975
X3.25Y-2.075
X3.35Y-1.975
X3.35Y-2.075
X3.45Y-1.975
X3.45Y-2.075
X3.55Y-1.975
X3.55Y-2.075
X3.65Y-1.975
X3.65Y-2.075
X3.75Y-1.975
X3.75Y-2.075
X3.85Y-1.975
X3.85Y-2.075
X3.95Y-1.975
X3.95Y-2.075
X4.05Y-1.975
X4.05Y-2.075
T9
X3.87Y-3.445
X3.9704Y-3.445
X4.0708Y-3.445
T10
X1.99Y-2.2575
X1.99Y-2.4575
X2.715Y-3.92
X2.915Y-3.92
X4.8375Y-3.925
X5.0375Y-3.925
T11
X2.2716Y-2.7048
X2.2716Y-3.689
T0
M30
