G04 #@! TF.GenerationSoftware,KiCad,Pcbnew,(5.1.8)-1*
G04 #@! TF.CreationDate,2021-03-28T20:40:29+02:00*
G04 #@! TF.ProjectId,interface_MTM800E_V4,696e7465-7266-4616-9365-5f4d544d3830,V2*
G04 #@! TF.SameCoordinates,Original*
G04 #@! TF.FileFunction,Soldermask,Bot*
G04 #@! TF.FilePolarity,Negative*
%FSLAX46Y46*%
G04 Gerber Fmt 4.6, Leading zero omitted, Abs format (unit mm)*
G04 Created by KiCad (PCBNEW (5.1.8)-1) date 2021-03-28 20:40:29*
%MOMM*%
%LPD*%
G01*
G04 APERTURE LIST*
%ADD10O,1.702000X1.702000*%
%ADD11C,1.702000*%
%ADD12O,1.502000X1.502000*%
%ADD13C,1.502000*%
%ADD14O,1.802000X1.802000*%
%ADD15C,2.102000*%
%ADD16C,1.302000*%
%ADD17C,2.852000*%
%ADD18C,1.852000*%
%ADD19O,1.902000X1.902000*%
%ADD20C,6.102000*%
%ADD21C,1.602000*%
%ADD22C,1.542000*%
%ADD23O,2.502000X1.702000*%
%ADD24C,3.102000*%
%ADD25C,2.012000*%
%ADD26C,1.902000*%
G04 APERTURE END LIST*
D10*
X94742000Y-101727000D03*
D11*
X87122000Y-101727000D03*
D12*
X95821500Y-93789500D03*
D13*
X93281500Y-93789500D03*
D10*
X94742000Y-98679000D03*
D11*
X87122000Y-98679000D03*
G36*
G01*
X112510000Y-52412000D02*
X112510000Y-50712000D01*
G75*
G02*
X112561000Y-50661000I51000J0D01*
G01*
X114261000Y-50661000D01*
G75*
G02*
X114312000Y-50712000I0J-51000D01*
G01*
X114312000Y-52412000D01*
G75*
G02*
X114261000Y-52463000I-51000J0D01*
G01*
X112561000Y-52463000D01*
G75*
G02*
X112510000Y-52412000I0J51000D01*
G01*
G37*
D14*
X128778000Y-91948000D03*
X126238000Y-91948000D03*
X128778000Y-89408000D03*
X126238000Y-89408000D03*
X128778000Y-86868000D03*
X126238000Y-86868000D03*
X128778000Y-84328000D03*
X126238000Y-84328000D03*
X128778000Y-81788000D03*
X126238000Y-81788000D03*
X128778000Y-79248000D03*
X126238000Y-79248000D03*
X128778000Y-76708000D03*
G36*
G01*
X125337000Y-77558000D02*
X125337000Y-75858000D01*
G75*
G02*
X125388000Y-75807000I51000J0D01*
G01*
X127088000Y-75807000D01*
G75*
G02*
X127139000Y-75858000I0J-51000D01*
G01*
X127139000Y-77558000D01*
G75*
G02*
X127088000Y-77609000I-51000J0D01*
G01*
X125388000Y-77609000D01*
G75*
G02*
X125337000Y-77558000I0J51000D01*
G01*
G37*
X128778000Y-72644000D03*
X126238000Y-72644000D03*
X128778000Y-70104000D03*
X126238000Y-70104000D03*
X128778000Y-67564000D03*
X126238000Y-67564000D03*
X128778000Y-65024000D03*
X126238000Y-65024000D03*
X128778000Y-62484000D03*
X126238000Y-62484000D03*
X128778000Y-59944000D03*
X126238000Y-59944000D03*
X128778000Y-57404000D03*
G36*
G01*
X125337000Y-58254000D02*
X125337000Y-56554000D01*
G75*
G02*
X125388000Y-56503000I51000J0D01*
G01*
X127088000Y-56503000D01*
G75*
G02*
X127139000Y-56554000I0J-51000D01*
G01*
X127139000Y-58254000D01*
G75*
G02*
X127088000Y-58305000I-51000J0D01*
G01*
X125388000Y-58305000D01*
G75*
G02*
X125337000Y-58254000I0J51000D01*
G01*
G37*
G36*
G01*
X115812000Y-100164000D02*
X115812000Y-98464000D01*
G75*
G02*
X115863000Y-98413000I51000J0D01*
G01*
X117563000Y-98413000D01*
G75*
G02*
X117614000Y-98464000I0J-51000D01*
G01*
X117614000Y-100164000D01*
G75*
G02*
X117563000Y-100215000I-51000J0D01*
G01*
X115863000Y-100215000D01*
G75*
G02*
X115812000Y-100164000I0J51000D01*
G01*
G37*
D15*
X108585000Y-57124600D03*
D12*
X69532500Y-55562500D03*
D13*
X72072500Y-55562500D03*
D16*
X68008500Y-62516000D03*
G36*
G01*
X68608501Y-65167000D02*
X67408499Y-65167000D01*
G75*
G02*
X67357500Y-65116001I0J50999D01*
G01*
X67357500Y-63915999D01*
G75*
G02*
X67408499Y-63865000I50999J0D01*
G01*
X68608501Y-63865000D01*
G75*
G02*
X68659500Y-63915999I0J-50999D01*
G01*
X68659500Y-65116001D01*
G75*
G02*
X68608501Y-65167000I-50999J0D01*
G01*
G37*
X68008500Y-59848500D03*
G36*
G01*
X67408499Y-57197500D02*
X68608501Y-57197500D01*
G75*
G02*
X68659500Y-57248499I0J-50999D01*
G01*
X68659500Y-58448501D01*
G75*
G02*
X68608501Y-58499500I-50999J0D01*
G01*
X67408499Y-58499500D01*
G75*
G02*
X67357500Y-58448501I0J50999D01*
G01*
X67357500Y-57248499D01*
G75*
G02*
X67408499Y-57197500I50999J0D01*
G01*
G37*
D10*
X122809000Y-58737500D03*
D11*
X122809000Y-51117500D03*
D10*
X77914500Y-75501500D03*
D11*
X77914500Y-83121500D03*
D10*
X74739500Y-74168000D03*
D11*
X74739500Y-81788000D03*
D17*
X107740000Y-100435000D03*
X49740000Y-100435000D03*
X107740000Y-51435000D03*
X49740000Y-51435000D03*
D18*
X102870000Y-52705000D03*
X102870000Y-50165000D03*
X100330000Y-52705000D03*
X100330000Y-50165000D03*
X97790000Y-52705000D03*
X97790000Y-50165000D03*
X95250000Y-52705000D03*
X95250000Y-50165000D03*
X92710000Y-52705000D03*
X92710000Y-50165000D03*
X85090000Y-50165000D03*
X85090000Y-52705000D03*
X80010000Y-50165000D03*
X80010000Y-52705000D03*
X77470000Y-50165000D03*
X77470000Y-52705000D03*
X74930000Y-50165000D03*
X74930000Y-52705000D03*
X72390000Y-50165000D03*
X72390000Y-52705000D03*
X69850000Y-50165000D03*
X69850000Y-52705000D03*
X67310000Y-50165000D03*
X67310000Y-52705000D03*
X64770000Y-50165000D03*
X64770000Y-52705000D03*
X62230000Y-50165000D03*
X62230000Y-52705000D03*
X59690000Y-50165000D03*
X59690000Y-52705000D03*
X57150000Y-50165000D03*
X57150000Y-52705000D03*
X54610000Y-50165000D03*
G36*
G01*
X53684000Y-53580000D02*
X53684000Y-51830000D01*
G75*
G02*
X53735000Y-51779000I51000J0D01*
G01*
X55485000Y-51779000D01*
G75*
G02*
X55536000Y-51830000I0J-51000D01*
G01*
X55536000Y-53580000D01*
G75*
G02*
X55485000Y-53631000I-51000J0D01*
G01*
X53735000Y-53631000D01*
G75*
G02*
X53684000Y-53580000I0J51000D01*
G01*
G37*
X82550000Y-52705000D03*
X82550000Y-50165000D03*
X90170000Y-50165000D03*
X90170000Y-52705000D03*
X87630000Y-50165000D03*
X87630000Y-52705000D03*
D16*
X64992000Y-69151500D03*
G36*
G01*
X62341000Y-69751501D02*
X62341000Y-68551499D01*
G75*
G02*
X62391999Y-68500500I50999J0D01*
G01*
X63592001Y-68500500D01*
G75*
G02*
X63643000Y-68551499I0J-50999D01*
G01*
X63643000Y-69751501D01*
G75*
G02*
X63592001Y-69802500I-50999J0D01*
G01*
X62391999Y-69802500D01*
G75*
G02*
X62341000Y-69751501I0J50999D01*
G01*
G37*
D10*
X100838000Y-65913000D03*
D11*
X100838000Y-73533000D03*
D12*
X120269000Y-57785000D03*
D13*
X117729000Y-57785000D03*
D12*
X120269000Y-55118000D03*
D13*
X117729000Y-55118000D03*
D19*
X107505500Y-66611500D03*
G36*
G01*
X108405500Y-72642500D02*
X106605500Y-72642500D01*
G75*
G02*
X106554500Y-72591500I0J51000D01*
G01*
X106554500Y-70791500D01*
G75*
G02*
X106605500Y-70740500I51000J0D01*
G01*
X108405500Y-70740500D01*
G75*
G02*
X108456500Y-70791500I0J-51000D01*
G01*
X108456500Y-72591500D01*
G75*
G02*
X108405500Y-72642500I-51000J0D01*
G01*
G37*
D14*
X63500000Y-80391000D03*
G36*
G01*
X62599000Y-78701000D02*
X62599000Y-77001000D01*
G75*
G02*
X62650000Y-76950000I51000J0D01*
G01*
X64350000Y-76950000D01*
G75*
G02*
X64401000Y-77001000I0J-51000D01*
G01*
X64401000Y-78701000D01*
G75*
G02*
X64350000Y-78752000I-51000J0D01*
G01*
X62650000Y-78752000D01*
G75*
G02*
X62599000Y-78701000I0J51000D01*
G01*
G37*
X113157000Y-65849500D03*
X113157000Y-63309500D03*
G36*
G01*
X112256000Y-61619500D02*
X112256000Y-59919500D01*
G75*
G02*
X112307000Y-59868500I51000J0D01*
G01*
X114007000Y-59868500D01*
G75*
G02*
X114058000Y-59919500I0J-51000D01*
G01*
X114058000Y-61619500D01*
G75*
G02*
X114007000Y-61670500I-51000J0D01*
G01*
X112307000Y-61670500D01*
G75*
G02*
X112256000Y-61619500I0J51000D01*
G01*
G37*
X112268000Y-57023000D03*
G36*
G01*
X113958000Y-56122000D02*
X115658000Y-56122000D01*
G75*
G02*
X115709000Y-56173000I0J-51000D01*
G01*
X115709000Y-57873000D01*
G75*
G02*
X115658000Y-57924000I-51000J0D01*
G01*
X113958000Y-57924000D01*
G75*
G02*
X113907000Y-57873000I0J51000D01*
G01*
X113907000Y-56173000D01*
G75*
G02*
X113958000Y-56122000I51000J0D01*
G01*
G37*
D20*
X57698500Y-93701000D03*
X57698500Y-68701000D03*
D15*
X56278500Y-77046000D03*
X56278500Y-79816000D03*
X56278500Y-82586000D03*
X56278500Y-85356000D03*
X59118500Y-75661000D03*
X59118500Y-78431000D03*
X59118500Y-81201000D03*
X59118500Y-83971000D03*
G36*
G01*
X58118500Y-85690000D02*
X60118500Y-85690000D01*
G75*
G02*
X60169500Y-85741000I0J-51000D01*
G01*
X60169500Y-87741000D01*
G75*
G02*
X60118500Y-87792000I-51000J0D01*
G01*
X58118500Y-87792000D01*
G75*
G02*
X58067500Y-87741000I0J51000D01*
G01*
X58067500Y-85741000D01*
G75*
G02*
X58118500Y-85690000I51000J0D01*
G01*
G37*
G36*
G01*
X85165000Y-89613500D02*
X85165000Y-89964500D01*
G75*
G02*
X84989500Y-90140000I-175500J0D01*
G01*
X83288500Y-90140000D01*
G75*
G02*
X83113000Y-89964500I0J175500D01*
G01*
X83113000Y-89613500D01*
G75*
G02*
X83288500Y-89438000I175500J0D01*
G01*
X84989500Y-89438000D01*
G75*
G02*
X85165000Y-89613500I0J-175500D01*
G01*
G37*
G36*
G01*
X85165000Y-90883500D02*
X85165000Y-91234500D01*
G75*
G02*
X84989500Y-91410000I-175500J0D01*
G01*
X83288500Y-91410000D01*
G75*
G02*
X83113000Y-91234500I0J175500D01*
G01*
X83113000Y-90883500D01*
G75*
G02*
X83288500Y-90708000I175500J0D01*
G01*
X84989500Y-90708000D01*
G75*
G02*
X85165000Y-90883500I0J-175500D01*
G01*
G37*
G36*
G01*
X85165000Y-92153500D02*
X85165000Y-92504500D01*
G75*
G02*
X84989500Y-92680000I-175500J0D01*
G01*
X83288500Y-92680000D01*
G75*
G02*
X83113000Y-92504500I0J175500D01*
G01*
X83113000Y-92153500D01*
G75*
G02*
X83288500Y-91978000I175500J0D01*
G01*
X84989500Y-91978000D01*
G75*
G02*
X85165000Y-92153500I0J-175500D01*
G01*
G37*
G36*
G01*
X85165000Y-93423500D02*
X85165000Y-93774500D01*
G75*
G02*
X84989500Y-93950000I-175500J0D01*
G01*
X83288500Y-93950000D01*
G75*
G02*
X83113000Y-93774500I0J175500D01*
G01*
X83113000Y-93423500D01*
G75*
G02*
X83288500Y-93248000I175500J0D01*
G01*
X84989500Y-93248000D01*
G75*
G02*
X85165000Y-93423500I0J-175500D01*
G01*
G37*
G36*
G01*
X90115000Y-93423500D02*
X90115000Y-93774500D01*
G75*
G02*
X89939500Y-93950000I-175500J0D01*
G01*
X88238500Y-93950000D01*
G75*
G02*
X88063000Y-93774500I0J175500D01*
G01*
X88063000Y-93423500D01*
G75*
G02*
X88238500Y-93248000I175500J0D01*
G01*
X89939500Y-93248000D01*
G75*
G02*
X90115000Y-93423500I0J-175500D01*
G01*
G37*
G36*
G01*
X90115000Y-92153500D02*
X90115000Y-92504500D01*
G75*
G02*
X89939500Y-92680000I-175500J0D01*
G01*
X88238500Y-92680000D01*
G75*
G02*
X88063000Y-92504500I0J175500D01*
G01*
X88063000Y-92153500D01*
G75*
G02*
X88238500Y-91978000I175500J0D01*
G01*
X89939500Y-91978000D01*
G75*
G02*
X90115000Y-92153500I0J-175500D01*
G01*
G37*
G36*
G01*
X90115000Y-90883500D02*
X90115000Y-91234500D01*
G75*
G02*
X89939500Y-91410000I-175500J0D01*
G01*
X88238500Y-91410000D01*
G75*
G02*
X88063000Y-91234500I0J175500D01*
G01*
X88063000Y-90883500D01*
G75*
G02*
X88238500Y-90708000I175500J0D01*
G01*
X89939500Y-90708000D01*
G75*
G02*
X90115000Y-90883500I0J-175500D01*
G01*
G37*
G36*
G01*
X90115000Y-89613500D02*
X90115000Y-89964500D01*
G75*
G02*
X89939500Y-90140000I-175500J0D01*
G01*
X88238500Y-90140000D01*
G75*
G02*
X88063000Y-89964500I0J175500D01*
G01*
X88063000Y-89613500D01*
G75*
G02*
X88238500Y-89438000I175500J0D01*
G01*
X89939500Y-89438000D01*
G75*
G02*
X90115000Y-89613500I0J-175500D01*
G01*
G37*
G36*
G01*
X74791000Y-87923000D02*
X73291000Y-87923000D01*
G75*
G02*
X73240000Y-87872000I0J51000D01*
G01*
X73240000Y-86372000D01*
G75*
G02*
X73291000Y-86321000I51000J0D01*
G01*
X74791000Y-86321000D01*
G75*
G02*
X74842000Y-86372000I0J-51000D01*
G01*
X74842000Y-87872000D01*
G75*
G02*
X74791000Y-87923000I-51000J0D01*
G01*
G37*
D21*
X79121000Y-87122000D03*
X76581000Y-87122000D03*
D22*
X57404000Y-56832500D03*
X57404000Y-59372500D03*
X57404000Y-61912500D03*
X62865000Y-56832500D03*
X62865000Y-59372500D03*
X62865000Y-61912500D03*
D23*
X70866000Y-84963000D03*
X63246000Y-92583000D03*
X70866000Y-87503000D03*
X63246000Y-90043000D03*
X70866000Y-90043000D03*
X63246000Y-87503000D03*
X70866000Y-92583000D03*
G36*
G01*
X61995000Y-85763000D02*
X61995000Y-84163000D01*
G75*
G02*
X62046000Y-84112000I51000J0D01*
G01*
X64446000Y-84112000D01*
G75*
G02*
X64497000Y-84163000I0J-51000D01*
G01*
X64497000Y-85763000D01*
G75*
G02*
X64446000Y-85814000I-51000J0D01*
G01*
X62046000Y-85814000D01*
G75*
G02*
X61995000Y-85763000I0J51000D01*
G01*
G37*
D10*
X75120500Y-70612000D03*
D11*
X67500500Y-70612000D03*
D10*
X75120500Y-67373500D03*
D11*
X67500500Y-67373500D03*
D24*
X74041000Y-99568000D03*
G36*
G01*
X67410000Y-101068000D02*
X67410000Y-98068000D01*
G75*
G02*
X67461000Y-98017000I51000J0D01*
G01*
X70461000Y-98017000D01*
G75*
G02*
X70512000Y-98068000I0J-51000D01*
G01*
X70512000Y-101068000D01*
G75*
G02*
X70461000Y-101119000I-51000J0D01*
G01*
X67461000Y-101119000D01*
G75*
G02*
X67410000Y-101068000I0J51000D01*
G01*
G37*
D16*
X76835000Y-92551000D03*
G36*
G01*
X76234999Y-89900000D02*
X77435001Y-89900000D01*
G75*
G02*
X77486000Y-89950999I0J-50999D01*
G01*
X77486000Y-91151001D01*
G75*
G02*
X77435001Y-91202000I-50999J0D01*
G01*
X76234999Y-91202000D01*
G75*
G02*
X76184000Y-91151001I0J50999D01*
G01*
X76184000Y-89950999D01*
G75*
G02*
X76234999Y-89900000I50999J0D01*
G01*
G37*
X86963500Y-77724000D03*
G36*
G01*
X89614500Y-77123999D02*
X89614500Y-78324001D01*
G75*
G02*
X89563501Y-78375000I-50999J0D01*
G01*
X88363499Y-78375000D01*
G75*
G02*
X88312500Y-78324001I0J50999D01*
G01*
X88312500Y-77123999D01*
G75*
G02*
X88363499Y-77073000I50999J0D01*
G01*
X89563501Y-77073000D01*
G75*
G02*
X89614500Y-77123999I0J-50999D01*
G01*
G37*
X81153000Y-100996500D03*
G36*
G01*
X80552999Y-98345500D02*
X81753001Y-98345500D01*
G75*
G02*
X81804000Y-98396499I0J-50999D01*
G01*
X81804000Y-99596501D01*
G75*
G02*
X81753001Y-99647500I-50999J0D01*
G01*
X80552999Y-99647500D01*
G75*
G02*
X80502000Y-99596501I0J50999D01*
G01*
X80502000Y-98396499D01*
G75*
G02*
X80552999Y-98345500I50999J0D01*
G01*
G37*
D11*
X80962500Y-76470500D03*
X80962500Y-81470500D03*
X84074000Y-76470500D03*
X84074000Y-81470500D03*
D24*
X50546000Y-62420500D03*
G36*
G01*
X49046000Y-55789500D02*
X52046000Y-55789500D01*
G75*
G02*
X52097000Y-55840500I0J-51000D01*
G01*
X52097000Y-58840500D01*
G75*
G02*
X52046000Y-58891500I-51000J0D01*
G01*
X49046000Y-58891500D01*
G75*
G02*
X48995000Y-58840500I0J51000D01*
G01*
X48995000Y-55840500D01*
G75*
G02*
X49046000Y-55789500I51000J0D01*
G01*
G37*
D10*
X97663000Y-81343500D03*
D11*
X90043000Y-81343500D03*
D24*
X127952500Y-99695000D03*
G36*
G01*
X121321500Y-101195000D02*
X121321500Y-98195000D01*
G75*
G02*
X121372500Y-98144000I51000J0D01*
G01*
X124372500Y-98144000D01*
G75*
G02*
X124423500Y-98195000I0J-51000D01*
G01*
X124423500Y-101195000D01*
G75*
G02*
X124372500Y-101246000I-51000J0D01*
G01*
X121372500Y-101246000D01*
G75*
G02*
X121321500Y-101195000I0J51000D01*
G01*
G37*
D14*
X119888000Y-61722000D03*
X122428000Y-61722000D03*
X119888000Y-64262000D03*
X122428000Y-64262000D03*
X119888000Y-66802000D03*
X122428000Y-66802000D03*
X119888000Y-69342000D03*
X122428000Y-69342000D03*
X119888000Y-71882000D03*
X122428000Y-71882000D03*
X119888000Y-74422000D03*
X122428000Y-74422000D03*
X119888000Y-76962000D03*
X122428000Y-76962000D03*
X119888000Y-79502000D03*
X122428000Y-79502000D03*
X119888000Y-82042000D03*
X122428000Y-82042000D03*
X119888000Y-84582000D03*
X122428000Y-84582000D03*
X119888000Y-87122000D03*
X122428000Y-87122000D03*
X119888000Y-89662000D03*
X122428000Y-89662000D03*
X119888000Y-92202000D03*
G36*
G01*
X123329000Y-91352000D02*
X123329000Y-93052000D01*
G75*
G02*
X123278000Y-93103000I-51000J0D01*
G01*
X121578000Y-93103000D01*
G75*
G02*
X121527000Y-93052000I0J51000D01*
G01*
X121527000Y-91352000D01*
G75*
G02*
X121578000Y-91301000I51000J0D01*
G01*
X123278000Y-91301000D01*
G75*
G02*
X123329000Y-91352000I0J-51000D01*
G01*
G37*
D16*
X83090000Y-60452000D03*
G36*
G01*
X85741000Y-59851999D02*
X85741000Y-61052001D01*
G75*
G02*
X85690001Y-61103000I-50999J0D01*
G01*
X84489999Y-61103000D01*
G75*
G02*
X84439000Y-61052001I0J50999D01*
G01*
X84439000Y-59851999D01*
G75*
G02*
X84489999Y-59801000I50999J0D01*
G01*
X85690001Y-59801000D01*
G75*
G02*
X85741000Y-59851999I0J-50999D01*
G01*
G37*
X98869500Y-60801500D03*
G36*
G01*
X99469501Y-63452500D02*
X98269499Y-63452500D01*
G75*
G02*
X98218500Y-63401501I0J50999D01*
G01*
X98218500Y-62201499D01*
G75*
G02*
X98269499Y-62150500I50999J0D01*
G01*
X99469501Y-62150500D01*
G75*
G02*
X99520500Y-62201499I0J-50999D01*
G01*
X99520500Y-63401501D01*
G75*
G02*
X99469501Y-63452500I-50999J0D01*
G01*
G37*
D10*
X103949500Y-65913000D03*
D11*
X103949500Y-73533000D03*
G36*
G01*
X100762500Y-83160500D02*
X99262500Y-83160500D01*
G75*
G02*
X99211500Y-83109500I0J51000D01*
G01*
X99211500Y-81609500D01*
G75*
G02*
X99262500Y-81558500I51000J0D01*
G01*
X100762500Y-81558500D01*
G75*
G02*
X100813500Y-81609500I0J-51000D01*
G01*
X100813500Y-83109500D01*
G75*
G02*
X100762500Y-83160500I-51000J0D01*
G01*
G37*
D21*
X105092500Y-82359500D03*
X102552500Y-82359500D03*
D15*
X102108000Y-57150000D03*
D14*
X111633000Y-71120000D03*
X114173000Y-71120000D03*
X111633000Y-73660000D03*
X114173000Y-73660000D03*
X111633000Y-76200000D03*
X114173000Y-76200000D03*
X111633000Y-78740000D03*
X114173000Y-78740000D03*
X111633000Y-81280000D03*
X114173000Y-81280000D03*
X111633000Y-83820000D03*
X114173000Y-83820000D03*
X111633000Y-86360000D03*
X114173000Y-86360000D03*
X111633000Y-88900000D03*
X114173000Y-88900000D03*
X111633000Y-91440000D03*
X114173000Y-91440000D03*
X111633000Y-93980000D03*
G36*
G01*
X115074000Y-93130000D02*
X115074000Y-94830000D01*
G75*
G02*
X115023000Y-94881000I-51000J0D01*
G01*
X113323000Y-94881000D01*
G75*
G02*
X113272000Y-94830000I0J51000D01*
G01*
X113272000Y-93130000D01*
G75*
G02*
X113323000Y-93079000I51000J0D01*
G01*
X115023000Y-93079000D01*
G75*
G02*
X115074000Y-93130000I0J-51000D01*
G01*
G37*
G36*
G01*
X97292000Y-88458000D02*
X97292000Y-86548000D01*
G75*
G02*
X97343000Y-86497000I51000J0D01*
G01*
X99253000Y-86497000D01*
G75*
G02*
X99304000Y-86548000I0J-51000D01*
G01*
X99304000Y-88458000D01*
G75*
G02*
X99253000Y-88509000I-51000J0D01*
G01*
X97343000Y-88509000D01*
G75*
G02*
X97292000Y-88458000I0J51000D01*
G01*
G37*
D25*
X100848000Y-87503000D03*
X103398000Y-87503000D03*
D22*
X78994000Y-71818500D03*
X78994000Y-69278500D03*
X78994000Y-66738500D03*
D11*
X101092000Y-93559000D03*
G36*
G01*
X100292000Y-90208000D02*
X101892000Y-90208000D01*
G75*
G02*
X101943000Y-90259000I0J-51000D01*
G01*
X101943000Y-91859000D01*
G75*
G02*
X101892000Y-91910000I-51000J0D01*
G01*
X100292000Y-91910000D01*
G75*
G02*
X100241000Y-91859000I0J51000D01*
G01*
X100241000Y-90259000D01*
G75*
G02*
X100292000Y-90208000I51000J0D01*
G01*
G37*
X106807000Y-93559000D03*
G36*
G01*
X106007000Y-90208000D02*
X107607000Y-90208000D01*
G75*
G02*
X107658000Y-90259000I0J-51000D01*
G01*
X107658000Y-91859000D01*
G75*
G02*
X107607000Y-91910000I-51000J0D01*
G01*
X106007000Y-91910000D01*
G75*
G02*
X105956000Y-91859000I0J51000D01*
G01*
X105956000Y-90259000D01*
G75*
G02*
X106007000Y-90208000I51000J0D01*
G01*
G37*
D23*
X90932000Y-65786000D03*
X83312000Y-73406000D03*
X90932000Y-68326000D03*
X83312000Y-70866000D03*
X90932000Y-70866000D03*
X83312000Y-68326000D03*
X90932000Y-73406000D03*
G36*
G01*
X82061000Y-66586000D02*
X82061000Y-64986000D01*
G75*
G02*
X82112000Y-64935000I51000J0D01*
G01*
X84512000Y-64935000D01*
G75*
G02*
X84563000Y-64986000I0J-51000D01*
G01*
X84563000Y-66586000D01*
G75*
G02*
X84512000Y-66637000I-51000J0D01*
G01*
X82112000Y-66637000D01*
G75*
G02*
X82061000Y-66586000I0J51000D01*
G01*
G37*
D10*
X97726500Y-65913000D03*
D11*
X97726500Y-73533000D03*
D26*
X103949500Y-75882500D03*
G36*
G01*
X104849500Y-79373500D02*
X103049500Y-79373500D01*
G75*
G02*
X102998500Y-79322500I0J51000D01*
G01*
X102998500Y-77522500D01*
G75*
G02*
X103049500Y-77471500I51000J0D01*
G01*
X104849500Y-77471500D01*
G75*
G02*
X104900500Y-77522500I0J-51000D01*
G01*
X104900500Y-79322500D01*
G75*
G02*
X104849500Y-79373500I-51000J0D01*
G01*
G37*
X99314000Y-75882500D03*
G36*
G01*
X100214000Y-79373500D02*
X98414000Y-79373500D01*
G75*
G02*
X98363000Y-79322500I0J51000D01*
G01*
X98363000Y-77522500D01*
G75*
G02*
X98414000Y-77471500I51000J0D01*
G01*
X100214000Y-77471500D01*
G75*
G02*
X100265000Y-77522500I0J-51000D01*
G01*
X100265000Y-79322500D01*
G75*
G02*
X100214000Y-79373500I-51000J0D01*
G01*
G37*
D22*
X79248000Y-60579000D03*
X76708000Y-60579000D03*
X74168000Y-60579000D03*
X108775500Y-61722000D03*
X106235500Y-61722000D03*
X103695500Y-61722000D03*
D10*
X95186500Y-62230000D03*
D11*
X87566500Y-62230000D03*
D10*
X94678500Y-65913000D03*
D11*
X94678500Y-73533000D03*
D10*
X86487000Y-84709000D03*
D11*
X94107000Y-84709000D03*
G36*
G01*
X95135000Y-56857000D02*
X96635000Y-56857000D01*
G75*
G02*
X96686000Y-56908000I0J-51000D01*
G01*
X96686000Y-58408000D01*
G75*
G02*
X96635000Y-58459000I-51000J0D01*
G01*
X95135000Y-58459000D01*
G75*
G02*
X95084000Y-58408000I0J51000D01*
G01*
X95084000Y-56908000D01*
G75*
G02*
X95135000Y-56857000I51000J0D01*
G01*
G37*
D21*
X90805000Y-57658000D03*
X93345000Y-57658000D03*
D14*
X87884000Y-56007000D03*
X85344000Y-56007000D03*
X82804000Y-56007000D03*
X80264000Y-56007000D03*
X77724000Y-56007000D03*
G36*
G01*
X76034000Y-56908000D02*
X74334000Y-56908000D01*
G75*
G02*
X74283000Y-56857000I0J51000D01*
G01*
X74283000Y-55157000D01*
G75*
G02*
X74334000Y-55106000I51000J0D01*
G01*
X76034000Y-55106000D01*
G75*
G02*
X76085000Y-55157000I0J-51000D01*
G01*
X76085000Y-56857000D01*
G75*
G02*
X76034000Y-56908000I-51000J0D01*
G01*
G37*
D26*
X94678500Y-75882500D03*
G36*
G01*
X95578500Y-79373500D02*
X93778500Y-79373500D01*
G75*
G02*
X93727500Y-79322500I0J51000D01*
G01*
X93727500Y-77522500D01*
G75*
G02*
X93778500Y-77471500I51000J0D01*
G01*
X95578500Y-77471500D01*
G75*
G02*
X95629500Y-77522500I0J-51000D01*
G01*
X95629500Y-79322500D01*
G75*
G02*
X95578500Y-79373500I-51000J0D01*
G01*
G37*
M02*
