G04 #@! TF.GenerationSoftware,KiCad,Pcbnew,(5.1.10)-1*
G04 #@! TF.CreationDate,2022-04-17T11:58:26+02:00*
G04 #@! TF.ProjectId,interface_MTM800E_V4,696e7465-7266-4616-9365-5f4d544d3830,V2*
G04 #@! TF.SameCoordinates,Original*
G04 #@! TF.FileFunction,Soldermask,Top*
G04 #@! TF.FilePolarity,Negative*
%FSLAX46Y46*%
G04 Gerber Fmt 4.6, Leading zero omitted, Abs format (unit mm)*
G04 Created by KiCad (PCBNEW (5.1.10)-1) date 2022-04-17 11:58:26*
%MOMM*%
%LPD*%
G01*
G04 APERTURE LIST*
%ADD10C,1.302000*%
%ADD11O,1.702000X1.702000*%
%ADD12C,1.702000*%
%ADD13O,1.502000X1.502000*%
%ADD14C,1.502000*%
%ADD15O,1.802000X1.802000*%
%ADD16C,2.102000*%
%ADD17C,0.100000*%
%ADD18C,2.852000*%
%ADD19C,1.852000*%
%ADD20O,1.902000X1.902000*%
%ADD21C,6.102000*%
%ADD22C,1.602000*%
%ADD23C,1.542000*%
%ADD24O,2.502000X1.702000*%
%ADD25C,3.102000*%
%ADD26C,2.012000*%
%ADD27C,1.902000*%
G04 APERTURE END LIST*
D10*
X64008000Y-65691000D03*
G36*
G01*
X64608001Y-68342000D02*
X63407999Y-68342000D01*
G75*
G02*
X63357000Y-68291001I0J50999D01*
G01*
X63357000Y-67090999D01*
G75*
G02*
X63407999Y-67040000I50999J0D01*
G01*
X64608001Y-67040000D01*
G75*
G02*
X64659000Y-67090999I0J-50999D01*
G01*
X64659000Y-68291001D01*
G75*
G02*
X64608001Y-68342000I-50999J0D01*
G01*
G37*
X68834000Y-62516000D03*
G36*
G01*
X69434001Y-65167000D02*
X68233999Y-65167000D01*
G75*
G02*
X68183000Y-65116001I0J50999D01*
G01*
X68183000Y-63915999D01*
G75*
G02*
X68233999Y-63865000I50999J0D01*
G01*
X69434001Y-63865000D01*
G75*
G02*
X69485000Y-63915999I0J-50999D01*
G01*
X69485000Y-65116001D01*
G75*
G02*
X69434001Y-65167000I-50999J0D01*
G01*
G37*
D11*
X94742000Y-101727000D03*
D12*
X87122000Y-101727000D03*
D13*
X95821500Y-93789500D03*
D14*
X93281500Y-93789500D03*
D11*
X94742000Y-98679000D03*
D12*
X87122000Y-98679000D03*
G36*
G01*
X112510000Y-52412000D02*
X112510000Y-50712000D01*
G75*
G02*
X112561000Y-50661000I51000J0D01*
G01*
X114261000Y-50661000D01*
G75*
G02*
X114312000Y-50712000I0J-51000D01*
G01*
X114312000Y-52412000D01*
G75*
G02*
X114261000Y-52463000I-51000J0D01*
G01*
X112561000Y-52463000D01*
G75*
G02*
X112510000Y-52412000I0J51000D01*
G01*
G37*
D15*
X128778000Y-91948000D03*
X126238000Y-91948000D03*
X128778000Y-89408000D03*
X126238000Y-89408000D03*
X128778000Y-86868000D03*
X126238000Y-86868000D03*
X128778000Y-84328000D03*
X126238000Y-84328000D03*
X128778000Y-81788000D03*
X126238000Y-81788000D03*
X128778000Y-79248000D03*
X126238000Y-79248000D03*
X128778000Y-76708000D03*
G36*
G01*
X125337000Y-77558000D02*
X125337000Y-75858000D01*
G75*
G02*
X125388000Y-75807000I51000J0D01*
G01*
X127088000Y-75807000D01*
G75*
G02*
X127139000Y-75858000I0J-51000D01*
G01*
X127139000Y-77558000D01*
G75*
G02*
X127088000Y-77609000I-51000J0D01*
G01*
X125388000Y-77609000D01*
G75*
G02*
X125337000Y-77558000I0J51000D01*
G01*
G37*
X128778000Y-72644000D03*
X126238000Y-72644000D03*
X128778000Y-70104000D03*
X126238000Y-70104000D03*
X128778000Y-67564000D03*
X126238000Y-67564000D03*
X128778000Y-65024000D03*
X126238000Y-65024000D03*
X128778000Y-62484000D03*
X126238000Y-62484000D03*
X128778000Y-59944000D03*
X126238000Y-59944000D03*
X128778000Y-57404000D03*
G36*
G01*
X125337000Y-58254000D02*
X125337000Y-56554000D01*
G75*
G02*
X125388000Y-56503000I51000J0D01*
G01*
X127088000Y-56503000D01*
G75*
G02*
X127139000Y-56554000I0J-51000D01*
G01*
X127139000Y-58254000D01*
G75*
G02*
X127088000Y-58305000I-51000J0D01*
G01*
X125388000Y-58305000D01*
G75*
G02*
X125337000Y-58254000I0J51000D01*
G01*
G37*
G36*
G01*
X115812000Y-100164000D02*
X115812000Y-98464000D01*
G75*
G02*
X115863000Y-98413000I51000J0D01*
G01*
X117563000Y-98413000D01*
G75*
G02*
X117614000Y-98464000I0J-51000D01*
G01*
X117614000Y-100164000D01*
G75*
G02*
X117563000Y-100215000I-51000J0D01*
G01*
X115863000Y-100215000D01*
G75*
G02*
X115812000Y-100164000I0J51000D01*
G01*
G37*
D16*
X108585000Y-57124600D03*
D13*
X69532500Y-55562500D03*
D14*
X72072500Y-55562500D03*
D10*
X68008500Y-59848500D03*
G36*
G01*
X67408499Y-57197500D02*
X68608501Y-57197500D01*
G75*
G02*
X68659500Y-57248499I0J-50999D01*
G01*
X68659500Y-58448501D01*
G75*
G02*
X68608501Y-58499500I-50999J0D01*
G01*
X67408499Y-58499500D01*
G75*
G02*
X67357500Y-58448501I0J50999D01*
G01*
X67357500Y-57248499D01*
G75*
G02*
X67408499Y-57197500I50999J0D01*
G01*
G37*
D11*
X122809000Y-58737500D03*
D12*
X122809000Y-51117500D03*
D11*
X77914500Y-75501500D03*
D12*
X77914500Y-83121500D03*
D11*
X74739500Y-74168000D03*
D12*
X74739500Y-81788000D03*
D17*
G36*
X104609980Y-57376650D02*
G01*
X104612882Y-57367083D01*
X104617595Y-57358266D01*
X104623938Y-57350538D01*
X104631710Y-57344165D01*
X105381710Y-56844165D01*
X105390532Y-56839462D01*
X105400103Y-56836570D01*
X105410053Y-56835600D01*
X105420002Y-56836590D01*
X105429566Y-56839503D01*
X105438290Y-56844165D01*
X106188290Y-57344165D01*
X106196025Y-57350500D01*
X106202375Y-57358222D01*
X106207097Y-57367034D01*
X106210010Y-57376598D01*
X106211000Y-57386600D01*
X106211000Y-58386600D01*
X106210020Y-58396550D01*
X106207118Y-58406117D01*
X106202405Y-58414934D01*
X106196062Y-58422662D01*
X106188334Y-58429005D01*
X106179517Y-58433718D01*
X106169950Y-58436620D01*
X106160000Y-58437600D01*
X104660000Y-58437600D01*
X104650050Y-58436620D01*
X104640483Y-58433718D01*
X104631666Y-58429005D01*
X104623938Y-58422662D01*
X104617595Y-58414934D01*
X104612882Y-58406117D01*
X104609980Y-58396550D01*
X104609000Y-58386600D01*
X104609000Y-57386600D01*
X104609980Y-57376650D01*
G37*
G36*
X104609980Y-55926650D02*
G01*
X104612882Y-55917083D01*
X104617595Y-55908266D01*
X104623938Y-55900538D01*
X104631666Y-55894195D01*
X104640483Y-55889482D01*
X104650050Y-55886580D01*
X104660000Y-55885600D01*
X106160000Y-55885600D01*
X106169950Y-55886580D01*
X106179517Y-55889482D01*
X106188334Y-55894195D01*
X106196062Y-55900538D01*
X106202405Y-55908266D01*
X106207118Y-55917083D01*
X106210020Y-55926650D01*
X106211000Y-55936600D01*
X106211000Y-57086600D01*
X106210020Y-57096550D01*
X106207118Y-57106117D01*
X106202405Y-57114934D01*
X106196062Y-57122662D01*
X106188334Y-57129005D01*
X106179517Y-57133718D01*
X106169950Y-57136620D01*
X106160000Y-57137600D01*
X106150050Y-57136620D01*
X106140483Y-57133718D01*
X106131710Y-57129035D01*
X105410000Y-56647895D01*
X104688290Y-57129035D01*
X104679468Y-57133738D01*
X104669897Y-57136630D01*
X104659947Y-57137600D01*
X104649998Y-57136610D01*
X104640434Y-57133697D01*
X104631622Y-57128975D01*
X104623900Y-57122625D01*
X104617565Y-57114890D01*
X104612862Y-57106068D01*
X104609970Y-57096497D01*
X104609000Y-57086600D01*
X104609000Y-55936600D01*
X104609980Y-55926650D01*
G37*
D18*
X107740000Y-100435000D03*
X49740000Y-100435000D03*
X107740000Y-51435000D03*
X49740000Y-51435000D03*
D19*
X102870000Y-52705000D03*
X102870000Y-50165000D03*
X100330000Y-52705000D03*
X100330000Y-50165000D03*
X97790000Y-52705000D03*
X97790000Y-50165000D03*
X95250000Y-52705000D03*
X95250000Y-50165000D03*
X92710000Y-52705000D03*
X92710000Y-50165000D03*
X85090000Y-50165000D03*
X85090000Y-52705000D03*
X80010000Y-50165000D03*
X80010000Y-52705000D03*
X77470000Y-50165000D03*
X77470000Y-52705000D03*
X74930000Y-50165000D03*
X74930000Y-52705000D03*
X72390000Y-50165000D03*
X72390000Y-52705000D03*
X69850000Y-50165000D03*
X69850000Y-52705000D03*
X67310000Y-50165000D03*
X67310000Y-52705000D03*
X64770000Y-50165000D03*
X64770000Y-52705000D03*
X62230000Y-50165000D03*
X62230000Y-52705000D03*
X59690000Y-50165000D03*
X59690000Y-52705000D03*
X57150000Y-50165000D03*
X57150000Y-52705000D03*
X54610000Y-50165000D03*
G36*
G01*
X53684000Y-53580000D02*
X53684000Y-51830000D01*
G75*
G02*
X53735000Y-51779000I51000J0D01*
G01*
X55485000Y-51779000D01*
G75*
G02*
X55536000Y-51830000I0J-51000D01*
G01*
X55536000Y-53580000D01*
G75*
G02*
X55485000Y-53631000I-51000J0D01*
G01*
X53735000Y-53631000D01*
G75*
G02*
X53684000Y-53580000I0J51000D01*
G01*
G37*
X82550000Y-52705000D03*
X82550000Y-50165000D03*
X90170000Y-50165000D03*
X90170000Y-52705000D03*
X87630000Y-50165000D03*
X87630000Y-52705000D03*
D10*
X64738000Y-71247000D03*
G36*
G01*
X62087000Y-71847001D02*
X62087000Y-70646999D01*
G75*
G02*
X62137999Y-70596000I50999J0D01*
G01*
X63338001Y-70596000D01*
G75*
G02*
X63389000Y-70646999I0J-50999D01*
G01*
X63389000Y-71847001D01*
G75*
G02*
X63338001Y-71898000I-50999J0D01*
G01*
X62137999Y-71898000D01*
G75*
G02*
X62087000Y-71847001I0J50999D01*
G01*
G37*
D11*
X100838000Y-65913000D03*
D12*
X100838000Y-73533000D03*
D13*
X120269000Y-57785000D03*
D14*
X117729000Y-57785000D03*
D13*
X120269000Y-55118000D03*
D14*
X117729000Y-55118000D03*
D20*
X107505500Y-66611500D03*
G36*
G01*
X108405500Y-72642500D02*
X106605500Y-72642500D01*
G75*
G02*
X106554500Y-72591500I0J51000D01*
G01*
X106554500Y-70791500D01*
G75*
G02*
X106605500Y-70740500I51000J0D01*
G01*
X108405500Y-70740500D01*
G75*
G02*
X108456500Y-70791500I0J-51000D01*
G01*
X108456500Y-72591500D01*
G75*
G02*
X108405500Y-72642500I-51000J0D01*
G01*
G37*
D15*
X63500000Y-80391000D03*
G36*
G01*
X62599000Y-78701000D02*
X62599000Y-77001000D01*
G75*
G02*
X62650000Y-76950000I51000J0D01*
G01*
X64350000Y-76950000D01*
G75*
G02*
X64401000Y-77001000I0J-51000D01*
G01*
X64401000Y-78701000D01*
G75*
G02*
X64350000Y-78752000I-51000J0D01*
G01*
X62650000Y-78752000D01*
G75*
G02*
X62599000Y-78701000I0J51000D01*
G01*
G37*
X113157000Y-65849500D03*
X113157000Y-63309500D03*
G36*
G01*
X112256000Y-61619500D02*
X112256000Y-59919500D01*
G75*
G02*
X112307000Y-59868500I51000J0D01*
G01*
X114007000Y-59868500D01*
G75*
G02*
X114058000Y-59919500I0J-51000D01*
G01*
X114058000Y-61619500D01*
G75*
G02*
X114007000Y-61670500I-51000J0D01*
G01*
X112307000Y-61670500D01*
G75*
G02*
X112256000Y-61619500I0J51000D01*
G01*
G37*
X112268000Y-57023000D03*
G36*
G01*
X113958000Y-56122000D02*
X115658000Y-56122000D01*
G75*
G02*
X115709000Y-56173000I0J-51000D01*
G01*
X115709000Y-57873000D01*
G75*
G02*
X115658000Y-57924000I-51000J0D01*
G01*
X113958000Y-57924000D01*
G75*
G02*
X113907000Y-57873000I0J51000D01*
G01*
X113907000Y-56173000D01*
G75*
G02*
X113958000Y-56122000I51000J0D01*
G01*
G37*
G36*
G01*
X70918000Y-74089500D02*
X70918000Y-73738500D01*
G75*
G02*
X71093500Y-73563000I175500J0D01*
G01*
X72794500Y-73563000D01*
G75*
G02*
X72970000Y-73738500I0J-175500D01*
G01*
X72970000Y-74089500D01*
G75*
G02*
X72794500Y-74265000I-175500J0D01*
G01*
X71093500Y-74265000D01*
G75*
G02*
X70918000Y-74089500I0J175500D01*
G01*
G37*
G36*
G01*
X70918000Y-75359500D02*
X70918000Y-75008500D01*
G75*
G02*
X71093500Y-74833000I175500J0D01*
G01*
X72794500Y-74833000D01*
G75*
G02*
X72970000Y-75008500I0J-175500D01*
G01*
X72970000Y-75359500D01*
G75*
G02*
X72794500Y-75535000I-175500J0D01*
G01*
X71093500Y-75535000D01*
G75*
G02*
X70918000Y-75359500I0J175500D01*
G01*
G37*
G36*
G01*
X70918000Y-76629500D02*
X70918000Y-76278500D01*
G75*
G02*
X71093500Y-76103000I175500J0D01*
G01*
X72794500Y-76103000D01*
G75*
G02*
X72970000Y-76278500I0J-175500D01*
G01*
X72970000Y-76629500D01*
G75*
G02*
X72794500Y-76805000I-175500J0D01*
G01*
X71093500Y-76805000D01*
G75*
G02*
X70918000Y-76629500I0J175500D01*
G01*
G37*
G36*
G01*
X70918000Y-77899500D02*
X70918000Y-77548500D01*
G75*
G02*
X71093500Y-77373000I175500J0D01*
G01*
X72794500Y-77373000D01*
G75*
G02*
X72970000Y-77548500I0J-175500D01*
G01*
X72970000Y-77899500D01*
G75*
G02*
X72794500Y-78075000I-175500J0D01*
G01*
X71093500Y-78075000D01*
G75*
G02*
X70918000Y-77899500I0J175500D01*
G01*
G37*
G36*
G01*
X70918000Y-79169500D02*
X70918000Y-78818500D01*
G75*
G02*
X71093500Y-78643000I175500J0D01*
G01*
X72794500Y-78643000D01*
G75*
G02*
X72970000Y-78818500I0J-175500D01*
G01*
X72970000Y-79169500D01*
G75*
G02*
X72794500Y-79345000I-175500J0D01*
G01*
X71093500Y-79345000D01*
G75*
G02*
X70918000Y-79169500I0J175500D01*
G01*
G37*
G36*
G01*
X70918000Y-80439500D02*
X70918000Y-80088500D01*
G75*
G02*
X71093500Y-79913000I175500J0D01*
G01*
X72794500Y-79913000D01*
G75*
G02*
X72970000Y-80088500I0J-175500D01*
G01*
X72970000Y-80439500D01*
G75*
G02*
X72794500Y-80615000I-175500J0D01*
G01*
X71093500Y-80615000D01*
G75*
G02*
X70918000Y-80439500I0J175500D01*
G01*
G37*
G36*
G01*
X70918000Y-81709500D02*
X70918000Y-81358500D01*
G75*
G02*
X71093500Y-81183000I175500J0D01*
G01*
X72794500Y-81183000D01*
G75*
G02*
X72970000Y-81358500I0J-175500D01*
G01*
X72970000Y-81709500D01*
G75*
G02*
X72794500Y-81885000I-175500J0D01*
G01*
X71093500Y-81885000D01*
G75*
G02*
X70918000Y-81709500I0J175500D01*
G01*
G37*
G36*
G01*
X65968000Y-81709500D02*
X65968000Y-81358500D01*
G75*
G02*
X66143500Y-81183000I175500J0D01*
G01*
X67844500Y-81183000D01*
G75*
G02*
X68020000Y-81358500I0J-175500D01*
G01*
X68020000Y-81709500D01*
G75*
G02*
X67844500Y-81885000I-175500J0D01*
G01*
X66143500Y-81885000D01*
G75*
G02*
X65968000Y-81709500I0J175500D01*
G01*
G37*
G36*
G01*
X65968000Y-80439500D02*
X65968000Y-80088500D01*
G75*
G02*
X66143500Y-79913000I175500J0D01*
G01*
X67844500Y-79913000D01*
G75*
G02*
X68020000Y-80088500I0J-175500D01*
G01*
X68020000Y-80439500D01*
G75*
G02*
X67844500Y-80615000I-175500J0D01*
G01*
X66143500Y-80615000D01*
G75*
G02*
X65968000Y-80439500I0J175500D01*
G01*
G37*
G36*
G01*
X65968000Y-79169500D02*
X65968000Y-78818500D01*
G75*
G02*
X66143500Y-78643000I175500J0D01*
G01*
X67844500Y-78643000D01*
G75*
G02*
X68020000Y-78818500I0J-175500D01*
G01*
X68020000Y-79169500D01*
G75*
G02*
X67844500Y-79345000I-175500J0D01*
G01*
X66143500Y-79345000D01*
G75*
G02*
X65968000Y-79169500I0J175500D01*
G01*
G37*
G36*
G01*
X65968000Y-77899500D02*
X65968000Y-77548500D01*
G75*
G02*
X66143500Y-77373000I175500J0D01*
G01*
X67844500Y-77373000D01*
G75*
G02*
X68020000Y-77548500I0J-175500D01*
G01*
X68020000Y-77899500D01*
G75*
G02*
X67844500Y-78075000I-175500J0D01*
G01*
X66143500Y-78075000D01*
G75*
G02*
X65968000Y-77899500I0J175500D01*
G01*
G37*
G36*
G01*
X65968000Y-76629500D02*
X65968000Y-76278500D01*
G75*
G02*
X66143500Y-76103000I175500J0D01*
G01*
X67844500Y-76103000D01*
G75*
G02*
X68020000Y-76278500I0J-175500D01*
G01*
X68020000Y-76629500D01*
G75*
G02*
X67844500Y-76805000I-175500J0D01*
G01*
X66143500Y-76805000D01*
G75*
G02*
X65968000Y-76629500I0J175500D01*
G01*
G37*
G36*
G01*
X65968000Y-75359500D02*
X65968000Y-75008500D01*
G75*
G02*
X66143500Y-74833000I175500J0D01*
G01*
X67844500Y-74833000D01*
G75*
G02*
X68020000Y-75008500I0J-175500D01*
G01*
X68020000Y-75359500D01*
G75*
G02*
X67844500Y-75535000I-175500J0D01*
G01*
X66143500Y-75535000D01*
G75*
G02*
X65968000Y-75359500I0J175500D01*
G01*
G37*
G36*
G01*
X65968000Y-74089500D02*
X65968000Y-73738500D01*
G75*
G02*
X66143500Y-73563000I175500J0D01*
G01*
X67844500Y-73563000D01*
G75*
G02*
X68020000Y-73738500I0J-175500D01*
G01*
X68020000Y-74089500D01*
G75*
G02*
X67844500Y-74265000I-175500J0D01*
G01*
X66143500Y-74265000D01*
G75*
G02*
X65968000Y-74089500I0J175500D01*
G01*
G37*
D21*
X57698500Y-93701000D03*
X57698500Y-68701000D03*
D16*
X56278500Y-77046000D03*
X56278500Y-79816000D03*
X56278500Y-82586000D03*
X56278500Y-85356000D03*
X59118500Y-75661000D03*
X59118500Y-78431000D03*
X59118500Y-81201000D03*
X59118500Y-83971000D03*
G36*
G01*
X58118500Y-85690000D02*
X60118500Y-85690000D01*
G75*
G02*
X60169500Y-85741000I0J-51000D01*
G01*
X60169500Y-87741000D01*
G75*
G02*
X60118500Y-87792000I-51000J0D01*
G01*
X58118500Y-87792000D01*
G75*
G02*
X58067500Y-87741000I0J51000D01*
G01*
X58067500Y-85741000D01*
G75*
G02*
X58118500Y-85690000I51000J0D01*
G01*
G37*
G36*
G01*
X74791000Y-87923000D02*
X73291000Y-87923000D01*
G75*
G02*
X73240000Y-87872000I0J51000D01*
G01*
X73240000Y-86372000D01*
G75*
G02*
X73291000Y-86321000I51000J0D01*
G01*
X74791000Y-86321000D01*
G75*
G02*
X74842000Y-86372000I0J-51000D01*
G01*
X74842000Y-87872000D01*
G75*
G02*
X74791000Y-87923000I-51000J0D01*
G01*
G37*
D22*
X79121000Y-87122000D03*
X76581000Y-87122000D03*
D23*
X57404000Y-56832500D03*
X57404000Y-59372500D03*
X57404000Y-61912500D03*
X62865000Y-56832500D03*
X62865000Y-59372500D03*
X62865000Y-61912500D03*
D24*
X70866000Y-84963000D03*
X63246000Y-92583000D03*
X70866000Y-87503000D03*
X63246000Y-90043000D03*
X70866000Y-90043000D03*
X63246000Y-87503000D03*
X70866000Y-92583000D03*
G36*
G01*
X61995000Y-85763000D02*
X61995000Y-84163000D01*
G75*
G02*
X62046000Y-84112000I51000J0D01*
G01*
X64446000Y-84112000D01*
G75*
G02*
X64497000Y-84163000I0J-51000D01*
G01*
X64497000Y-85763000D01*
G75*
G02*
X64446000Y-85814000I-51000J0D01*
G01*
X62046000Y-85814000D01*
G75*
G02*
X61995000Y-85763000I0J51000D01*
G01*
G37*
D11*
X75120500Y-70612000D03*
D12*
X67500500Y-70612000D03*
D11*
X75120500Y-67373500D03*
D12*
X67500500Y-67373500D03*
D25*
X75628500Y-99568000D03*
G36*
G01*
X68997500Y-101068000D02*
X68997500Y-98068000D01*
G75*
G02*
X69048500Y-98017000I51000J0D01*
G01*
X72048500Y-98017000D01*
G75*
G02*
X72099500Y-98068000I0J-51000D01*
G01*
X72099500Y-101068000D01*
G75*
G02*
X72048500Y-101119000I-51000J0D01*
G01*
X69048500Y-101119000D01*
G75*
G02*
X68997500Y-101068000I0J51000D01*
G01*
G37*
D10*
X76835000Y-92551000D03*
G36*
G01*
X76234999Y-89900000D02*
X77435001Y-89900000D01*
G75*
G02*
X77486000Y-89950999I0J-50999D01*
G01*
X77486000Y-91151001D01*
G75*
G02*
X77435001Y-91202000I-50999J0D01*
G01*
X76234999Y-91202000D01*
G75*
G02*
X76184000Y-91151001I0J50999D01*
G01*
X76184000Y-89950999D01*
G75*
G02*
X76234999Y-89900000I50999J0D01*
G01*
G37*
X86963500Y-77724000D03*
G36*
G01*
X89614500Y-77123999D02*
X89614500Y-78324001D01*
G75*
G02*
X89563501Y-78375000I-50999J0D01*
G01*
X88363499Y-78375000D01*
G75*
G02*
X88312500Y-78324001I0J50999D01*
G01*
X88312500Y-77123999D01*
G75*
G02*
X88363499Y-77073000I50999J0D01*
G01*
X89563501Y-77073000D01*
G75*
G02*
X89614500Y-77123999I0J-50999D01*
G01*
G37*
X81153000Y-100996500D03*
G36*
G01*
X80552999Y-98345500D02*
X81753001Y-98345500D01*
G75*
G02*
X81804000Y-98396499I0J-50999D01*
G01*
X81804000Y-99596501D01*
G75*
G02*
X81753001Y-99647500I-50999J0D01*
G01*
X80552999Y-99647500D01*
G75*
G02*
X80502000Y-99596501I0J50999D01*
G01*
X80502000Y-98396499D01*
G75*
G02*
X80552999Y-98345500I50999J0D01*
G01*
G37*
D12*
X80962500Y-76470500D03*
X80962500Y-81470500D03*
X84074000Y-76470500D03*
X84074000Y-81470500D03*
D25*
X50546000Y-62420500D03*
G36*
G01*
X49046000Y-55789500D02*
X52046000Y-55789500D01*
G75*
G02*
X52097000Y-55840500I0J-51000D01*
G01*
X52097000Y-58840500D01*
G75*
G02*
X52046000Y-58891500I-51000J0D01*
G01*
X49046000Y-58891500D01*
G75*
G02*
X48995000Y-58840500I0J51000D01*
G01*
X48995000Y-55840500D01*
G75*
G02*
X49046000Y-55789500I51000J0D01*
G01*
G37*
D11*
X97663000Y-81343500D03*
D12*
X90043000Y-81343500D03*
D25*
X127952500Y-99695000D03*
G36*
G01*
X121321500Y-101195000D02*
X121321500Y-98195000D01*
G75*
G02*
X121372500Y-98144000I51000J0D01*
G01*
X124372500Y-98144000D01*
G75*
G02*
X124423500Y-98195000I0J-51000D01*
G01*
X124423500Y-101195000D01*
G75*
G02*
X124372500Y-101246000I-51000J0D01*
G01*
X121372500Y-101246000D01*
G75*
G02*
X121321500Y-101195000I0J51000D01*
G01*
G37*
D15*
X119888000Y-61722000D03*
X122428000Y-61722000D03*
X119888000Y-64262000D03*
X122428000Y-64262000D03*
X119888000Y-66802000D03*
X122428000Y-66802000D03*
X119888000Y-69342000D03*
X122428000Y-69342000D03*
X119888000Y-71882000D03*
X122428000Y-71882000D03*
X119888000Y-74422000D03*
X122428000Y-74422000D03*
X119888000Y-76962000D03*
X122428000Y-76962000D03*
X119888000Y-79502000D03*
X122428000Y-79502000D03*
X119888000Y-82042000D03*
X122428000Y-82042000D03*
X119888000Y-84582000D03*
X122428000Y-84582000D03*
X119888000Y-87122000D03*
X122428000Y-87122000D03*
X119888000Y-89662000D03*
X122428000Y-89662000D03*
X119888000Y-92202000D03*
G36*
G01*
X123329000Y-91352000D02*
X123329000Y-93052000D01*
G75*
G02*
X123278000Y-93103000I-51000J0D01*
G01*
X121578000Y-93103000D01*
G75*
G02*
X121527000Y-93052000I0J51000D01*
G01*
X121527000Y-91352000D01*
G75*
G02*
X121578000Y-91301000I51000J0D01*
G01*
X123278000Y-91301000D01*
G75*
G02*
X123329000Y-91352000I0J-51000D01*
G01*
G37*
D10*
X83090000Y-60452000D03*
G36*
G01*
X85741000Y-59851999D02*
X85741000Y-61052001D01*
G75*
G02*
X85690001Y-61103000I-50999J0D01*
G01*
X84489999Y-61103000D01*
G75*
G02*
X84439000Y-61052001I0J50999D01*
G01*
X84439000Y-59851999D01*
G75*
G02*
X84489999Y-59801000I50999J0D01*
G01*
X85690001Y-59801000D01*
G75*
G02*
X85741000Y-59851999I0J-50999D01*
G01*
G37*
X98679000Y-60865000D03*
G36*
G01*
X99279001Y-63516000D02*
X98078999Y-63516000D01*
G75*
G02*
X98028000Y-63465001I0J50999D01*
G01*
X98028000Y-62264999D01*
G75*
G02*
X98078999Y-62214000I50999J0D01*
G01*
X99279001Y-62214000D01*
G75*
G02*
X99330000Y-62264999I0J-50999D01*
G01*
X99330000Y-63465001D01*
G75*
G02*
X99279001Y-63516000I-50999J0D01*
G01*
G37*
D17*
G36*
X97904380Y-57390450D02*
G01*
X97907282Y-57380883D01*
X97911995Y-57372066D01*
X97918338Y-57364338D01*
X97926110Y-57357965D01*
X98676110Y-56857965D01*
X98684932Y-56853262D01*
X98694503Y-56850370D01*
X98704453Y-56849400D01*
X98714402Y-56850390D01*
X98723966Y-56853303D01*
X98732690Y-56857965D01*
X99482690Y-57357965D01*
X99490425Y-57364300D01*
X99496775Y-57372022D01*
X99501497Y-57380834D01*
X99504410Y-57390398D01*
X99505400Y-57400400D01*
X99505400Y-58400400D01*
X99504420Y-58410350D01*
X99501518Y-58419917D01*
X99496805Y-58428734D01*
X99490462Y-58436462D01*
X99482734Y-58442805D01*
X99473917Y-58447518D01*
X99464350Y-58450420D01*
X99454400Y-58451400D01*
X97954400Y-58451400D01*
X97944450Y-58450420D01*
X97934883Y-58447518D01*
X97926066Y-58442805D01*
X97918338Y-58436462D01*
X97911995Y-58428734D01*
X97907282Y-58419917D01*
X97904380Y-58410350D01*
X97903400Y-58400400D01*
X97903400Y-57400400D01*
X97904380Y-57390450D01*
G37*
G36*
X97904380Y-55940450D02*
G01*
X97907282Y-55930883D01*
X97911995Y-55922066D01*
X97918338Y-55914338D01*
X97926066Y-55907995D01*
X97934883Y-55903282D01*
X97944450Y-55900380D01*
X97954400Y-55899400D01*
X99454400Y-55899400D01*
X99464350Y-55900380D01*
X99473917Y-55903282D01*
X99482734Y-55907995D01*
X99490462Y-55914338D01*
X99496805Y-55922066D01*
X99501518Y-55930883D01*
X99504420Y-55940450D01*
X99505400Y-55950400D01*
X99505400Y-57100400D01*
X99504420Y-57110350D01*
X99501518Y-57119917D01*
X99496805Y-57128734D01*
X99490462Y-57136462D01*
X99482734Y-57142805D01*
X99473917Y-57147518D01*
X99464350Y-57150420D01*
X99454400Y-57151400D01*
X99444450Y-57150420D01*
X99434883Y-57147518D01*
X99426110Y-57142835D01*
X98704400Y-56661695D01*
X97982690Y-57142835D01*
X97973868Y-57147538D01*
X97964297Y-57150430D01*
X97954347Y-57151400D01*
X97944398Y-57150410D01*
X97934834Y-57147497D01*
X97926022Y-57142775D01*
X97918300Y-57136425D01*
X97911965Y-57128690D01*
X97907262Y-57119868D01*
X97904370Y-57110297D01*
X97903400Y-57100400D01*
X97903400Y-55950400D01*
X97904380Y-55940450D01*
G37*
D11*
X103949500Y-65913000D03*
D12*
X103949500Y-73533000D03*
G36*
G01*
X100762500Y-83160500D02*
X99262500Y-83160500D01*
G75*
G02*
X99211500Y-83109500I0J51000D01*
G01*
X99211500Y-81609500D01*
G75*
G02*
X99262500Y-81558500I51000J0D01*
G01*
X100762500Y-81558500D01*
G75*
G02*
X100813500Y-81609500I0J-51000D01*
G01*
X100813500Y-83109500D01*
G75*
G02*
X100762500Y-83160500I-51000J0D01*
G01*
G37*
D22*
X105092500Y-82359500D03*
X102552500Y-82359500D03*
G36*
G01*
X92672750Y-88537000D02*
X93636250Y-88537000D01*
G75*
G02*
X93905500Y-88806250I0J-269250D01*
G01*
X93905500Y-89344750D01*
G75*
G02*
X93636250Y-89614000I-269250J0D01*
G01*
X92672750Y-89614000D01*
G75*
G02*
X92403500Y-89344750I0J269250D01*
G01*
X92403500Y-88806250D01*
G75*
G02*
X92672750Y-88537000I269250J0D01*
G01*
G37*
G36*
G01*
X92672750Y-86662000D02*
X93636250Y-86662000D01*
G75*
G02*
X93905500Y-86931250I0J-269250D01*
G01*
X93905500Y-87469750D01*
G75*
G02*
X93636250Y-87739000I-269250J0D01*
G01*
X92672750Y-87739000D01*
G75*
G02*
X92403500Y-87469750I0J269250D01*
G01*
X92403500Y-86931250D01*
G75*
G02*
X92672750Y-86662000I269250J0D01*
G01*
G37*
D16*
X102108000Y-57150000D03*
D15*
X111633000Y-71120000D03*
X114173000Y-71120000D03*
X111633000Y-73660000D03*
X114173000Y-73660000D03*
X111633000Y-76200000D03*
X114173000Y-76200000D03*
X111633000Y-78740000D03*
X114173000Y-78740000D03*
X111633000Y-81280000D03*
X114173000Y-81280000D03*
X111633000Y-83820000D03*
X114173000Y-83820000D03*
X111633000Y-86360000D03*
X114173000Y-86360000D03*
X111633000Y-88900000D03*
X114173000Y-88900000D03*
X111633000Y-91440000D03*
X114173000Y-91440000D03*
X111633000Y-93980000D03*
G36*
G01*
X115074000Y-93130000D02*
X115074000Y-94830000D01*
G75*
G02*
X115023000Y-94881000I-51000J0D01*
G01*
X113323000Y-94881000D01*
G75*
G02*
X113272000Y-94830000I0J51000D01*
G01*
X113272000Y-93130000D01*
G75*
G02*
X113323000Y-93079000I51000J0D01*
G01*
X115023000Y-93079000D01*
G75*
G02*
X115074000Y-93130000I0J-51000D01*
G01*
G37*
G36*
G01*
X97292000Y-88458000D02*
X97292000Y-86548000D01*
G75*
G02*
X97343000Y-86497000I51000J0D01*
G01*
X99253000Y-86497000D01*
G75*
G02*
X99304000Y-86548000I0J-51000D01*
G01*
X99304000Y-88458000D01*
G75*
G02*
X99253000Y-88509000I-51000J0D01*
G01*
X97343000Y-88509000D01*
G75*
G02*
X97292000Y-88458000I0J51000D01*
G01*
G37*
D26*
X100848000Y-87503000D03*
X103398000Y-87503000D03*
G36*
G01*
X88890000Y-87297500D02*
X88890000Y-86946500D01*
G75*
G02*
X89065500Y-86771000I175500J0D01*
G01*
X90766500Y-86771000D01*
G75*
G02*
X90942000Y-86946500I0J-175500D01*
G01*
X90942000Y-87297500D01*
G75*
G02*
X90766500Y-87473000I-175500J0D01*
G01*
X89065500Y-87473000D01*
G75*
G02*
X88890000Y-87297500I0J175500D01*
G01*
G37*
G36*
G01*
X88890000Y-88567500D02*
X88890000Y-88216500D01*
G75*
G02*
X89065500Y-88041000I175500J0D01*
G01*
X90766500Y-88041000D01*
G75*
G02*
X90942000Y-88216500I0J-175500D01*
G01*
X90942000Y-88567500D01*
G75*
G02*
X90766500Y-88743000I-175500J0D01*
G01*
X89065500Y-88743000D01*
G75*
G02*
X88890000Y-88567500I0J175500D01*
G01*
G37*
G36*
G01*
X88890000Y-89837500D02*
X88890000Y-89486500D01*
G75*
G02*
X89065500Y-89311000I175500J0D01*
G01*
X90766500Y-89311000D01*
G75*
G02*
X90942000Y-89486500I0J-175500D01*
G01*
X90942000Y-89837500D01*
G75*
G02*
X90766500Y-90013000I-175500J0D01*
G01*
X89065500Y-90013000D01*
G75*
G02*
X88890000Y-89837500I0J175500D01*
G01*
G37*
G36*
G01*
X88890000Y-91107500D02*
X88890000Y-90756500D01*
G75*
G02*
X89065500Y-90581000I175500J0D01*
G01*
X90766500Y-90581000D01*
G75*
G02*
X90942000Y-90756500I0J-175500D01*
G01*
X90942000Y-91107500D01*
G75*
G02*
X90766500Y-91283000I-175500J0D01*
G01*
X89065500Y-91283000D01*
G75*
G02*
X88890000Y-91107500I0J175500D01*
G01*
G37*
G36*
G01*
X88890000Y-92377500D02*
X88890000Y-92026500D01*
G75*
G02*
X89065500Y-91851000I175500J0D01*
G01*
X90766500Y-91851000D01*
G75*
G02*
X90942000Y-92026500I0J-175500D01*
G01*
X90942000Y-92377500D01*
G75*
G02*
X90766500Y-92553000I-175500J0D01*
G01*
X89065500Y-92553000D01*
G75*
G02*
X88890000Y-92377500I0J175500D01*
G01*
G37*
G36*
G01*
X88890000Y-93647500D02*
X88890000Y-93296500D01*
G75*
G02*
X89065500Y-93121000I175500J0D01*
G01*
X90766500Y-93121000D01*
G75*
G02*
X90942000Y-93296500I0J-175500D01*
G01*
X90942000Y-93647500D01*
G75*
G02*
X90766500Y-93823000I-175500J0D01*
G01*
X89065500Y-93823000D01*
G75*
G02*
X88890000Y-93647500I0J175500D01*
G01*
G37*
G36*
G01*
X88890000Y-94917500D02*
X88890000Y-94566500D01*
G75*
G02*
X89065500Y-94391000I175500J0D01*
G01*
X90766500Y-94391000D01*
G75*
G02*
X90942000Y-94566500I0J-175500D01*
G01*
X90942000Y-94917500D01*
G75*
G02*
X90766500Y-95093000I-175500J0D01*
G01*
X89065500Y-95093000D01*
G75*
G02*
X88890000Y-94917500I0J175500D01*
G01*
G37*
G36*
G01*
X88890000Y-96187500D02*
X88890000Y-95836500D01*
G75*
G02*
X89065500Y-95661000I175500J0D01*
G01*
X90766500Y-95661000D01*
G75*
G02*
X90942000Y-95836500I0J-175500D01*
G01*
X90942000Y-96187500D01*
G75*
G02*
X90766500Y-96363000I-175500J0D01*
G01*
X89065500Y-96363000D01*
G75*
G02*
X88890000Y-96187500I0J175500D01*
G01*
G37*
G36*
G01*
X83940000Y-96187500D02*
X83940000Y-95836500D01*
G75*
G02*
X84115500Y-95661000I175500J0D01*
G01*
X85816500Y-95661000D01*
G75*
G02*
X85992000Y-95836500I0J-175500D01*
G01*
X85992000Y-96187500D01*
G75*
G02*
X85816500Y-96363000I-175500J0D01*
G01*
X84115500Y-96363000D01*
G75*
G02*
X83940000Y-96187500I0J175500D01*
G01*
G37*
G36*
G01*
X83940000Y-94917500D02*
X83940000Y-94566500D01*
G75*
G02*
X84115500Y-94391000I175500J0D01*
G01*
X85816500Y-94391000D01*
G75*
G02*
X85992000Y-94566500I0J-175500D01*
G01*
X85992000Y-94917500D01*
G75*
G02*
X85816500Y-95093000I-175500J0D01*
G01*
X84115500Y-95093000D01*
G75*
G02*
X83940000Y-94917500I0J175500D01*
G01*
G37*
G36*
G01*
X83940000Y-93647500D02*
X83940000Y-93296500D01*
G75*
G02*
X84115500Y-93121000I175500J0D01*
G01*
X85816500Y-93121000D01*
G75*
G02*
X85992000Y-93296500I0J-175500D01*
G01*
X85992000Y-93647500D01*
G75*
G02*
X85816500Y-93823000I-175500J0D01*
G01*
X84115500Y-93823000D01*
G75*
G02*
X83940000Y-93647500I0J175500D01*
G01*
G37*
G36*
G01*
X83940000Y-92377500D02*
X83940000Y-92026500D01*
G75*
G02*
X84115500Y-91851000I175500J0D01*
G01*
X85816500Y-91851000D01*
G75*
G02*
X85992000Y-92026500I0J-175500D01*
G01*
X85992000Y-92377500D01*
G75*
G02*
X85816500Y-92553000I-175500J0D01*
G01*
X84115500Y-92553000D01*
G75*
G02*
X83940000Y-92377500I0J175500D01*
G01*
G37*
G36*
G01*
X83940000Y-91107500D02*
X83940000Y-90756500D01*
G75*
G02*
X84115500Y-90581000I175500J0D01*
G01*
X85816500Y-90581000D01*
G75*
G02*
X85992000Y-90756500I0J-175500D01*
G01*
X85992000Y-91107500D01*
G75*
G02*
X85816500Y-91283000I-175500J0D01*
G01*
X84115500Y-91283000D01*
G75*
G02*
X83940000Y-91107500I0J175500D01*
G01*
G37*
G36*
G01*
X83940000Y-89837500D02*
X83940000Y-89486500D01*
G75*
G02*
X84115500Y-89311000I175500J0D01*
G01*
X85816500Y-89311000D01*
G75*
G02*
X85992000Y-89486500I0J-175500D01*
G01*
X85992000Y-89837500D01*
G75*
G02*
X85816500Y-90013000I-175500J0D01*
G01*
X84115500Y-90013000D01*
G75*
G02*
X83940000Y-89837500I0J175500D01*
G01*
G37*
G36*
G01*
X83940000Y-88567500D02*
X83940000Y-88216500D01*
G75*
G02*
X84115500Y-88041000I175500J0D01*
G01*
X85816500Y-88041000D01*
G75*
G02*
X85992000Y-88216500I0J-175500D01*
G01*
X85992000Y-88567500D01*
G75*
G02*
X85816500Y-88743000I-175500J0D01*
G01*
X84115500Y-88743000D01*
G75*
G02*
X83940000Y-88567500I0J175500D01*
G01*
G37*
G36*
G01*
X83940000Y-87297500D02*
X83940000Y-86946500D01*
G75*
G02*
X84115500Y-86771000I175500J0D01*
G01*
X85816500Y-86771000D01*
G75*
G02*
X85992000Y-86946500I0J-175500D01*
G01*
X85992000Y-87297500D01*
G75*
G02*
X85816500Y-87473000I-175500J0D01*
G01*
X84115500Y-87473000D01*
G75*
G02*
X83940000Y-87297500I0J175500D01*
G01*
G37*
D23*
X78994000Y-71818500D03*
X78994000Y-69278500D03*
X78994000Y-66738500D03*
G36*
G01*
X82532000Y-84354250D02*
X82532000Y-85317750D01*
G75*
G02*
X82262750Y-85587000I-269250J0D01*
G01*
X81724250Y-85587000D01*
G75*
G02*
X81455000Y-85317750I0J269250D01*
G01*
X81455000Y-84354250D01*
G75*
G02*
X81724250Y-84085000I269250J0D01*
G01*
X82262750Y-84085000D01*
G75*
G02*
X82532000Y-84354250I0J-269250D01*
G01*
G37*
G36*
G01*
X84407000Y-84354250D02*
X84407000Y-85317750D01*
G75*
G02*
X84137750Y-85587000I-269250J0D01*
G01*
X83599250Y-85587000D01*
G75*
G02*
X83330000Y-85317750I0J269250D01*
G01*
X83330000Y-84354250D01*
G75*
G02*
X83599250Y-84085000I269250J0D01*
G01*
X84137750Y-84085000D01*
G75*
G02*
X84407000Y-84354250I0J-269250D01*
G01*
G37*
G36*
G01*
X81814250Y-95522000D02*
X82777750Y-95522000D01*
G75*
G02*
X83047000Y-95791250I0J-269250D01*
G01*
X83047000Y-96329750D01*
G75*
G02*
X82777750Y-96599000I-269250J0D01*
G01*
X81814250Y-96599000D01*
G75*
G02*
X81545000Y-96329750I0J269250D01*
G01*
X81545000Y-95791250D01*
G75*
G02*
X81814250Y-95522000I269250J0D01*
G01*
G37*
G36*
G01*
X81814250Y-93647000D02*
X82777750Y-93647000D01*
G75*
G02*
X83047000Y-93916250I0J-269250D01*
G01*
X83047000Y-94454750D01*
G75*
G02*
X82777750Y-94724000I-269250J0D01*
G01*
X81814250Y-94724000D01*
G75*
G02*
X81545000Y-94454750I0J269250D01*
G01*
X81545000Y-93916250D01*
G75*
G02*
X81814250Y-93647000I269250J0D01*
G01*
G37*
G36*
G01*
X81814250Y-91966000D02*
X82777750Y-91966000D01*
G75*
G02*
X83047000Y-92235250I0J-269250D01*
G01*
X83047000Y-92773750D01*
G75*
G02*
X82777750Y-93043000I-269250J0D01*
G01*
X81814250Y-93043000D01*
G75*
G02*
X81545000Y-92773750I0J269250D01*
G01*
X81545000Y-92235250D01*
G75*
G02*
X81814250Y-91966000I269250J0D01*
G01*
G37*
G36*
G01*
X81814250Y-90091000D02*
X82777750Y-90091000D01*
G75*
G02*
X83047000Y-90360250I0J-269250D01*
G01*
X83047000Y-90898750D01*
G75*
G02*
X82777750Y-91168000I-269250J0D01*
G01*
X81814250Y-91168000D01*
G75*
G02*
X81545000Y-90898750I0J269250D01*
G01*
X81545000Y-90360250D01*
G75*
G02*
X81814250Y-90091000I269250J0D01*
G01*
G37*
G36*
G01*
X81814250Y-88410000D02*
X82777750Y-88410000D01*
G75*
G02*
X83047000Y-88679250I0J-269250D01*
G01*
X83047000Y-89217750D01*
G75*
G02*
X82777750Y-89487000I-269250J0D01*
G01*
X81814250Y-89487000D01*
G75*
G02*
X81545000Y-89217750I0J269250D01*
G01*
X81545000Y-88679250D01*
G75*
G02*
X81814250Y-88410000I269250J0D01*
G01*
G37*
G36*
G01*
X81814250Y-86535000D02*
X82777750Y-86535000D01*
G75*
G02*
X83047000Y-86804250I0J-269250D01*
G01*
X83047000Y-87342750D01*
G75*
G02*
X82777750Y-87612000I-269250J0D01*
G01*
X81814250Y-87612000D01*
G75*
G02*
X81545000Y-87342750I0J269250D01*
G01*
X81545000Y-86804250D01*
G75*
G02*
X81814250Y-86535000I269250J0D01*
G01*
G37*
D12*
X101092000Y-93559000D03*
G36*
G01*
X100292000Y-90208000D02*
X101892000Y-90208000D01*
G75*
G02*
X101943000Y-90259000I0J-51000D01*
G01*
X101943000Y-91859000D01*
G75*
G02*
X101892000Y-91910000I-51000J0D01*
G01*
X100292000Y-91910000D01*
G75*
G02*
X100241000Y-91859000I0J51000D01*
G01*
X100241000Y-90259000D01*
G75*
G02*
X100292000Y-90208000I51000J0D01*
G01*
G37*
X106807000Y-93559000D03*
G36*
G01*
X106007000Y-90208000D02*
X107607000Y-90208000D01*
G75*
G02*
X107658000Y-90259000I0J-51000D01*
G01*
X107658000Y-91859000D01*
G75*
G02*
X107607000Y-91910000I-51000J0D01*
G01*
X106007000Y-91910000D01*
G75*
G02*
X105956000Y-91859000I0J51000D01*
G01*
X105956000Y-90259000D01*
G75*
G02*
X106007000Y-90208000I51000J0D01*
G01*
G37*
D24*
X90932000Y-65786000D03*
X83312000Y-73406000D03*
X90932000Y-68326000D03*
X83312000Y-70866000D03*
X90932000Y-70866000D03*
X83312000Y-68326000D03*
X90932000Y-73406000D03*
G36*
G01*
X82061000Y-66586000D02*
X82061000Y-64986000D01*
G75*
G02*
X82112000Y-64935000I51000J0D01*
G01*
X84512000Y-64935000D01*
G75*
G02*
X84563000Y-64986000I0J-51000D01*
G01*
X84563000Y-66586000D01*
G75*
G02*
X84512000Y-66637000I-51000J0D01*
G01*
X82112000Y-66637000D01*
G75*
G02*
X82061000Y-66586000I0J51000D01*
G01*
G37*
D11*
X97726500Y-65913000D03*
D12*
X97726500Y-73533000D03*
D27*
X103949500Y-75882500D03*
G36*
G01*
X104849500Y-79373500D02*
X103049500Y-79373500D01*
G75*
G02*
X102998500Y-79322500I0J51000D01*
G01*
X102998500Y-77522500D01*
G75*
G02*
X103049500Y-77471500I51000J0D01*
G01*
X104849500Y-77471500D01*
G75*
G02*
X104900500Y-77522500I0J-51000D01*
G01*
X104900500Y-79322500D01*
G75*
G02*
X104849500Y-79373500I-51000J0D01*
G01*
G37*
X99314000Y-75882500D03*
G36*
G01*
X100214000Y-79373500D02*
X98414000Y-79373500D01*
G75*
G02*
X98363000Y-79322500I0J51000D01*
G01*
X98363000Y-77522500D01*
G75*
G02*
X98414000Y-77471500I51000J0D01*
G01*
X100214000Y-77471500D01*
G75*
G02*
X100265000Y-77522500I0J-51000D01*
G01*
X100265000Y-79322500D01*
G75*
G02*
X100214000Y-79373500I-51000J0D01*
G01*
G37*
D23*
X79248000Y-60579000D03*
X76708000Y-60579000D03*
X74168000Y-60579000D03*
X108775500Y-61722000D03*
X106235500Y-61722000D03*
X103695500Y-61722000D03*
D11*
X95186500Y-62230000D03*
D12*
X87566500Y-62230000D03*
D11*
X94678500Y-65913000D03*
D12*
X94678500Y-73533000D03*
D11*
X86487000Y-84709000D03*
D12*
X94107000Y-84709000D03*
G36*
G01*
X95135000Y-56857000D02*
X96635000Y-56857000D01*
G75*
G02*
X96686000Y-56908000I0J-51000D01*
G01*
X96686000Y-58408000D01*
G75*
G02*
X96635000Y-58459000I-51000J0D01*
G01*
X95135000Y-58459000D01*
G75*
G02*
X95084000Y-58408000I0J51000D01*
G01*
X95084000Y-56908000D01*
G75*
G02*
X95135000Y-56857000I51000J0D01*
G01*
G37*
D22*
X90805000Y-57658000D03*
X93345000Y-57658000D03*
D15*
X87884000Y-56007000D03*
X85344000Y-56007000D03*
X82804000Y-56007000D03*
X80264000Y-56007000D03*
X77724000Y-56007000D03*
G36*
G01*
X76034000Y-56908000D02*
X74334000Y-56908000D01*
G75*
G02*
X74283000Y-56857000I0J51000D01*
G01*
X74283000Y-55157000D01*
G75*
G02*
X74334000Y-55106000I51000J0D01*
G01*
X76034000Y-55106000D01*
G75*
G02*
X76085000Y-55157000I0J-51000D01*
G01*
X76085000Y-56857000D01*
G75*
G02*
X76034000Y-56908000I-51000J0D01*
G01*
G37*
D27*
X94678500Y-75882500D03*
G36*
G01*
X95578500Y-79373500D02*
X93778500Y-79373500D01*
G75*
G02*
X93727500Y-79322500I0J51000D01*
G01*
X93727500Y-77522500D01*
G75*
G02*
X93778500Y-77471500I51000J0D01*
G01*
X95578500Y-77471500D01*
G75*
G02*
X95629500Y-77522500I0J-51000D01*
G01*
X95629500Y-79322500D01*
G75*
G02*
X95578500Y-79373500I-51000J0D01*
G01*
G37*
D17*
G36*
X99427137Y-57141117D02*
G01*
X99435649Y-57145660D01*
X99444845Y-57148450D01*
X99454400Y-57149391D01*
X99463955Y-57148450D01*
X99473148Y-57145661D01*
X99479068Y-57142496D01*
X99481067Y-57142562D01*
X99482010Y-57144325D01*
X99481280Y-57145806D01*
X99479491Y-57147275D01*
X99479333Y-57147392D01*
X99468057Y-57154926D01*
X99451011Y-57171974D01*
X99437616Y-57192021D01*
X99428390Y-57214295D01*
X99423686Y-57237945D01*
X99423686Y-57262051D01*
X99428391Y-57285702D01*
X99437617Y-57307975D01*
X99451012Y-57328023D01*
X99468093Y-57345102D01*
X99477926Y-57352388D01*
X99478722Y-57354223D01*
X99477531Y-57355830D01*
X99475626Y-57355659D01*
X98731666Y-56859686D01*
X98723194Y-56855159D01*
X98714008Y-56852360D01*
X98704454Y-56851410D01*
X98694893Y-56852342D01*
X98685698Y-56855120D01*
X98677133Y-56859686D01*
X97933174Y-57355659D01*
X97931179Y-57355788D01*
X97930069Y-57354124D01*
X97930798Y-57352448D01*
X97949602Y-57337049D01*
X97964917Y-57318427D01*
X97976307Y-57297173D01*
X97983330Y-57274110D01*
X97985717Y-57250121D01*
X97983379Y-57226118D01*
X97976406Y-57203046D01*
X97965059Y-57181765D01*
X97949818Y-57163153D01*
X97934571Y-57151821D01*
X97934434Y-57151504D01*
X97927471Y-57145777D01*
X97926768Y-57143904D01*
X97928038Y-57142359D01*
X97929686Y-57142469D01*
X97935607Y-57145642D01*
X97944792Y-57148440D01*
X97954346Y-57149390D01*
X97963907Y-57148458D01*
X97973102Y-57145680D01*
X97981667Y-57141114D01*
X98703291Y-56660031D01*
X98705509Y-56660031D01*
X99427137Y-57141117D01*
G37*
G36*
X106132737Y-57127317D02*
G01*
X106141249Y-57131860D01*
X106150445Y-57134650D01*
X106160000Y-57135591D01*
X106169555Y-57134650D01*
X106178748Y-57131861D01*
X106184668Y-57128696D01*
X106186667Y-57128762D01*
X106187610Y-57130525D01*
X106186880Y-57132006D01*
X106185091Y-57133475D01*
X106184933Y-57133592D01*
X106173657Y-57141126D01*
X106156611Y-57158174D01*
X106143216Y-57178221D01*
X106133990Y-57200495D01*
X106129286Y-57224145D01*
X106129286Y-57248251D01*
X106133991Y-57271902D01*
X106143217Y-57294175D01*
X106156612Y-57314223D01*
X106173693Y-57331302D01*
X106183526Y-57338588D01*
X106184322Y-57340423D01*
X106183131Y-57342030D01*
X106181226Y-57341859D01*
X105437266Y-56845886D01*
X105428794Y-56841359D01*
X105419608Y-56838560D01*
X105410054Y-56837610D01*
X105400493Y-56838542D01*
X105391298Y-56841320D01*
X105382733Y-56845886D01*
X104638774Y-57341859D01*
X104636779Y-57341988D01*
X104635669Y-57340324D01*
X104636398Y-57338648D01*
X104655202Y-57323249D01*
X104670517Y-57304627D01*
X104681907Y-57283373D01*
X104688930Y-57260310D01*
X104691317Y-57236321D01*
X104688979Y-57212318D01*
X104682006Y-57189246D01*
X104670659Y-57167965D01*
X104655418Y-57149353D01*
X104640171Y-57138021D01*
X104640034Y-57137704D01*
X104633071Y-57131977D01*
X104632368Y-57130104D01*
X104633638Y-57128559D01*
X104635286Y-57128669D01*
X104641207Y-57131842D01*
X104650392Y-57134640D01*
X104659946Y-57135590D01*
X104669507Y-57134658D01*
X104678702Y-57131880D01*
X104687267Y-57127314D01*
X105408891Y-56646231D01*
X105411109Y-56646231D01*
X106132737Y-57127317D01*
G37*
M02*
