G04 #@! TF.GenerationSoftware,KiCad,Pcbnew,(5.1.8)-1*
G04 #@! TF.CreationDate,2021-03-28T20:40:28+02:00*
G04 #@! TF.ProjectId,interface_MTM800E_V4,696e7465-7266-4616-9365-5f4d544d3830,V2*
G04 #@! TF.SameCoordinates,Original*
G04 #@! TF.FileFunction,Legend,Bot*
G04 #@! TF.FilePolarity,Positive*
%FSLAX46Y46*%
G04 Gerber Fmt 4.6, Leading zero omitted, Abs format (unit mm)*
G04 Created by KiCad (PCBNEW (5.1.8)-1) date 2021-03-28 20:40:28*
%MOMM*%
%LPD*%
G01*
G04 APERTURE LIST*
%ADD10C,0.120000*%
%ADD11C,0.150000*%
G04 APERTURE END LIST*
D10*
X86614000Y-89134000D02*
X90064000Y-89134000D01*
X86614000Y-89134000D02*
X84664000Y-89134000D01*
X86614000Y-94254000D02*
X88564000Y-94254000D01*
X86614000Y-94254000D02*
X84664000Y-94254000D01*
D11*
X87375904Y-87746380D02*
X87375904Y-88555904D01*
X87328285Y-88651142D01*
X87280666Y-88698761D01*
X87185428Y-88746380D01*
X86994952Y-88746380D01*
X86899714Y-88698761D01*
X86852095Y-88651142D01*
X86804476Y-88555904D01*
X86804476Y-87746380D01*
X85899714Y-87746380D02*
X86090190Y-87746380D01*
X86185428Y-87794000D01*
X86233047Y-87841619D01*
X86328285Y-87984476D01*
X86375904Y-88174952D01*
X86375904Y-88555904D01*
X86328285Y-88651142D01*
X86280666Y-88698761D01*
X86185428Y-88746380D01*
X85994952Y-88746380D01*
X85899714Y-88698761D01*
X85852095Y-88651142D01*
X85804476Y-88555904D01*
X85804476Y-88317809D01*
X85852095Y-88222571D01*
X85899714Y-88174952D01*
X85994952Y-88127333D01*
X86185428Y-88127333D01*
X86280666Y-88174952D01*
X86328285Y-88222571D01*
X86375904Y-88317809D01*
M02*
