G04 #@! TF.GenerationSoftware,KiCad,Pcbnew,(5.1.8)-1*
G04 #@! TF.CreationDate,2021-03-28T11:06:05+02:00*
G04 #@! TF.ProjectId,interface_MTM800E_V4,696e7465-7266-4616-9365-5f4d544d3830,V2*
G04 #@! TF.SameCoordinates,Original*
G04 #@! TF.FileFunction,Legend,Top*
G04 #@! TF.FilePolarity,Positive*
%FSLAX46Y46*%
G04 Gerber Fmt 4.6, Leading zero omitted, Abs format (unit mm)*
G04 Created by KiCad (PCBNEW (5.1.8)-1) date 2021-03-28 11:06:05*
%MOMM*%
%LPD*%
G01*
G04 APERTURE LIST*
%ADD10C,0.150000*%
%ADD11C,0.120000*%
%ADD12C,0.127000*%
%ADD13C,0.200000*%
G04 APERTURE END LIST*
D10*
X115348071Y-51887380D02*
X115348071Y-50887380D01*
X116252833Y-51220714D02*
X116252833Y-52030238D01*
X116205214Y-52125476D01*
X116157595Y-52173095D01*
X116062357Y-52220714D01*
X115919500Y-52220714D01*
X115824261Y-52173095D01*
X116252833Y-51839761D02*
X116157595Y-51887380D01*
X115967119Y-51887380D01*
X115871880Y-51839761D01*
X115824261Y-51792142D01*
X115776642Y-51696904D01*
X115776642Y-51411190D01*
X115824261Y-51315952D01*
X115871880Y-51268333D01*
X115967119Y-51220714D01*
X116157595Y-51220714D01*
X116252833Y-51268333D01*
X116729023Y-51220714D02*
X116729023Y-51887380D01*
X116729023Y-51315952D02*
X116776642Y-51268333D01*
X116871880Y-51220714D01*
X117014738Y-51220714D01*
X117109976Y-51268333D01*
X117157595Y-51363571D01*
X117157595Y-51887380D01*
X117633785Y-51887380D02*
X117633785Y-51220714D01*
X117633785Y-50887380D02*
X117586166Y-50935000D01*
X117633785Y-50982619D01*
X117681404Y-50935000D01*
X117633785Y-50887380D01*
X117633785Y-50982619D01*
X117967119Y-51220714D02*
X118348071Y-51220714D01*
X118109976Y-50887380D02*
X118109976Y-51744523D01*
X118157595Y-51839761D01*
X118252833Y-51887380D01*
X118348071Y-51887380D01*
X118681404Y-51887380D02*
X118681404Y-51220714D01*
X118681404Y-50887380D02*
X118633785Y-50935000D01*
X118681404Y-50982619D01*
X118729023Y-50935000D01*
X118681404Y-50887380D01*
X118681404Y-50982619D01*
X119300452Y-51887380D02*
X119205214Y-51839761D01*
X119157595Y-51792142D01*
X119109976Y-51696904D01*
X119109976Y-51411190D01*
X119157595Y-51315952D01*
X119205214Y-51268333D01*
X119300452Y-51220714D01*
X119443309Y-51220714D01*
X119538547Y-51268333D01*
X119586166Y-51315952D01*
X119633785Y-51411190D01*
X119633785Y-51696904D01*
X119586166Y-51792142D01*
X119538547Y-51839761D01*
X119443309Y-51887380D01*
X119300452Y-51887380D01*
X120062357Y-51220714D02*
X120062357Y-51887380D01*
X120062357Y-51315952D02*
X120109976Y-51268333D01*
X120205214Y-51220714D01*
X120348071Y-51220714D01*
X120443309Y-51268333D01*
X120490928Y-51363571D01*
X120490928Y-51887380D01*
X125825214Y-55760880D02*
X125253785Y-55760880D01*
X125539500Y-55760880D02*
X125539500Y-54760880D01*
X125444261Y-54903738D01*
X125349023Y-54998976D01*
X125253785Y-55046595D01*
X129127285Y-74287119D02*
X129174904Y-74239500D01*
X129270142Y-74191880D01*
X129508238Y-74191880D01*
X129603476Y-74239500D01*
X129651095Y-74287119D01*
X129698714Y-74382357D01*
X129698714Y-74477595D01*
X129651095Y-74620452D01*
X129079666Y-75191880D01*
X129698714Y-75191880D01*
X129000285Y-54856119D02*
X129047904Y-54808500D01*
X129143142Y-54760880D01*
X129381238Y-54760880D01*
X129476476Y-54808500D01*
X129524095Y-54856119D01*
X129571714Y-54951357D01*
X129571714Y-55046595D01*
X129524095Y-55189452D01*
X128952666Y-55760880D01*
X129571714Y-55760880D01*
X126396714Y-75191880D02*
X125825285Y-75191880D01*
X126111000Y-75191880D02*
X126111000Y-74191880D01*
X126015761Y-74334738D01*
X125920523Y-74429976D01*
X125825285Y-74477595D01*
X114728666Y-65365380D02*
X115347714Y-65365380D01*
X115014380Y-65746333D01*
X115157238Y-65746333D01*
X115252476Y-65793952D01*
X115300095Y-65841571D01*
X115347714Y-65936809D01*
X115347714Y-66174904D01*
X115300095Y-66270142D01*
X115252476Y-66317761D01*
X115157238Y-66365380D01*
X114871523Y-66365380D01*
X114776285Y-66317761D01*
X114728666Y-66270142D01*
X114776285Y-62920619D02*
X114823904Y-62873000D01*
X114919142Y-62825380D01*
X115157238Y-62825380D01*
X115252476Y-62873000D01*
X115300095Y-62920619D01*
X115347714Y-63015857D01*
X115347714Y-63111095D01*
X115300095Y-63253952D01*
X114728666Y-63825380D01*
X115347714Y-63825380D01*
X91392452Y-79509880D02*
X90821023Y-79509880D01*
X91106738Y-79509880D02*
X91106738Y-78509880D01*
X91011500Y-78652738D01*
X90916261Y-78747976D01*
X90821023Y-78795595D01*
X91773404Y-78605119D02*
X91821023Y-78557500D01*
X91916261Y-78509880D01*
X92154357Y-78509880D01*
X92249595Y-78557500D01*
X92297214Y-78605119D01*
X92344833Y-78700357D01*
X92344833Y-78795595D01*
X92297214Y-78938452D01*
X91725785Y-79509880D01*
X92344833Y-79509880D01*
X92630547Y-78509880D02*
X92963880Y-79509880D01*
X93297214Y-78509880D01*
X51776380Y-53712952D02*
X51776380Y-54189142D01*
X52252571Y-54236761D01*
X52204952Y-54189142D01*
X52157333Y-54093904D01*
X52157333Y-53855809D01*
X52204952Y-53760571D01*
X52252571Y-53712952D01*
X52347809Y-53665333D01*
X52585904Y-53665333D01*
X52681142Y-53712952D01*
X52728761Y-53760571D01*
X52776380Y-53855809D01*
X52776380Y-54093904D01*
X52728761Y-54189142D01*
X52681142Y-54236761D01*
X51776380Y-53379619D02*
X52776380Y-53046285D01*
X51776380Y-52712952D01*
X52109714Y-52379619D02*
X53109714Y-52379619D01*
X52157333Y-52379619D02*
X52109714Y-52284380D01*
X52109714Y-52093904D01*
X52157333Y-51998666D01*
X52204952Y-51951047D01*
X52300190Y-51903428D01*
X52585904Y-51903428D01*
X52681142Y-51951047D01*
X52728761Y-51998666D01*
X52776380Y-52093904D01*
X52776380Y-52284380D01*
X52728761Y-52379619D01*
X52776380Y-51474857D02*
X52109714Y-51474857D01*
X51776380Y-51474857D02*
X51824000Y-51522476D01*
X51871619Y-51474857D01*
X51824000Y-51427238D01*
X51776380Y-51474857D01*
X51871619Y-51474857D01*
X113911428Y-101925380D02*
X113911428Y-100925380D01*
X113911428Y-101401571D02*
X114482857Y-101401571D01*
X114482857Y-101925380D02*
X114482857Y-100925380D01*
X114959047Y-101925380D02*
X114959047Y-100925380D01*
X115340000Y-100925380D01*
X115435238Y-100973000D01*
X115482857Y-101020619D01*
X115530476Y-101115857D01*
X115530476Y-101258714D01*
X115482857Y-101353952D01*
X115435238Y-101401571D01*
X115340000Y-101449190D01*
X114959047Y-101449190D01*
X115959047Y-101544428D02*
X116720952Y-101544428D01*
X117197142Y-101925380D02*
X117197142Y-100925380D01*
X117530476Y-101639666D01*
X117863809Y-100925380D01*
X117863809Y-101925380D01*
X118197142Y-100925380D02*
X118768571Y-100925380D01*
X118482857Y-101925380D02*
X118482857Y-100925380D01*
X119101904Y-101925380D02*
X119101904Y-100925380D01*
X119435238Y-101639666D01*
X119768571Y-100925380D01*
X119768571Y-101925380D01*
X77160595Y-103131880D02*
X77160595Y-102131880D01*
X77160595Y-102608071D02*
X77732023Y-102608071D01*
X77732023Y-103131880D02*
X77732023Y-102131880D01*
X78208214Y-103131880D02*
X78208214Y-102131880D01*
X78589166Y-102131880D01*
X78684404Y-102179500D01*
X78732023Y-102227119D01*
X78779642Y-102322357D01*
X78779642Y-102465214D01*
X78732023Y-102560452D01*
X78684404Y-102608071D01*
X78589166Y-102655690D01*
X78208214Y-102655690D01*
X79732023Y-103131880D02*
X79160595Y-103131880D01*
X79446309Y-103131880D02*
X79446309Y-102131880D01*
X79351071Y-102274738D01*
X79255833Y-102369976D01*
X79160595Y-102417595D01*
X119411785Y-94035619D02*
X119459404Y-93988000D01*
X119554642Y-93940380D01*
X119792738Y-93940380D01*
X119887976Y-93988000D01*
X119935595Y-94035619D01*
X119983214Y-94130857D01*
X119983214Y-94226095D01*
X119935595Y-94368952D01*
X119364166Y-94940380D01*
X119983214Y-94940380D01*
X122713714Y-94940380D02*
X122142285Y-94940380D01*
X122428000Y-94940380D02*
X122428000Y-93940380D01*
X122332761Y-94083238D01*
X122237523Y-94178476D01*
X122142285Y-94226095D01*
X108267595Y-94607119D02*
X108315214Y-94559500D01*
X108410452Y-94511880D01*
X108648547Y-94511880D01*
X108743785Y-94559500D01*
X108791404Y-94607119D01*
X108839023Y-94702357D01*
X108839023Y-94797595D01*
X108791404Y-94940452D01*
X108219976Y-95511880D01*
X108839023Y-95511880D01*
X109458071Y-94511880D02*
X109553309Y-94511880D01*
X109648547Y-94559500D01*
X109696166Y-94607119D01*
X109743785Y-94702357D01*
X109791404Y-94892833D01*
X109791404Y-95130928D01*
X109743785Y-95321404D01*
X109696166Y-95416642D01*
X109648547Y-95464261D01*
X109553309Y-95511880D01*
X109458071Y-95511880D01*
X109362833Y-95464261D01*
X109315214Y-95416642D01*
X109267595Y-95321404D01*
X109219976Y-95130928D01*
X109219976Y-94892833D01*
X109267595Y-94702357D01*
X109315214Y-94607119D01*
X109362833Y-94559500D01*
X109458071Y-94511880D01*
X73310714Y-57538880D02*
X72739285Y-57538880D01*
X73025000Y-57538880D02*
X73025000Y-56538880D01*
X72929761Y-56681738D01*
X72834523Y-56776976D01*
X72739285Y-56824595D01*
X52603428Y-49041095D02*
X52641523Y-49003000D01*
X52717714Y-48964904D01*
X52908190Y-48964904D01*
X52984380Y-49003000D01*
X53022476Y-49041095D01*
X53060571Y-49117285D01*
X53060571Y-49193476D01*
X53022476Y-49307761D01*
X52565333Y-49764904D01*
X53060571Y-49764904D01*
X54330571Y-54590904D02*
X53873428Y-54590904D01*
X54102000Y-54590904D02*
X54102000Y-53790904D01*
X54025809Y-53905190D01*
X53949619Y-53981380D01*
X53873428Y-54019476D01*
X100190380Y-55314809D02*
X100304666Y-55352904D01*
X100495142Y-55352904D01*
X100571333Y-55314809D01*
X100609428Y-55276714D01*
X100647523Y-55200523D01*
X100647523Y-55124333D01*
X100609428Y-55048142D01*
X100571333Y-55010047D01*
X100495142Y-54971952D01*
X100342761Y-54933857D01*
X100266571Y-54895761D01*
X100228476Y-54857666D01*
X100190380Y-54781476D01*
X100190380Y-54705285D01*
X100228476Y-54629095D01*
X100266571Y-54591000D01*
X100342761Y-54552904D01*
X100533238Y-54552904D01*
X100647523Y-54591000D01*
X101523714Y-55429095D02*
X101447523Y-55391000D01*
X101371333Y-55314809D01*
X101257047Y-55200523D01*
X101180857Y-55162428D01*
X101104666Y-55162428D01*
X101142761Y-55352904D02*
X101066571Y-55314809D01*
X100990380Y-55238619D01*
X100952285Y-55086238D01*
X100952285Y-54819571D01*
X100990380Y-54667190D01*
X101066571Y-54591000D01*
X101142761Y-54552904D01*
X101295142Y-54552904D01*
X101371333Y-54591000D01*
X101447523Y-54667190D01*
X101485619Y-54819571D01*
X101485619Y-55086238D01*
X101447523Y-55238619D01*
X101371333Y-55314809D01*
X101295142Y-55352904D01*
X101142761Y-55352904D01*
X107130952Y-55352904D02*
X107130952Y-54552904D01*
X107435714Y-54552904D01*
X107511904Y-54591000D01*
X107550000Y-54629095D01*
X107588095Y-54705285D01*
X107588095Y-54819571D01*
X107550000Y-54895761D01*
X107511904Y-54933857D01*
X107435714Y-54971952D01*
X107130952Y-54971952D01*
X107816666Y-54552904D02*
X108273809Y-54552904D01*
X108045238Y-55352904D02*
X108045238Y-54552904D01*
X108426190Y-54552904D02*
X108883333Y-54552904D01*
X108654761Y-55352904D02*
X108654761Y-54552904D01*
X115220714Y-61221880D02*
X114649285Y-61221880D01*
X114935000Y-61221880D02*
X114935000Y-60221880D01*
X114839761Y-60364738D01*
X114744523Y-60459976D01*
X114649285Y-60507595D01*
X116395523Y-71635880D02*
X115824095Y-71635880D01*
X116109809Y-71635880D02*
X116109809Y-70635880D01*
X116014571Y-70778738D01*
X115919333Y-70873976D01*
X115824095Y-70921595D01*
X116728857Y-70635880D02*
X117395523Y-70635880D01*
X116966952Y-71635880D01*
X105362476Y-79525761D02*
X105505333Y-79573380D01*
X105743428Y-79573380D01*
X105838666Y-79525761D01*
X105886285Y-79478142D01*
X105933904Y-79382904D01*
X105933904Y-79287666D01*
X105886285Y-79192428D01*
X105838666Y-79144809D01*
X105743428Y-79097190D01*
X105552952Y-79049571D01*
X105457714Y-79001952D01*
X105410095Y-78954333D01*
X105362476Y-78859095D01*
X105362476Y-78763857D01*
X105410095Y-78668619D01*
X105457714Y-78621000D01*
X105552952Y-78573380D01*
X105791047Y-78573380D01*
X105933904Y-78621000D01*
X107029142Y-79668619D02*
X106933904Y-79621000D01*
X106838666Y-79525761D01*
X106695809Y-79382904D01*
X106600571Y-79335285D01*
X106505333Y-79335285D01*
X106552952Y-79573380D02*
X106457714Y-79525761D01*
X106362476Y-79430523D01*
X106314857Y-79240047D01*
X106314857Y-78906714D01*
X106362476Y-78716238D01*
X106457714Y-78621000D01*
X106552952Y-78573380D01*
X106743428Y-78573380D01*
X106838666Y-78621000D01*
X106933904Y-78716238D01*
X106981523Y-78906714D01*
X106981523Y-79240047D01*
X106933904Y-79430523D01*
X106838666Y-79525761D01*
X106743428Y-79573380D01*
X106552952Y-79573380D01*
X98290190Y-80208380D02*
X98290190Y-79208380D01*
X98671142Y-79208380D01*
X98766380Y-79256000D01*
X98814000Y-79303619D01*
X98861619Y-79398857D01*
X98861619Y-79541714D01*
X98814000Y-79636952D01*
X98766380Y-79684571D01*
X98671142Y-79732190D01*
X98290190Y-79732190D01*
X99147333Y-79208380D02*
X99718761Y-79208380D01*
X99433047Y-80208380D02*
X99433047Y-79208380D01*
X99909238Y-79208380D02*
X100480666Y-79208380D01*
X100194952Y-80208380D02*
X100194952Y-79208380D01*
X116617714Y-92019380D02*
X116046285Y-92019380D01*
X116332000Y-92019380D02*
X116332000Y-91019380D01*
X116236761Y-91162238D01*
X116141523Y-91257476D01*
X116046285Y-91305095D01*
X116268523Y-94559380D02*
X115697095Y-94559380D01*
X115982809Y-94559380D02*
X115982809Y-93559380D01*
X115887571Y-93702238D01*
X115792333Y-93797476D01*
X115697095Y-93845095D01*
X116744714Y-94559380D02*
X116935190Y-94559380D01*
X117030428Y-94511761D01*
X117078047Y-94464142D01*
X117173285Y-94321285D01*
X117220904Y-94130809D01*
X117220904Y-93749857D01*
X117173285Y-93654619D01*
X117125666Y-93607000D01*
X117030428Y-93559380D01*
X116839952Y-93559380D01*
X116744714Y-93607000D01*
X116697095Y-93654619D01*
X116649476Y-93749857D01*
X116649476Y-93987952D01*
X116697095Y-94083190D01*
X116744714Y-94130809D01*
X116839952Y-94178428D01*
X117030428Y-94178428D01*
X117125666Y-94130809D01*
X117173285Y-94083190D01*
X117220904Y-93987952D01*
X122555095Y-59110619D02*
X122602714Y-59063000D01*
X122697952Y-59015380D01*
X122936047Y-59015380D01*
X123031285Y-59063000D01*
X123078904Y-59110619D01*
X123126523Y-59205857D01*
X123126523Y-59301095D01*
X123078904Y-59443952D01*
X122507476Y-60015380D01*
X123126523Y-60015380D01*
X124031285Y-59015380D02*
X123555095Y-59015380D01*
X123507476Y-59491571D01*
X123555095Y-59443952D01*
X123650333Y-59396333D01*
X123888428Y-59396333D01*
X123983666Y-59443952D01*
X124031285Y-59491571D01*
X124078904Y-59586809D01*
X124078904Y-59824904D01*
X124031285Y-59920142D01*
X123983666Y-59967761D01*
X123888428Y-60015380D01*
X123650333Y-60015380D01*
X123555095Y-59967761D01*
X123507476Y-59920142D01*
X118054380Y-80970047D02*
X117054380Y-80970047D01*
X117768666Y-80636714D01*
X117054380Y-80303380D01*
X118054380Y-80303380D01*
X117054380Y-79970047D02*
X117054380Y-79398619D01*
X118054380Y-79684333D02*
X117054380Y-79684333D01*
X118054380Y-79065285D02*
X117054380Y-79065285D01*
X117768666Y-78731952D01*
X117054380Y-78398619D01*
X118054380Y-78398619D01*
X117054380Y-77446238D02*
X117054380Y-77922428D01*
X117530571Y-77970047D01*
X117482952Y-77922428D01*
X117435333Y-77827190D01*
X117435333Y-77589095D01*
X117482952Y-77493857D01*
X117530571Y-77446238D01*
X117625809Y-77398619D01*
X117863904Y-77398619D01*
X117959142Y-77446238D01*
X118006761Y-77493857D01*
X118054380Y-77589095D01*
X118054380Y-77827190D01*
X118006761Y-77922428D01*
X117959142Y-77970047D01*
X118054380Y-77065285D02*
X117387714Y-76541476D01*
X117387714Y-77065285D02*
X118054380Y-76541476D01*
X117054380Y-75970047D02*
X117054380Y-75874809D01*
X117102000Y-75779571D01*
X117149619Y-75731952D01*
X117244857Y-75684333D01*
X117435333Y-75636714D01*
X117673428Y-75636714D01*
X117863904Y-75684333D01*
X117959142Y-75731952D01*
X118006761Y-75779571D01*
X118054380Y-75874809D01*
X118054380Y-75970047D01*
X118006761Y-76065285D01*
X117959142Y-76112904D01*
X117863904Y-76160523D01*
X117673428Y-76208142D01*
X117435333Y-76208142D01*
X117244857Y-76160523D01*
X117149619Y-76112904D01*
X117102000Y-76065285D01*
X117054380Y-75970047D01*
X117054380Y-75017666D02*
X117054380Y-74922428D01*
X117102000Y-74827190D01*
X117149619Y-74779571D01*
X117244857Y-74731952D01*
X117435333Y-74684333D01*
X117673428Y-74684333D01*
X117863904Y-74731952D01*
X117959142Y-74779571D01*
X118006761Y-74827190D01*
X118054380Y-74922428D01*
X118054380Y-75017666D01*
X118006761Y-75112904D01*
X117959142Y-75160523D01*
X117863904Y-75208142D01*
X117673428Y-75255761D01*
X117435333Y-75255761D01*
X117244857Y-75208142D01*
X117149619Y-75160523D01*
X117102000Y-75112904D01*
X117054380Y-75017666D01*
X54666857Y-98245119D02*
X55295428Y-98245119D01*
X54981142Y-99345119D02*
X54981142Y-98245119D01*
X56081142Y-99292738D02*
X55976380Y-99345119D01*
X55766857Y-99345119D01*
X55662095Y-99292738D01*
X55609714Y-99187976D01*
X55609714Y-98768928D01*
X55662095Y-98664166D01*
X55766857Y-98611785D01*
X55976380Y-98611785D01*
X56081142Y-98664166D01*
X56133523Y-98768928D01*
X56133523Y-98873690D01*
X55609714Y-98978452D01*
X56447809Y-98611785D02*
X56866857Y-98611785D01*
X56604952Y-98245119D02*
X56604952Y-99187976D01*
X56657333Y-99292738D01*
X56762095Y-99345119D01*
X56866857Y-99345119D01*
X57233523Y-99345119D02*
X57233523Y-98611785D01*
X57233523Y-98821309D02*
X57285904Y-98716547D01*
X57338285Y-98664166D01*
X57443047Y-98611785D01*
X57547809Y-98611785D01*
X58385904Y-99345119D02*
X58385904Y-98768928D01*
X58333523Y-98664166D01*
X58228761Y-98611785D01*
X58019238Y-98611785D01*
X57914476Y-98664166D01*
X58385904Y-99292738D02*
X58281142Y-99345119D01*
X58019238Y-99345119D01*
X57914476Y-99292738D01*
X57862095Y-99187976D01*
X57862095Y-99083214D01*
X57914476Y-98978452D01*
X58019238Y-98926071D01*
X58281142Y-98926071D01*
X58385904Y-98873690D01*
X59433523Y-99345119D02*
X58909714Y-99345119D01*
X58909714Y-98245119D01*
X59800190Y-99345119D02*
X59800190Y-98611785D01*
X59800190Y-98245119D02*
X59747809Y-98297500D01*
X59800190Y-98349880D01*
X59852571Y-98297500D01*
X59800190Y-98245119D01*
X59800190Y-98349880D01*
X60324000Y-98611785D02*
X60324000Y-99345119D01*
X60324000Y-98716547D02*
X60376380Y-98664166D01*
X60481142Y-98611785D01*
X60638285Y-98611785D01*
X60743047Y-98664166D01*
X60795428Y-98768928D01*
X60795428Y-99345119D01*
X61319238Y-99345119D02*
X61319238Y-98245119D01*
X61424000Y-98926071D02*
X61738285Y-99345119D01*
X61738285Y-98611785D02*
X61319238Y-99030833D01*
X52231142Y-101092738D02*
X52388285Y-101145119D01*
X52650190Y-101145119D01*
X52754952Y-101092738D01*
X52807333Y-101040357D01*
X52859714Y-100935595D01*
X52859714Y-100830833D01*
X52807333Y-100726071D01*
X52754952Y-100673690D01*
X52650190Y-100621309D01*
X52440666Y-100568928D01*
X52335904Y-100516547D01*
X52283523Y-100464166D01*
X52231142Y-100359404D01*
X52231142Y-100254642D01*
X52283523Y-100149880D01*
X52335904Y-100097500D01*
X52440666Y-100045119D01*
X52702571Y-100045119D01*
X52859714Y-100097500D01*
X53226380Y-100411785D02*
X53488285Y-101145119D01*
X53750190Y-100411785D01*
X54064476Y-101145119D02*
X54640666Y-100411785D01*
X54064476Y-100411785D02*
X54640666Y-101145119D01*
X55216857Y-101145119D02*
X55112095Y-101092738D01*
X55059714Y-100987976D01*
X55059714Y-100045119D01*
X55635904Y-101145119D02*
X55635904Y-100411785D01*
X55635904Y-100045119D02*
X55583523Y-100097500D01*
X55635904Y-100149880D01*
X55688285Y-100097500D01*
X55635904Y-100045119D01*
X55635904Y-100149880D01*
X56159714Y-100411785D02*
X56159714Y-101145119D01*
X56159714Y-100516547D02*
X56212095Y-100464166D01*
X56316857Y-100411785D01*
X56474000Y-100411785D01*
X56578761Y-100464166D01*
X56631142Y-100568928D01*
X56631142Y-101145119D01*
X57154952Y-101145119D02*
X57154952Y-100045119D01*
X57259714Y-100726071D02*
X57574000Y-101145119D01*
X57574000Y-100411785D02*
X57154952Y-100830833D01*
X58726380Y-100045119D02*
X59093047Y-101145119D01*
X59459714Y-100045119D01*
X60297809Y-100411785D02*
X60297809Y-101145119D01*
X60035904Y-99992738D02*
X59774000Y-100778452D01*
X60454952Y-100778452D01*
X60874000Y-100726071D02*
X61712095Y-100726071D01*
X62235904Y-101145119D02*
X62235904Y-100045119D01*
X62602571Y-100830833D01*
X62969238Y-100045119D01*
X62969238Y-101145119D01*
X63335904Y-100045119D02*
X63964476Y-100045119D01*
X63650190Y-101145119D02*
X63650190Y-100045119D01*
X64331142Y-101145119D02*
X64331142Y-100045119D01*
X64697809Y-100830833D01*
X65064476Y-100045119D01*
X65064476Y-101145119D01*
X52414476Y-102368928D02*
X52047809Y-102368928D01*
X52047809Y-102945119D02*
X52047809Y-101845119D01*
X52571619Y-101845119D01*
X53566857Y-102945119D02*
X52938285Y-102945119D01*
X53252571Y-102945119D02*
X53252571Y-101845119D01*
X53147809Y-102002261D01*
X53043047Y-102107023D01*
X52938285Y-102159404D01*
X54038285Y-102945119D02*
X54038285Y-101845119D01*
X54457333Y-101845119D02*
X54719238Y-102945119D01*
X54928761Y-102159404D01*
X55138285Y-102945119D01*
X55400190Y-101845119D01*
X56552571Y-103049880D02*
X56447809Y-102997500D01*
X56343047Y-102892738D01*
X56185904Y-102735595D01*
X56081142Y-102683214D01*
X55976380Y-102683214D01*
X56028761Y-102945119D02*
X55924000Y-102892738D01*
X55819238Y-102787976D01*
X55766857Y-102578452D01*
X55766857Y-102211785D01*
X55819238Y-102002261D01*
X55924000Y-101897500D01*
X56028761Y-101845119D01*
X56238285Y-101845119D01*
X56343047Y-101897500D01*
X56447809Y-102002261D01*
X56500190Y-102211785D01*
X56500190Y-102578452D01*
X56447809Y-102787976D01*
X56343047Y-102892738D01*
X56238285Y-102945119D01*
X56028761Y-102945119D01*
X57809714Y-102945119D02*
X57809714Y-101845119D01*
X58176380Y-102630833D01*
X58543047Y-101845119D01*
X58543047Y-102945119D01*
X59538285Y-102945119D02*
X59538285Y-102368928D01*
X59485904Y-102264166D01*
X59381142Y-102211785D01*
X59171619Y-102211785D01*
X59066857Y-102264166D01*
X59538285Y-102892738D02*
X59433523Y-102945119D01*
X59171619Y-102945119D01*
X59066857Y-102892738D01*
X59014476Y-102787976D01*
X59014476Y-102683214D01*
X59066857Y-102578452D01*
X59171619Y-102526071D01*
X59433523Y-102526071D01*
X59538285Y-102473690D01*
X60062095Y-102945119D02*
X60062095Y-102211785D01*
X60062095Y-102421309D02*
X60114476Y-102316547D01*
X60166857Y-102264166D01*
X60271619Y-102211785D01*
X60376380Y-102211785D01*
X60690666Y-102892738D02*
X60795428Y-102945119D01*
X61004952Y-102945119D01*
X61109714Y-102892738D01*
X61162095Y-102787976D01*
X61162095Y-102735595D01*
X61109714Y-102630833D01*
X61004952Y-102578452D01*
X60847809Y-102578452D01*
X60743047Y-102526071D01*
X60690666Y-102421309D01*
X60690666Y-102368928D01*
X60743047Y-102264166D01*
X60847809Y-102211785D01*
X61004952Y-102211785D01*
X61109714Y-102264166D01*
X62419238Y-101949880D02*
X62471619Y-101897500D01*
X62576380Y-101845119D01*
X62838285Y-101845119D01*
X62943047Y-101897500D01*
X62995428Y-101949880D01*
X63047809Y-102054642D01*
X63047809Y-102159404D01*
X62995428Y-102316547D01*
X62366857Y-102945119D01*
X63047809Y-102945119D01*
X63728761Y-101845119D02*
X63833523Y-101845119D01*
X63938285Y-101897500D01*
X63990666Y-101949880D01*
X64043047Y-102054642D01*
X64095428Y-102264166D01*
X64095428Y-102526071D01*
X64043047Y-102735595D01*
X63990666Y-102840357D01*
X63938285Y-102892738D01*
X63833523Y-102945119D01*
X63728761Y-102945119D01*
X63624000Y-102892738D01*
X63571619Y-102840357D01*
X63519238Y-102735595D01*
X63466857Y-102526071D01*
X63466857Y-102264166D01*
X63519238Y-102054642D01*
X63571619Y-101949880D01*
X63624000Y-101897500D01*
X63728761Y-101845119D01*
X64514476Y-101949880D02*
X64566857Y-101897500D01*
X64671619Y-101845119D01*
X64933523Y-101845119D01*
X65038285Y-101897500D01*
X65090666Y-101949880D01*
X65143047Y-102054642D01*
X65143047Y-102159404D01*
X65090666Y-102316547D01*
X64462095Y-102945119D01*
X65143047Y-102945119D01*
X66190666Y-102945119D02*
X65562095Y-102945119D01*
X65876380Y-102945119D02*
X65876380Y-101845119D01*
X65771619Y-102002261D01*
X65666857Y-102107023D01*
X65562095Y-102159404D01*
X109545380Y-82573333D02*
X108545380Y-82573333D01*
X109259666Y-82240000D01*
X108545380Y-81906666D01*
X109545380Y-81906666D01*
X108545380Y-81573333D02*
X108545380Y-81001904D01*
X109545380Y-81287619D02*
X108545380Y-81287619D01*
X109545380Y-80668571D02*
X108545380Y-80668571D01*
X109259666Y-80335238D01*
X108545380Y-80001904D01*
X109545380Y-80001904D01*
X108973952Y-79382857D02*
X108926333Y-79478095D01*
X108878714Y-79525714D01*
X108783476Y-79573333D01*
X108735857Y-79573333D01*
X108640619Y-79525714D01*
X108593000Y-79478095D01*
X108545380Y-79382857D01*
X108545380Y-79192380D01*
X108593000Y-79097142D01*
X108640619Y-79049523D01*
X108735857Y-79001904D01*
X108783476Y-79001904D01*
X108878714Y-79049523D01*
X108926333Y-79097142D01*
X108973952Y-79192380D01*
X108973952Y-79382857D01*
X109021571Y-79478095D01*
X109069190Y-79525714D01*
X109164428Y-79573333D01*
X109354904Y-79573333D01*
X109450142Y-79525714D01*
X109497761Y-79478095D01*
X109545380Y-79382857D01*
X109545380Y-79192380D01*
X109497761Y-79097142D01*
X109450142Y-79049523D01*
X109354904Y-79001904D01*
X109164428Y-79001904D01*
X109069190Y-79049523D01*
X109021571Y-79097142D01*
X108973952Y-79192380D01*
X108545380Y-78382857D02*
X108545380Y-78287619D01*
X108593000Y-78192380D01*
X108640619Y-78144761D01*
X108735857Y-78097142D01*
X108926333Y-78049523D01*
X109164428Y-78049523D01*
X109354904Y-78097142D01*
X109450142Y-78144761D01*
X109497761Y-78192380D01*
X109545380Y-78287619D01*
X109545380Y-78382857D01*
X109497761Y-78478095D01*
X109450142Y-78525714D01*
X109354904Y-78573333D01*
X109164428Y-78620952D01*
X108926333Y-78620952D01*
X108735857Y-78573333D01*
X108640619Y-78525714D01*
X108593000Y-78478095D01*
X108545380Y-78382857D01*
X108545380Y-77430476D02*
X108545380Y-77335238D01*
X108593000Y-77240000D01*
X108640619Y-77192380D01*
X108735857Y-77144761D01*
X108926333Y-77097142D01*
X109164428Y-77097142D01*
X109354904Y-77144761D01*
X109450142Y-77192380D01*
X109497761Y-77240000D01*
X109545380Y-77335238D01*
X109545380Y-77430476D01*
X109497761Y-77525714D01*
X109450142Y-77573333D01*
X109354904Y-77620952D01*
X109164428Y-77668571D01*
X108926333Y-77668571D01*
X108735857Y-77620952D01*
X108640619Y-77573333D01*
X108593000Y-77525714D01*
X108545380Y-77430476D01*
X109926333Y-76382857D02*
X109878714Y-76430476D01*
X109735857Y-76525714D01*
X109640619Y-76573333D01*
X109497761Y-76620952D01*
X109259666Y-76668571D01*
X109069190Y-76668571D01*
X108831095Y-76620952D01*
X108688238Y-76573333D01*
X108593000Y-76525714D01*
X108450142Y-76430476D01*
X108402523Y-76382857D01*
X109021571Y-76001904D02*
X109021571Y-75668571D01*
X109545380Y-75525714D02*
X109545380Y-76001904D01*
X108545380Y-76001904D01*
X108545380Y-75525714D01*
X109926333Y-75192380D02*
X109878714Y-75144761D01*
X109735857Y-75049523D01*
X109640619Y-75001904D01*
X109497761Y-74954285D01*
X109259666Y-74906666D01*
X109069190Y-74906666D01*
X108831095Y-74954285D01*
X108688238Y-75001904D01*
X108593000Y-75049523D01*
X108450142Y-75144761D01*
X108402523Y-75192380D01*
D11*
X94202000Y-103097000D02*
X94202000Y-102767000D01*
X87662000Y-103097000D02*
X94202000Y-103097000D01*
X87662000Y-102767000D02*
X87662000Y-103097000D01*
X94202000Y-100357000D02*
X94202000Y-100687000D01*
X87662000Y-100357000D02*
X94202000Y-100357000D01*
X87662000Y-100687000D02*
X87662000Y-100357000D01*
X94201500Y-93789500D02*
X94821500Y-93789500D01*
X94201500Y-93789500D02*
G75*
G03*
X94201500Y-93789500I-920000J0D01*
G01*
X94202000Y-100049000D02*
X94202000Y-99719000D01*
X87662000Y-100049000D02*
X94202000Y-100049000D01*
X87662000Y-99719000D02*
X87662000Y-100049000D01*
X94202000Y-97309000D02*
X94202000Y-97639000D01*
X87662000Y-97309000D02*
X94202000Y-97309000D01*
X87662000Y-97639000D02*
X87662000Y-97309000D01*
X112081000Y-52892000D02*
X114741000Y-52892000D01*
X112081000Y-52832000D02*
X112081000Y-52892000D01*
X114741000Y-52832000D02*
X114741000Y-52892000D01*
X112081000Y-52832000D02*
X114741000Y-52832000D01*
X112081000Y-51562000D02*
X112081000Y-50232000D01*
X112081000Y-50232000D02*
X113411000Y-50232000D01*
X124908000Y-75378000D02*
X126238000Y-75378000D01*
X124908000Y-76708000D02*
X124908000Y-75378000D01*
X127508000Y-75378000D02*
X130108000Y-75378000D01*
X127508000Y-77978000D02*
X127508000Y-75378000D01*
X124908000Y-77978000D02*
X127508000Y-77978000D01*
X130108000Y-75378000D02*
X130108000Y-93278000D01*
X124908000Y-77978000D02*
X124908000Y-93278000D01*
X124908000Y-93278000D02*
X130108000Y-93278000D01*
X124908000Y-56074000D02*
X126238000Y-56074000D01*
X124908000Y-57404000D02*
X124908000Y-56074000D01*
X127508000Y-56074000D02*
X130108000Y-56074000D01*
X127508000Y-58674000D02*
X127508000Y-56074000D01*
X124908000Y-58674000D02*
X127508000Y-58674000D01*
X130108000Y-56074000D02*
X130108000Y-73974000D01*
X124908000Y-58674000D02*
X124908000Y-73974000D01*
X124908000Y-73974000D02*
X130108000Y-73974000D01*
X115383000Y-97984000D02*
X116713000Y-97984000D01*
X115383000Y-99314000D02*
X115383000Y-97984000D01*
X115383000Y-100584000D02*
X118043000Y-100584000D01*
X118043000Y-100584000D02*
X118043000Y-100644000D01*
X115383000Y-100584000D02*
X115383000Y-100644000D01*
X115383000Y-100644000D02*
X118043000Y-100644000D01*
X110085000Y-57124600D02*
G75*
G03*
X110085000Y-57124600I-1500000J0D01*
G01*
X72992500Y-55562500D02*
G75*
G03*
X72992500Y-55562500I-920000J0D01*
G01*
X71152500Y-55562500D02*
X70532500Y-55562500D01*
X70128500Y-63516000D02*
G75*
G03*
X70128500Y-63516000I-2120000J0D01*
G01*
X65928500Y-63516000D02*
X70088500Y-63516000D01*
X65928500Y-63476000D02*
X70088500Y-63476000D01*
X65929500Y-63436000D02*
X70087500Y-63436000D01*
X65931500Y-63396000D02*
X70085500Y-63396000D01*
X65934500Y-63356000D02*
X70082500Y-63356000D01*
X65937500Y-63316000D02*
X67168500Y-63316000D01*
X68848500Y-63316000D02*
X70079500Y-63316000D01*
X65941500Y-63276000D02*
X67168500Y-63276000D01*
X68848500Y-63276000D02*
X70075500Y-63276000D01*
X65946500Y-63236000D02*
X67168500Y-63236000D01*
X68848500Y-63236000D02*
X70070500Y-63236000D01*
X65952500Y-63196000D02*
X67168500Y-63196000D01*
X68848500Y-63196000D02*
X70064500Y-63196000D01*
X65958500Y-63156000D02*
X67168500Y-63156000D01*
X68848500Y-63156000D02*
X70058500Y-63156000D01*
X65966500Y-63116000D02*
X67168500Y-63116000D01*
X68848500Y-63116000D02*
X70050500Y-63116000D01*
X65974500Y-63076000D02*
X67168500Y-63076000D01*
X68848500Y-63076000D02*
X70042500Y-63076000D01*
X65983500Y-63036000D02*
X67168500Y-63036000D01*
X68848500Y-63036000D02*
X70033500Y-63036000D01*
X65992500Y-62996000D02*
X67168500Y-62996000D01*
X68848500Y-62996000D02*
X70024500Y-62996000D01*
X66003500Y-62956000D02*
X67168500Y-62956000D01*
X68848500Y-62956000D02*
X70013500Y-62956000D01*
X66014500Y-62916000D02*
X67168500Y-62916000D01*
X68848500Y-62916000D02*
X70002500Y-62916000D01*
X66026500Y-62876000D02*
X67168500Y-62876000D01*
X68848500Y-62876000D02*
X69990500Y-62876000D01*
X66040500Y-62836000D02*
X67168500Y-62836000D01*
X68848500Y-62836000D02*
X69976500Y-62836000D01*
X66054500Y-62795000D02*
X67168500Y-62795000D01*
X68848500Y-62795000D02*
X69962500Y-62795000D01*
X66068500Y-62755000D02*
X67168500Y-62755000D01*
X68848500Y-62755000D02*
X69948500Y-62755000D01*
X66084500Y-62715000D02*
X67168500Y-62715000D01*
X68848500Y-62715000D02*
X69932500Y-62715000D01*
X66101500Y-62675000D02*
X67168500Y-62675000D01*
X68848500Y-62675000D02*
X69915500Y-62675000D01*
X66119500Y-62635000D02*
X67168500Y-62635000D01*
X68848500Y-62635000D02*
X69897500Y-62635000D01*
X66138500Y-62595000D02*
X67168500Y-62595000D01*
X68848500Y-62595000D02*
X69878500Y-62595000D01*
X66157500Y-62555000D02*
X67168500Y-62555000D01*
X68848500Y-62555000D02*
X69859500Y-62555000D01*
X66178500Y-62515000D02*
X67168500Y-62515000D01*
X68848500Y-62515000D02*
X69838500Y-62515000D01*
X66200500Y-62475000D02*
X67168500Y-62475000D01*
X68848500Y-62475000D02*
X69816500Y-62475000D01*
X66223500Y-62435000D02*
X67168500Y-62435000D01*
X68848500Y-62435000D02*
X69793500Y-62435000D01*
X66248500Y-62395000D02*
X67168500Y-62395000D01*
X68848500Y-62395000D02*
X69768500Y-62395000D01*
X66273500Y-62355000D02*
X67168500Y-62355000D01*
X68848500Y-62355000D02*
X69743500Y-62355000D01*
X66300500Y-62315000D02*
X67168500Y-62315000D01*
X68848500Y-62315000D02*
X69716500Y-62315000D01*
X66328500Y-62275000D02*
X67168500Y-62275000D01*
X68848500Y-62275000D02*
X69688500Y-62275000D01*
X66358500Y-62235000D02*
X67168500Y-62235000D01*
X68848500Y-62235000D02*
X69658500Y-62235000D01*
X66389500Y-62195000D02*
X67168500Y-62195000D01*
X68848500Y-62195000D02*
X69627500Y-62195000D01*
X66421500Y-62155000D02*
X67168500Y-62155000D01*
X68848500Y-62155000D02*
X69595500Y-62155000D01*
X66456500Y-62115000D02*
X67168500Y-62115000D01*
X68848500Y-62115000D02*
X69560500Y-62115000D01*
X66492500Y-62075000D02*
X67168500Y-62075000D01*
X68848500Y-62075000D02*
X69524500Y-62075000D01*
X66530500Y-62035000D02*
X67168500Y-62035000D01*
X68848500Y-62035000D02*
X69486500Y-62035000D01*
X66570500Y-61995000D02*
X67168500Y-61995000D01*
X68848500Y-61995000D02*
X69446500Y-61995000D01*
X66612500Y-61955000D02*
X67168500Y-61955000D01*
X68848500Y-61955000D02*
X69404500Y-61955000D01*
X66657500Y-61915000D02*
X67168500Y-61915000D01*
X68848500Y-61915000D02*
X69359500Y-61915000D01*
X66704500Y-61875000D02*
X67168500Y-61875000D01*
X68848500Y-61875000D02*
X69312500Y-61875000D01*
X66754500Y-61835000D02*
X67168500Y-61835000D01*
X68848500Y-61835000D02*
X69262500Y-61835000D01*
X66808500Y-61795000D02*
X67168500Y-61795000D01*
X68848500Y-61795000D02*
X69208500Y-61795000D01*
X66866500Y-61755000D02*
X67168500Y-61755000D01*
X68848500Y-61755000D02*
X69150500Y-61755000D01*
X66928500Y-61715000D02*
X67168500Y-61715000D01*
X68848500Y-61715000D02*
X69088500Y-61715000D01*
X66995500Y-61675000D02*
X69021500Y-61675000D01*
X67068500Y-61635000D02*
X68948500Y-61635000D01*
X67149500Y-61595000D02*
X68867500Y-61595000D01*
X67240500Y-61555000D02*
X68776500Y-61555000D01*
X67344500Y-61515000D02*
X68672500Y-61515000D01*
X67471500Y-61475000D02*
X68545500Y-61475000D01*
X67638500Y-61435000D02*
X68378500Y-61435000D01*
X66813500Y-65785801D02*
X66813500Y-65385801D01*
X66613500Y-65585801D02*
X67013500Y-65585801D01*
X70128500Y-58848500D02*
G75*
G03*
X70128500Y-58848500I-2120000J0D01*
G01*
X70088500Y-58848500D02*
X65928500Y-58848500D01*
X70088500Y-58888500D02*
X65928500Y-58888500D01*
X70087500Y-58928500D02*
X65929500Y-58928500D01*
X70085500Y-58968500D02*
X65931500Y-58968500D01*
X70082500Y-59008500D02*
X65934500Y-59008500D01*
X70079500Y-59048500D02*
X68848500Y-59048500D01*
X67168500Y-59048500D02*
X65937500Y-59048500D01*
X70075500Y-59088500D02*
X68848500Y-59088500D01*
X67168500Y-59088500D02*
X65941500Y-59088500D01*
X70070500Y-59128500D02*
X68848500Y-59128500D01*
X67168500Y-59128500D02*
X65946500Y-59128500D01*
X70064500Y-59168500D02*
X68848500Y-59168500D01*
X67168500Y-59168500D02*
X65952500Y-59168500D01*
X70058500Y-59208500D02*
X68848500Y-59208500D01*
X67168500Y-59208500D02*
X65958500Y-59208500D01*
X70050500Y-59248500D02*
X68848500Y-59248500D01*
X67168500Y-59248500D02*
X65966500Y-59248500D01*
X70042500Y-59288500D02*
X68848500Y-59288500D01*
X67168500Y-59288500D02*
X65974500Y-59288500D01*
X70033500Y-59328500D02*
X68848500Y-59328500D01*
X67168500Y-59328500D02*
X65983500Y-59328500D01*
X70024500Y-59368500D02*
X68848500Y-59368500D01*
X67168500Y-59368500D02*
X65992500Y-59368500D01*
X70013500Y-59408500D02*
X68848500Y-59408500D01*
X67168500Y-59408500D02*
X66003500Y-59408500D01*
X70002500Y-59448500D02*
X68848500Y-59448500D01*
X67168500Y-59448500D02*
X66014500Y-59448500D01*
X69990500Y-59488500D02*
X68848500Y-59488500D01*
X67168500Y-59488500D02*
X66026500Y-59488500D01*
X69976500Y-59528500D02*
X68848500Y-59528500D01*
X67168500Y-59528500D02*
X66040500Y-59528500D01*
X69962500Y-59569500D02*
X68848500Y-59569500D01*
X67168500Y-59569500D02*
X66054500Y-59569500D01*
X69948500Y-59609500D02*
X68848500Y-59609500D01*
X67168500Y-59609500D02*
X66068500Y-59609500D01*
X69932500Y-59649500D02*
X68848500Y-59649500D01*
X67168500Y-59649500D02*
X66084500Y-59649500D01*
X69915500Y-59689500D02*
X68848500Y-59689500D01*
X67168500Y-59689500D02*
X66101500Y-59689500D01*
X69897500Y-59729500D02*
X68848500Y-59729500D01*
X67168500Y-59729500D02*
X66119500Y-59729500D01*
X69878500Y-59769500D02*
X68848500Y-59769500D01*
X67168500Y-59769500D02*
X66138500Y-59769500D01*
X69859500Y-59809500D02*
X68848500Y-59809500D01*
X67168500Y-59809500D02*
X66157500Y-59809500D01*
X69838500Y-59849500D02*
X68848500Y-59849500D01*
X67168500Y-59849500D02*
X66178500Y-59849500D01*
X69816500Y-59889500D02*
X68848500Y-59889500D01*
X67168500Y-59889500D02*
X66200500Y-59889500D01*
X69793500Y-59929500D02*
X68848500Y-59929500D01*
X67168500Y-59929500D02*
X66223500Y-59929500D01*
X69768500Y-59969500D02*
X68848500Y-59969500D01*
X67168500Y-59969500D02*
X66248500Y-59969500D01*
X69743500Y-60009500D02*
X68848500Y-60009500D01*
X67168500Y-60009500D02*
X66273500Y-60009500D01*
X69716500Y-60049500D02*
X68848500Y-60049500D01*
X67168500Y-60049500D02*
X66300500Y-60049500D01*
X69688500Y-60089500D02*
X68848500Y-60089500D01*
X67168500Y-60089500D02*
X66328500Y-60089500D01*
X69658500Y-60129500D02*
X68848500Y-60129500D01*
X67168500Y-60129500D02*
X66358500Y-60129500D01*
X69627500Y-60169500D02*
X68848500Y-60169500D01*
X67168500Y-60169500D02*
X66389500Y-60169500D01*
X69595500Y-60209500D02*
X68848500Y-60209500D01*
X67168500Y-60209500D02*
X66421500Y-60209500D01*
X69560500Y-60249500D02*
X68848500Y-60249500D01*
X67168500Y-60249500D02*
X66456500Y-60249500D01*
X69524500Y-60289500D02*
X68848500Y-60289500D01*
X67168500Y-60289500D02*
X66492500Y-60289500D01*
X69486500Y-60329500D02*
X68848500Y-60329500D01*
X67168500Y-60329500D02*
X66530500Y-60329500D01*
X69446500Y-60369500D02*
X68848500Y-60369500D01*
X67168500Y-60369500D02*
X66570500Y-60369500D01*
X69404500Y-60409500D02*
X68848500Y-60409500D01*
X67168500Y-60409500D02*
X66612500Y-60409500D01*
X69359500Y-60449500D02*
X68848500Y-60449500D01*
X67168500Y-60449500D02*
X66657500Y-60449500D01*
X69312500Y-60489500D02*
X68848500Y-60489500D01*
X67168500Y-60489500D02*
X66704500Y-60489500D01*
X69262500Y-60529500D02*
X68848500Y-60529500D01*
X67168500Y-60529500D02*
X66754500Y-60529500D01*
X69208500Y-60569500D02*
X68848500Y-60569500D01*
X67168500Y-60569500D02*
X66808500Y-60569500D01*
X69150500Y-60609500D02*
X68848500Y-60609500D01*
X67168500Y-60609500D02*
X66866500Y-60609500D01*
X69088500Y-60649500D02*
X68848500Y-60649500D01*
X67168500Y-60649500D02*
X66928500Y-60649500D01*
X69021500Y-60689500D02*
X66995500Y-60689500D01*
X68948500Y-60729500D02*
X67068500Y-60729500D01*
X68867500Y-60769500D02*
X67149500Y-60769500D01*
X68776500Y-60809500D02*
X67240500Y-60809500D01*
X68672500Y-60849500D02*
X67344500Y-60849500D01*
X68545500Y-60889500D02*
X67471500Y-60889500D01*
X68378500Y-60929500D02*
X67638500Y-60929500D01*
X69203500Y-56578699D02*
X69203500Y-56978699D01*
X69403500Y-56778699D02*
X69003500Y-56778699D01*
X121439000Y-58197500D02*
X121769000Y-58197500D01*
X121439000Y-51657500D02*
X121439000Y-58197500D01*
X121769000Y-51657500D02*
X121439000Y-51657500D01*
X124179000Y-58197500D02*
X123849000Y-58197500D01*
X124179000Y-51657500D02*
X124179000Y-58197500D01*
X123849000Y-51657500D02*
X124179000Y-51657500D01*
X79284500Y-76041500D02*
X78954500Y-76041500D01*
X79284500Y-82581500D02*
X79284500Y-76041500D01*
X78954500Y-82581500D02*
X79284500Y-82581500D01*
X76544500Y-76041500D02*
X76874500Y-76041500D01*
X76544500Y-82581500D02*
X76544500Y-76041500D01*
X76874500Y-82581500D02*
X76544500Y-82581500D01*
X76109500Y-74708000D02*
X75779500Y-74708000D01*
X76109500Y-81248000D02*
X76109500Y-74708000D01*
X75779500Y-81248000D02*
X76109500Y-81248000D01*
X73369500Y-74708000D02*
X73699500Y-74708000D01*
X73369500Y-81248000D02*
X73369500Y-74708000D01*
X73699500Y-81248000D02*
X73369500Y-81248000D01*
X104410000Y-58561600D02*
X104410000Y-55761600D01*
X104410000Y-55761600D02*
X106410000Y-55761600D01*
X106410000Y-55761600D02*
X106410000Y-58561600D01*
X106410000Y-58561600D02*
X104410000Y-58561600D01*
X66112000Y-69151500D02*
G75*
G03*
X66112000Y-69151500I-2120000J0D01*
G01*
X63992000Y-67071500D02*
X63992000Y-71231500D01*
X64032000Y-67071500D02*
X64032000Y-71231500D01*
X64072000Y-67072500D02*
X64072000Y-71230500D01*
X64112000Y-67074500D02*
X64112000Y-71228500D01*
X64152000Y-67077500D02*
X64152000Y-71225500D01*
X64192000Y-67080500D02*
X64192000Y-68311500D01*
X64192000Y-69991500D02*
X64192000Y-71222500D01*
X64232000Y-67084500D02*
X64232000Y-68311500D01*
X64232000Y-69991500D02*
X64232000Y-71218500D01*
X64272000Y-67089500D02*
X64272000Y-68311500D01*
X64272000Y-69991500D02*
X64272000Y-71213500D01*
X64312000Y-67095500D02*
X64312000Y-68311500D01*
X64312000Y-69991500D02*
X64312000Y-71207500D01*
X64352000Y-67101500D02*
X64352000Y-68311500D01*
X64352000Y-69991500D02*
X64352000Y-71201500D01*
X64392000Y-67109500D02*
X64392000Y-68311500D01*
X64392000Y-69991500D02*
X64392000Y-71193500D01*
X64432000Y-67117500D02*
X64432000Y-68311500D01*
X64432000Y-69991500D02*
X64432000Y-71185500D01*
X64472000Y-67126500D02*
X64472000Y-68311500D01*
X64472000Y-69991500D02*
X64472000Y-71176500D01*
X64512000Y-67135500D02*
X64512000Y-68311500D01*
X64512000Y-69991500D02*
X64512000Y-71167500D01*
X64552000Y-67146500D02*
X64552000Y-68311500D01*
X64552000Y-69991500D02*
X64552000Y-71156500D01*
X64592000Y-67157500D02*
X64592000Y-68311500D01*
X64592000Y-69991500D02*
X64592000Y-71145500D01*
X64632000Y-67169500D02*
X64632000Y-68311500D01*
X64632000Y-69991500D02*
X64632000Y-71133500D01*
X64672000Y-67183500D02*
X64672000Y-68311500D01*
X64672000Y-69991500D02*
X64672000Y-71119500D01*
X64713000Y-67197500D02*
X64713000Y-68311500D01*
X64713000Y-69991500D02*
X64713000Y-71105500D01*
X64753000Y-67211500D02*
X64753000Y-68311500D01*
X64753000Y-69991500D02*
X64753000Y-71091500D01*
X64793000Y-67227500D02*
X64793000Y-68311500D01*
X64793000Y-69991500D02*
X64793000Y-71075500D01*
X64833000Y-67244500D02*
X64833000Y-68311500D01*
X64833000Y-69991500D02*
X64833000Y-71058500D01*
X64873000Y-67262500D02*
X64873000Y-68311500D01*
X64873000Y-69991500D02*
X64873000Y-71040500D01*
X64913000Y-67281500D02*
X64913000Y-68311500D01*
X64913000Y-69991500D02*
X64913000Y-71021500D01*
X64953000Y-67300500D02*
X64953000Y-68311500D01*
X64953000Y-69991500D02*
X64953000Y-71002500D01*
X64993000Y-67321500D02*
X64993000Y-68311500D01*
X64993000Y-69991500D02*
X64993000Y-70981500D01*
X65033000Y-67343500D02*
X65033000Y-68311500D01*
X65033000Y-69991500D02*
X65033000Y-70959500D01*
X65073000Y-67366500D02*
X65073000Y-68311500D01*
X65073000Y-69991500D02*
X65073000Y-70936500D01*
X65113000Y-67391500D02*
X65113000Y-68311500D01*
X65113000Y-69991500D02*
X65113000Y-70911500D01*
X65153000Y-67416500D02*
X65153000Y-68311500D01*
X65153000Y-69991500D02*
X65153000Y-70886500D01*
X65193000Y-67443500D02*
X65193000Y-68311500D01*
X65193000Y-69991500D02*
X65193000Y-70859500D01*
X65233000Y-67471500D02*
X65233000Y-68311500D01*
X65233000Y-69991500D02*
X65233000Y-70831500D01*
X65273000Y-67501500D02*
X65273000Y-68311500D01*
X65273000Y-69991500D02*
X65273000Y-70801500D01*
X65313000Y-67532500D02*
X65313000Y-68311500D01*
X65313000Y-69991500D02*
X65313000Y-70770500D01*
X65353000Y-67564500D02*
X65353000Y-68311500D01*
X65353000Y-69991500D02*
X65353000Y-70738500D01*
X65393000Y-67599500D02*
X65393000Y-68311500D01*
X65393000Y-69991500D02*
X65393000Y-70703500D01*
X65433000Y-67635500D02*
X65433000Y-68311500D01*
X65433000Y-69991500D02*
X65433000Y-70667500D01*
X65473000Y-67673500D02*
X65473000Y-68311500D01*
X65473000Y-69991500D02*
X65473000Y-70629500D01*
X65513000Y-67713500D02*
X65513000Y-68311500D01*
X65513000Y-69991500D02*
X65513000Y-70589500D01*
X65553000Y-67755500D02*
X65553000Y-68311500D01*
X65553000Y-69991500D02*
X65553000Y-70547500D01*
X65593000Y-67800500D02*
X65593000Y-68311500D01*
X65593000Y-69991500D02*
X65593000Y-70502500D01*
X65633000Y-67847500D02*
X65633000Y-68311500D01*
X65633000Y-69991500D02*
X65633000Y-70455500D01*
X65673000Y-67897500D02*
X65673000Y-68311500D01*
X65673000Y-69991500D02*
X65673000Y-70405500D01*
X65713000Y-67951500D02*
X65713000Y-68311500D01*
X65713000Y-69991500D02*
X65713000Y-70351500D01*
X65753000Y-68009500D02*
X65753000Y-68311500D01*
X65753000Y-69991500D02*
X65753000Y-70293500D01*
X65793000Y-68071500D02*
X65793000Y-68311500D01*
X65793000Y-69991500D02*
X65793000Y-70231500D01*
X65833000Y-68138500D02*
X65833000Y-70164500D01*
X65873000Y-68211500D02*
X65873000Y-70091500D01*
X65913000Y-68292500D02*
X65913000Y-70010500D01*
X65953000Y-68383500D02*
X65953000Y-69919500D01*
X65993000Y-68487500D02*
X65993000Y-69815500D01*
X66033000Y-68614500D02*
X66033000Y-69688500D01*
X66073000Y-68781500D02*
X66073000Y-69521500D01*
X61722199Y-67956500D02*
X62122199Y-67956500D01*
X61922199Y-67756500D02*
X61922199Y-68156500D01*
X102208000Y-66453000D02*
X101878000Y-66453000D01*
X102208000Y-72993000D02*
X102208000Y-66453000D01*
X101878000Y-72993000D02*
X102208000Y-72993000D01*
X99468000Y-66453000D02*
X99798000Y-66453000D01*
X99468000Y-72993000D02*
X99468000Y-66453000D01*
X99798000Y-72993000D02*
X99468000Y-72993000D01*
X118649000Y-57785000D02*
G75*
G03*
X118649000Y-57785000I-920000J0D01*
G01*
X118649000Y-57785000D02*
X119269000Y-57785000D01*
X118649000Y-55118000D02*
G75*
G03*
X118649000Y-55118000I-920000J0D01*
G01*
X118649000Y-55118000D02*
X119269000Y-55118000D01*
X108975500Y-71691500D02*
G75*
G03*
X108975500Y-71691500I-1470000J0D01*
G01*
X107505500Y-70221500D02*
X107505500Y-67811500D01*
X62170000Y-76521000D02*
X63500000Y-76521000D01*
X62170000Y-77851000D02*
X62170000Y-76521000D01*
X62170000Y-79121000D02*
X64830000Y-79121000D01*
X64830000Y-79121000D02*
X64830000Y-81721000D01*
X62170000Y-79121000D02*
X62170000Y-81721000D01*
X62170000Y-81721000D02*
X64830000Y-81721000D01*
X111827000Y-59439500D02*
X113157000Y-59439500D01*
X111827000Y-60769500D02*
X111827000Y-59439500D01*
X111827000Y-62039500D02*
X114487000Y-62039500D01*
X114487000Y-62039500D02*
X114487000Y-67179500D01*
X111827000Y-62039500D02*
X111827000Y-67179500D01*
X111827000Y-67179500D02*
X114487000Y-67179500D01*
X116138000Y-55693000D02*
X116138000Y-57023000D01*
X114808000Y-55693000D02*
X116138000Y-55693000D01*
X113538000Y-55693000D02*
X113538000Y-58353000D01*
X113538000Y-58353000D02*
X110938000Y-58353000D01*
X113538000Y-55693000D02*
X110938000Y-55693000D01*
X110938000Y-55693000D02*
X110938000Y-58353000D01*
X69469000Y-82159000D02*
X71419000Y-82159000D01*
X69469000Y-82159000D02*
X67519000Y-82159000D01*
X69469000Y-73289000D02*
X71419000Y-73289000D01*
X69469000Y-73289000D02*
X66019000Y-73289000D01*
X46438500Y-65716000D02*
X60978500Y-65716000D01*
X60978500Y-65716000D02*
X60978500Y-96686000D01*
X60978500Y-96686000D02*
X46438500Y-96686000D01*
X61872838Y-86491000D02*
X61872838Y-86991000D01*
X61872838Y-86991000D02*
X61439825Y-86741000D01*
X61439825Y-86741000D02*
X61872838Y-86491000D01*
X74641000Y-88822000D02*
X78491000Y-88822000D01*
X78883383Y-88234264D02*
G75*
G02*
X78491000Y-88822000I-2302383J1112264D01*
G01*
X78937400Y-86023193D02*
G75*
G03*
X76581000Y-84522000I-2356400J-1098807D01*
G01*
X74224600Y-86023193D02*
G75*
G02*
X76581000Y-84522000I2356400J-1098807D01*
G01*
X74258369Y-88244045D02*
G75*
G03*
X74641000Y-88822000I2322631J1122045D01*
G01*
X59934000Y-64257500D02*
X54864000Y-64257500D01*
X59934000Y-54487500D02*
X54864000Y-54487500D01*
X54864000Y-54487500D02*
X54864000Y-64257500D01*
X59934000Y-54487500D02*
X59934000Y-64257500D01*
X65395000Y-64257500D02*
X60325000Y-64257500D01*
X65395000Y-54487500D02*
X60325000Y-54487500D01*
X60325000Y-54487500D02*
X60325000Y-64257500D01*
X65395000Y-54487500D02*
X65395000Y-64257500D01*
X66056000Y-83633000D02*
X64806000Y-83633000D01*
X64806000Y-83633000D02*
X64806000Y-93913000D01*
X64806000Y-93913000D02*
X69306000Y-93913000D01*
X69306000Y-93913000D02*
X69306000Y-83633000D01*
X69306000Y-83633000D02*
X68056000Y-83633000D01*
X68056000Y-83633000D02*
G75*
G02*
X66056000Y-83633000I-1000000J0D01*
G01*
X68040500Y-69572000D02*
X68040500Y-69242000D01*
X68040500Y-69242000D02*
X74580500Y-69242000D01*
X74580500Y-69242000D02*
X74580500Y-69572000D01*
X68040500Y-71652000D02*
X68040500Y-71982000D01*
X68040500Y-71982000D02*
X74580500Y-71982000D01*
X74580500Y-71982000D02*
X74580500Y-71652000D01*
X68040500Y-66333500D02*
X68040500Y-66003500D01*
X68040500Y-66003500D02*
X74580500Y-66003500D01*
X74580500Y-66003500D02*
X74580500Y-66333500D01*
X68040500Y-68413500D02*
X68040500Y-68743500D01*
X68040500Y-68743500D02*
X74580500Y-68743500D01*
X74580500Y-68743500D02*
X74580500Y-68413500D01*
X76581000Y-102108000D02*
X66421000Y-102108000D01*
X76581000Y-103378000D02*
X76581000Y-95758000D01*
X76581000Y-95758000D02*
X66421000Y-95758000D01*
X66421000Y-95758000D02*
X66421000Y-103378000D01*
X66421000Y-103378000D02*
X76581000Y-103378000D01*
X78955000Y-91551000D02*
G75*
G03*
X78955000Y-91551000I-2120000J0D01*
G01*
X78915000Y-91551000D02*
X74755000Y-91551000D01*
X78915000Y-91591000D02*
X74755000Y-91591000D01*
X78914000Y-91631000D02*
X74756000Y-91631000D01*
X78912000Y-91671000D02*
X74758000Y-91671000D01*
X78909000Y-91711000D02*
X74761000Y-91711000D01*
X78906000Y-91751000D02*
X77675000Y-91751000D01*
X75995000Y-91751000D02*
X74764000Y-91751000D01*
X78902000Y-91791000D02*
X77675000Y-91791000D01*
X75995000Y-91791000D02*
X74768000Y-91791000D01*
X78897000Y-91831000D02*
X77675000Y-91831000D01*
X75995000Y-91831000D02*
X74773000Y-91831000D01*
X78891000Y-91871000D02*
X77675000Y-91871000D01*
X75995000Y-91871000D02*
X74779000Y-91871000D01*
X78885000Y-91911000D02*
X77675000Y-91911000D01*
X75995000Y-91911000D02*
X74785000Y-91911000D01*
X78877000Y-91951000D02*
X77675000Y-91951000D01*
X75995000Y-91951000D02*
X74793000Y-91951000D01*
X78869000Y-91991000D02*
X77675000Y-91991000D01*
X75995000Y-91991000D02*
X74801000Y-91991000D01*
X78860000Y-92031000D02*
X77675000Y-92031000D01*
X75995000Y-92031000D02*
X74810000Y-92031000D01*
X78851000Y-92071000D02*
X77675000Y-92071000D01*
X75995000Y-92071000D02*
X74819000Y-92071000D01*
X78840000Y-92111000D02*
X77675000Y-92111000D01*
X75995000Y-92111000D02*
X74830000Y-92111000D01*
X78829000Y-92151000D02*
X77675000Y-92151000D01*
X75995000Y-92151000D02*
X74841000Y-92151000D01*
X78817000Y-92191000D02*
X77675000Y-92191000D01*
X75995000Y-92191000D02*
X74853000Y-92191000D01*
X78803000Y-92231000D02*
X77675000Y-92231000D01*
X75995000Y-92231000D02*
X74867000Y-92231000D01*
X78789000Y-92272000D02*
X77675000Y-92272000D01*
X75995000Y-92272000D02*
X74881000Y-92272000D01*
X78775000Y-92312000D02*
X77675000Y-92312000D01*
X75995000Y-92312000D02*
X74895000Y-92312000D01*
X78759000Y-92352000D02*
X77675000Y-92352000D01*
X75995000Y-92352000D02*
X74911000Y-92352000D01*
X78742000Y-92392000D02*
X77675000Y-92392000D01*
X75995000Y-92392000D02*
X74928000Y-92392000D01*
X78724000Y-92432000D02*
X77675000Y-92432000D01*
X75995000Y-92432000D02*
X74946000Y-92432000D01*
X78705000Y-92472000D02*
X77675000Y-92472000D01*
X75995000Y-92472000D02*
X74965000Y-92472000D01*
X78686000Y-92512000D02*
X77675000Y-92512000D01*
X75995000Y-92512000D02*
X74984000Y-92512000D01*
X78665000Y-92552000D02*
X77675000Y-92552000D01*
X75995000Y-92552000D02*
X75005000Y-92552000D01*
X78643000Y-92592000D02*
X77675000Y-92592000D01*
X75995000Y-92592000D02*
X75027000Y-92592000D01*
X78620000Y-92632000D02*
X77675000Y-92632000D01*
X75995000Y-92632000D02*
X75050000Y-92632000D01*
X78595000Y-92672000D02*
X77675000Y-92672000D01*
X75995000Y-92672000D02*
X75075000Y-92672000D01*
X78570000Y-92712000D02*
X77675000Y-92712000D01*
X75995000Y-92712000D02*
X75100000Y-92712000D01*
X78543000Y-92752000D02*
X77675000Y-92752000D01*
X75995000Y-92752000D02*
X75127000Y-92752000D01*
X78515000Y-92792000D02*
X77675000Y-92792000D01*
X75995000Y-92792000D02*
X75155000Y-92792000D01*
X78485000Y-92832000D02*
X77675000Y-92832000D01*
X75995000Y-92832000D02*
X75185000Y-92832000D01*
X78454000Y-92872000D02*
X77675000Y-92872000D01*
X75995000Y-92872000D02*
X75216000Y-92872000D01*
X78422000Y-92912000D02*
X77675000Y-92912000D01*
X75995000Y-92912000D02*
X75248000Y-92912000D01*
X78387000Y-92952000D02*
X77675000Y-92952000D01*
X75995000Y-92952000D02*
X75283000Y-92952000D01*
X78351000Y-92992000D02*
X77675000Y-92992000D01*
X75995000Y-92992000D02*
X75319000Y-92992000D01*
X78313000Y-93032000D02*
X77675000Y-93032000D01*
X75995000Y-93032000D02*
X75357000Y-93032000D01*
X78273000Y-93072000D02*
X77675000Y-93072000D01*
X75995000Y-93072000D02*
X75397000Y-93072000D01*
X78231000Y-93112000D02*
X77675000Y-93112000D01*
X75995000Y-93112000D02*
X75439000Y-93112000D01*
X78186000Y-93152000D02*
X77675000Y-93152000D01*
X75995000Y-93152000D02*
X75484000Y-93152000D01*
X78139000Y-93192000D02*
X77675000Y-93192000D01*
X75995000Y-93192000D02*
X75531000Y-93192000D01*
X78089000Y-93232000D02*
X77675000Y-93232000D01*
X75995000Y-93232000D02*
X75581000Y-93232000D01*
X78035000Y-93272000D02*
X77675000Y-93272000D01*
X75995000Y-93272000D02*
X75635000Y-93272000D01*
X77977000Y-93312000D02*
X77675000Y-93312000D01*
X75995000Y-93312000D02*
X75693000Y-93312000D01*
X77915000Y-93352000D02*
X77675000Y-93352000D01*
X75995000Y-93352000D02*
X75755000Y-93352000D01*
X77848000Y-93392000D02*
X75822000Y-93392000D01*
X77775000Y-93432000D02*
X75895000Y-93432000D01*
X77694000Y-93472000D02*
X75976000Y-93472000D01*
X77603000Y-93512000D02*
X76067000Y-93512000D01*
X77499000Y-93552000D02*
X76171000Y-93552000D01*
X77372000Y-93592000D02*
X76298000Y-93592000D01*
X77205000Y-93632000D02*
X76465000Y-93632000D01*
X78030000Y-89281199D02*
X78030000Y-89681199D01*
X78230000Y-89481199D02*
X77830000Y-89481199D01*
X90083500Y-77724000D02*
G75*
G03*
X90083500Y-77724000I-2120000J0D01*
G01*
X87963500Y-79804000D02*
X87963500Y-75644000D01*
X87923500Y-79804000D02*
X87923500Y-75644000D01*
X87883500Y-79803000D02*
X87883500Y-75645000D01*
X87843500Y-79801000D02*
X87843500Y-75647000D01*
X87803500Y-79798000D02*
X87803500Y-75650000D01*
X87763500Y-79795000D02*
X87763500Y-78564000D01*
X87763500Y-76884000D02*
X87763500Y-75653000D01*
X87723500Y-79791000D02*
X87723500Y-78564000D01*
X87723500Y-76884000D02*
X87723500Y-75657000D01*
X87683500Y-79786000D02*
X87683500Y-78564000D01*
X87683500Y-76884000D02*
X87683500Y-75662000D01*
X87643500Y-79780000D02*
X87643500Y-78564000D01*
X87643500Y-76884000D02*
X87643500Y-75668000D01*
X87603500Y-79774000D02*
X87603500Y-78564000D01*
X87603500Y-76884000D02*
X87603500Y-75674000D01*
X87563500Y-79766000D02*
X87563500Y-78564000D01*
X87563500Y-76884000D02*
X87563500Y-75682000D01*
X87523500Y-79758000D02*
X87523500Y-78564000D01*
X87523500Y-76884000D02*
X87523500Y-75690000D01*
X87483500Y-79749000D02*
X87483500Y-78564000D01*
X87483500Y-76884000D02*
X87483500Y-75699000D01*
X87443500Y-79740000D02*
X87443500Y-78564000D01*
X87443500Y-76884000D02*
X87443500Y-75708000D01*
X87403500Y-79729000D02*
X87403500Y-78564000D01*
X87403500Y-76884000D02*
X87403500Y-75719000D01*
X87363500Y-79718000D02*
X87363500Y-78564000D01*
X87363500Y-76884000D02*
X87363500Y-75730000D01*
X87323500Y-79706000D02*
X87323500Y-78564000D01*
X87323500Y-76884000D02*
X87323500Y-75742000D01*
X87283500Y-79692000D02*
X87283500Y-78564000D01*
X87283500Y-76884000D02*
X87283500Y-75756000D01*
X87242500Y-79678000D02*
X87242500Y-78564000D01*
X87242500Y-76884000D02*
X87242500Y-75770000D01*
X87202500Y-79664000D02*
X87202500Y-78564000D01*
X87202500Y-76884000D02*
X87202500Y-75784000D01*
X87162500Y-79648000D02*
X87162500Y-78564000D01*
X87162500Y-76884000D02*
X87162500Y-75800000D01*
X87122500Y-79631000D02*
X87122500Y-78564000D01*
X87122500Y-76884000D02*
X87122500Y-75817000D01*
X87082500Y-79613000D02*
X87082500Y-78564000D01*
X87082500Y-76884000D02*
X87082500Y-75835000D01*
X87042500Y-79594000D02*
X87042500Y-78564000D01*
X87042500Y-76884000D02*
X87042500Y-75854000D01*
X87002500Y-79575000D02*
X87002500Y-78564000D01*
X87002500Y-76884000D02*
X87002500Y-75873000D01*
X86962500Y-79554000D02*
X86962500Y-78564000D01*
X86962500Y-76884000D02*
X86962500Y-75894000D01*
X86922500Y-79532000D02*
X86922500Y-78564000D01*
X86922500Y-76884000D02*
X86922500Y-75916000D01*
X86882500Y-79509000D02*
X86882500Y-78564000D01*
X86882500Y-76884000D02*
X86882500Y-75939000D01*
X86842500Y-79484000D02*
X86842500Y-78564000D01*
X86842500Y-76884000D02*
X86842500Y-75964000D01*
X86802500Y-79459000D02*
X86802500Y-78564000D01*
X86802500Y-76884000D02*
X86802500Y-75989000D01*
X86762500Y-79432000D02*
X86762500Y-78564000D01*
X86762500Y-76884000D02*
X86762500Y-76016000D01*
X86722500Y-79404000D02*
X86722500Y-78564000D01*
X86722500Y-76884000D02*
X86722500Y-76044000D01*
X86682500Y-79374000D02*
X86682500Y-78564000D01*
X86682500Y-76884000D02*
X86682500Y-76074000D01*
X86642500Y-79343000D02*
X86642500Y-78564000D01*
X86642500Y-76884000D02*
X86642500Y-76105000D01*
X86602500Y-79311000D02*
X86602500Y-78564000D01*
X86602500Y-76884000D02*
X86602500Y-76137000D01*
X86562500Y-79276000D02*
X86562500Y-78564000D01*
X86562500Y-76884000D02*
X86562500Y-76172000D01*
X86522500Y-79240000D02*
X86522500Y-78564000D01*
X86522500Y-76884000D02*
X86522500Y-76208000D01*
X86482500Y-79202000D02*
X86482500Y-78564000D01*
X86482500Y-76884000D02*
X86482500Y-76246000D01*
X86442500Y-79162000D02*
X86442500Y-78564000D01*
X86442500Y-76884000D02*
X86442500Y-76286000D01*
X86402500Y-79120000D02*
X86402500Y-78564000D01*
X86402500Y-76884000D02*
X86402500Y-76328000D01*
X86362500Y-79075000D02*
X86362500Y-78564000D01*
X86362500Y-76884000D02*
X86362500Y-76373000D01*
X86322500Y-79028000D02*
X86322500Y-78564000D01*
X86322500Y-76884000D02*
X86322500Y-76420000D01*
X86282500Y-78978000D02*
X86282500Y-78564000D01*
X86282500Y-76884000D02*
X86282500Y-76470000D01*
X86242500Y-78924000D02*
X86242500Y-78564000D01*
X86242500Y-76884000D02*
X86242500Y-76524000D01*
X86202500Y-78866000D02*
X86202500Y-78564000D01*
X86202500Y-76884000D02*
X86202500Y-76582000D01*
X86162500Y-78804000D02*
X86162500Y-78564000D01*
X86162500Y-76884000D02*
X86162500Y-76644000D01*
X86122500Y-78737000D02*
X86122500Y-76711000D01*
X86082500Y-78664000D02*
X86082500Y-76784000D01*
X86042500Y-78583000D02*
X86042500Y-76865000D01*
X86002500Y-78492000D02*
X86002500Y-76956000D01*
X85962500Y-78388000D02*
X85962500Y-77060000D01*
X85922500Y-78261000D02*
X85922500Y-77187000D01*
X85882500Y-78094000D02*
X85882500Y-77354000D01*
X90233301Y-78919000D02*
X89833301Y-78919000D01*
X90033301Y-79119000D02*
X90033301Y-78719000D01*
X83273000Y-99996500D02*
G75*
G03*
X83273000Y-99996500I-2120000J0D01*
G01*
X83233000Y-99996500D02*
X79073000Y-99996500D01*
X83233000Y-100036500D02*
X79073000Y-100036500D01*
X83232000Y-100076500D02*
X79074000Y-100076500D01*
X83230000Y-100116500D02*
X79076000Y-100116500D01*
X83227000Y-100156500D02*
X79079000Y-100156500D01*
X83224000Y-100196500D02*
X81993000Y-100196500D01*
X80313000Y-100196500D02*
X79082000Y-100196500D01*
X83220000Y-100236500D02*
X81993000Y-100236500D01*
X80313000Y-100236500D02*
X79086000Y-100236500D01*
X83215000Y-100276500D02*
X81993000Y-100276500D01*
X80313000Y-100276500D02*
X79091000Y-100276500D01*
X83209000Y-100316500D02*
X81993000Y-100316500D01*
X80313000Y-100316500D02*
X79097000Y-100316500D01*
X83203000Y-100356500D02*
X81993000Y-100356500D01*
X80313000Y-100356500D02*
X79103000Y-100356500D01*
X83195000Y-100396500D02*
X81993000Y-100396500D01*
X80313000Y-100396500D02*
X79111000Y-100396500D01*
X83187000Y-100436500D02*
X81993000Y-100436500D01*
X80313000Y-100436500D02*
X79119000Y-100436500D01*
X83178000Y-100476500D02*
X81993000Y-100476500D01*
X80313000Y-100476500D02*
X79128000Y-100476500D01*
X83169000Y-100516500D02*
X81993000Y-100516500D01*
X80313000Y-100516500D02*
X79137000Y-100516500D01*
X83158000Y-100556500D02*
X81993000Y-100556500D01*
X80313000Y-100556500D02*
X79148000Y-100556500D01*
X83147000Y-100596500D02*
X81993000Y-100596500D01*
X80313000Y-100596500D02*
X79159000Y-100596500D01*
X83135000Y-100636500D02*
X81993000Y-100636500D01*
X80313000Y-100636500D02*
X79171000Y-100636500D01*
X83121000Y-100676500D02*
X81993000Y-100676500D01*
X80313000Y-100676500D02*
X79185000Y-100676500D01*
X83107000Y-100717500D02*
X81993000Y-100717500D01*
X80313000Y-100717500D02*
X79199000Y-100717500D01*
X83093000Y-100757500D02*
X81993000Y-100757500D01*
X80313000Y-100757500D02*
X79213000Y-100757500D01*
X83077000Y-100797500D02*
X81993000Y-100797500D01*
X80313000Y-100797500D02*
X79229000Y-100797500D01*
X83060000Y-100837500D02*
X81993000Y-100837500D01*
X80313000Y-100837500D02*
X79246000Y-100837500D01*
X83042000Y-100877500D02*
X81993000Y-100877500D01*
X80313000Y-100877500D02*
X79264000Y-100877500D01*
X83023000Y-100917500D02*
X81993000Y-100917500D01*
X80313000Y-100917500D02*
X79283000Y-100917500D01*
X83004000Y-100957500D02*
X81993000Y-100957500D01*
X80313000Y-100957500D02*
X79302000Y-100957500D01*
X82983000Y-100997500D02*
X81993000Y-100997500D01*
X80313000Y-100997500D02*
X79323000Y-100997500D01*
X82961000Y-101037500D02*
X81993000Y-101037500D01*
X80313000Y-101037500D02*
X79345000Y-101037500D01*
X82938000Y-101077500D02*
X81993000Y-101077500D01*
X80313000Y-101077500D02*
X79368000Y-101077500D01*
X82913000Y-101117500D02*
X81993000Y-101117500D01*
X80313000Y-101117500D02*
X79393000Y-101117500D01*
X82888000Y-101157500D02*
X81993000Y-101157500D01*
X80313000Y-101157500D02*
X79418000Y-101157500D01*
X82861000Y-101197500D02*
X81993000Y-101197500D01*
X80313000Y-101197500D02*
X79445000Y-101197500D01*
X82833000Y-101237500D02*
X81993000Y-101237500D01*
X80313000Y-101237500D02*
X79473000Y-101237500D01*
X82803000Y-101277500D02*
X81993000Y-101277500D01*
X80313000Y-101277500D02*
X79503000Y-101277500D01*
X82772000Y-101317500D02*
X81993000Y-101317500D01*
X80313000Y-101317500D02*
X79534000Y-101317500D01*
X82740000Y-101357500D02*
X81993000Y-101357500D01*
X80313000Y-101357500D02*
X79566000Y-101357500D01*
X82705000Y-101397500D02*
X81993000Y-101397500D01*
X80313000Y-101397500D02*
X79601000Y-101397500D01*
X82669000Y-101437500D02*
X81993000Y-101437500D01*
X80313000Y-101437500D02*
X79637000Y-101437500D01*
X82631000Y-101477500D02*
X81993000Y-101477500D01*
X80313000Y-101477500D02*
X79675000Y-101477500D01*
X82591000Y-101517500D02*
X81993000Y-101517500D01*
X80313000Y-101517500D02*
X79715000Y-101517500D01*
X82549000Y-101557500D02*
X81993000Y-101557500D01*
X80313000Y-101557500D02*
X79757000Y-101557500D01*
X82504000Y-101597500D02*
X81993000Y-101597500D01*
X80313000Y-101597500D02*
X79802000Y-101597500D01*
X82457000Y-101637500D02*
X81993000Y-101637500D01*
X80313000Y-101637500D02*
X79849000Y-101637500D01*
X82407000Y-101677500D02*
X81993000Y-101677500D01*
X80313000Y-101677500D02*
X79899000Y-101677500D01*
X82353000Y-101717500D02*
X81993000Y-101717500D01*
X80313000Y-101717500D02*
X79953000Y-101717500D01*
X82295000Y-101757500D02*
X81993000Y-101757500D01*
X80313000Y-101757500D02*
X80011000Y-101757500D01*
X82233000Y-101797500D02*
X81993000Y-101797500D01*
X80313000Y-101797500D02*
X80073000Y-101797500D01*
X82166000Y-101837500D02*
X80140000Y-101837500D01*
X82093000Y-101877500D02*
X80213000Y-101877500D01*
X82012000Y-101917500D02*
X80294000Y-101917500D01*
X81921000Y-101957500D02*
X80385000Y-101957500D01*
X81817000Y-101997500D02*
X80489000Y-101997500D01*
X81690000Y-102037500D02*
X80616000Y-102037500D01*
X81523000Y-102077500D02*
X80783000Y-102077500D01*
X82348000Y-97726699D02*
X82348000Y-98126699D01*
X82548000Y-97926699D02*
X82148000Y-97926699D01*
X79592500Y-82590500D02*
X79592500Y-75350500D01*
X82332500Y-82590500D02*
X82332500Y-75350500D01*
X79592500Y-82590500D02*
X82332500Y-82590500D01*
X79592500Y-75350500D02*
X82332500Y-75350500D01*
X82704000Y-82590500D02*
X82704000Y-75350500D01*
X85444000Y-82590500D02*
X85444000Y-75350500D01*
X82704000Y-82590500D02*
X85444000Y-82590500D01*
X82704000Y-75350500D02*
X85444000Y-75350500D01*
X46736000Y-54800500D02*
X46736000Y-64960500D01*
X54356000Y-54800500D02*
X46736000Y-54800500D01*
X54356000Y-64960500D02*
X54356000Y-54800500D01*
X46736000Y-64960500D02*
X54356000Y-64960500D01*
X48006000Y-64960500D02*
X48006000Y-54800500D01*
X97123000Y-82713500D02*
X97123000Y-82383500D01*
X90583000Y-82713500D02*
X97123000Y-82713500D01*
X90583000Y-82383500D02*
X90583000Y-82713500D01*
X97123000Y-79973500D02*
X97123000Y-80303500D01*
X90583000Y-79973500D02*
X97123000Y-79973500D01*
X90583000Y-80303500D02*
X90583000Y-79973500D01*
X120332500Y-103505000D02*
X130492500Y-103505000D01*
X120332500Y-95885000D02*
X120332500Y-103505000D01*
X130492500Y-95885000D02*
X120332500Y-95885000D01*
X130492500Y-103505000D02*
X130492500Y-95885000D01*
X130492500Y-102235000D02*
X120332500Y-102235000D01*
X123758000Y-93532000D02*
X122428000Y-93532000D01*
X123758000Y-92202000D02*
X123758000Y-93532000D01*
X121158000Y-93532000D02*
X118558000Y-93532000D01*
X121158000Y-90932000D02*
X121158000Y-93532000D01*
X123758000Y-90932000D02*
X121158000Y-90932000D01*
X118558000Y-93532000D02*
X118558000Y-60392000D01*
X123758000Y-90932000D02*
X123758000Y-60392000D01*
X123758000Y-60392000D02*
X118558000Y-60392000D01*
X86159801Y-61847000D02*
X86159801Y-61447000D01*
X86359801Y-61647000D02*
X85959801Y-61647000D01*
X82009000Y-60822000D02*
X82009000Y-60082000D01*
X82049000Y-60989000D02*
X82049000Y-59915000D01*
X82089000Y-61116000D02*
X82089000Y-59788000D01*
X82129000Y-61220000D02*
X82129000Y-59684000D01*
X82169000Y-61311000D02*
X82169000Y-59593000D01*
X82209000Y-61392000D02*
X82209000Y-59512000D01*
X82249000Y-61465000D02*
X82249000Y-59439000D01*
X82289000Y-59612000D02*
X82289000Y-59372000D01*
X82289000Y-61532000D02*
X82289000Y-61292000D01*
X82329000Y-59612000D02*
X82329000Y-59310000D01*
X82329000Y-61594000D02*
X82329000Y-61292000D01*
X82369000Y-59612000D02*
X82369000Y-59252000D01*
X82369000Y-61652000D02*
X82369000Y-61292000D01*
X82409000Y-59612000D02*
X82409000Y-59198000D01*
X82409000Y-61706000D02*
X82409000Y-61292000D01*
X82449000Y-59612000D02*
X82449000Y-59148000D01*
X82449000Y-61756000D02*
X82449000Y-61292000D01*
X82489000Y-59612000D02*
X82489000Y-59101000D01*
X82489000Y-61803000D02*
X82489000Y-61292000D01*
X82529000Y-59612000D02*
X82529000Y-59056000D01*
X82529000Y-61848000D02*
X82529000Y-61292000D01*
X82569000Y-59612000D02*
X82569000Y-59014000D01*
X82569000Y-61890000D02*
X82569000Y-61292000D01*
X82609000Y-59612000D02*
X82609000Y-58974000D01*
X82609000Y-61930000D02*
X82609000Y-61292000D01*
X82649000Y-59612000D02*
X82649000Y-58936000D01*
X82649000Y-61968000D02*
X82649000Y-61292000D01*
X82689000Y-59612000D02*
X82689000Y-58900000D01*
X82689000Y-62004000D02*
X82689000Y-61292000D01*
X82729000Y-59612000D02*
X82729000Y-58865000D01*
X82729000Y-62039000D02*
X82729000Y-61292000D01*
X82769000Y-59612000D02*
X82769000Y-58833000D01*
X82769000Y-62071000D02*
X82769000Y-61292000D01*
X82809000Y-59612000D02*
X82809000Y-58802000D01*
X82809000Y-62102000D02*
X82809000Y-61292000D01*
X82849000Y-59612000D02*
X82849000Y-58772000D01*
X82849000Y-62132000D02*
X82849000Y-61292000D01*
X82889000Y-59612000D02*
X82889000Y-58744000D01*
X82889000Y-62160000D02*
X82889000Y-61292000D01*
X82929000Y-59612000D02*
X82929000Y-58717000D01*
X82929000Y-62187000D02*
X82929000Y-61292000D01*
X82969000Y-59612000D02*
X82969000Y-58692000D01*
X82969000Y-62212000D02*
X82969000Y-61292000D01*
X83009000Y-59612000D02*
X83009000Y-58667000D01*
X83009000Y-62237000D02*
X83009000Y-61292000D01*
X83049000Y-59612000D02*
X83049000Y-58644000D01*
X83049000Y-62260000D02*
X83049000Y-61292000D01*
X83089000Y-59612000D02*
X83089000Y-58622000D01*
X83089000Y-62282000D02*
X83089000Y-61292000D01*
X83129000Y-59612000D02*
X83129000Y-58601000D01*
X83129000Y-62303000D02*
X83129000Y-61292000D01*
X83169000Y-59612000D02*
X83169000Y-58582000D01*
X83169000Y-62322000D02*
X83169000Y-61292000D01*
X83209000Y-59612000D02*
X83209000Y-58563000D01*
X83209000Y-62341000D02*
X83209000Y-61292000D01*
X83249000Y-59612000D02*
X83249000Y-58545000D01*
X83249000Y-62359000D02*
X83249000Y-61292000D01*
X83289000Y-59612000D02*
X83289000Y-58528000D01*
X83289000Y-62376000D02*
X83289000Y-61292000D01*
X83329000Y-59612000D02*
X83329000Y-58512000D01*
X83329000Y-62392000D02*
X83329000Y-61292000D01*
X83369000Y-59612000D02*
X83369000Y-58498000D01*
X83369000Y-62406000D02*
X83369000Y-61292000D01*
X83410000Y-59612000D02*
X83410000Y-58484000D01*
X83410000Y-62420000D02*
X83410000Y-61292000D01*
X83450000Y-59612000D02*
X83450000Y-58470000D01*
X83450000Y-62434000D02*
X83450000Y-61292000D01*
X83490000Y-59612000D02*
X83490000Y-58458000D01*
X83490000Y-62446000D02*
X83490000Y-61292000D01*
X83530000Y-59612000D02*
X83530000Y-58447000D01*
X83530000Y-62457000D02*
X83530000Y-61292000D01*
X83570000Y-59612000D02*
X83570000Y-58436000D01*
X83570000Y-62468000D02*
X83570000Y-61292000D01*
X83610000Y-59612000D02*
X83610000Y-58427000D01*
X83610000Y-62477000D02*
X83610000Y-61292000D01*
X83650000Y-59612000D02*
X83650000Y-58418000D01*
X83650000Y-62486000D02*
X83650000Y-61292000D01*
X83690000Y-59612000D02*
X83690000Y-58410000D01*
X83690000Y-62494000D02*
X83690000Y-61292000D01*
X83730000Y-59612000D02*
X83730000Y-58402000D01*
X83730000Y-62502000D02*
X83730000Y-61292000D01*
X83770000Y-59612000D02*
X83770000Y-58396000D01*
X83770000Y-62508000D02*
X83770000Y-61292000D01*
X83810000Y-59612000D02*
X83810000Y-58390000D01*
X83810000Y-62514000D02*
X83810000Y-61292000D01*
X83850000Y-59612000D02*
X83850000Y-58385000D01*
X83850000Y-62519000D02*
X83850000Y-61292000D01*
X83890000Y-59612000D02*
X83890000Y-58381000D01*
X83890000Y-62523000D02*
X83890000Y-61292000D01*
X83930000Y-62526000D02*
X83930000Y-58378000D01*
X83970000Y-62529000D02*
X83970000Y-58375000D01*
X84010000Y-62531000D02*
X84010000Y-58373000D01*
X84050000Y-62532000D02*
X84050000Y-58372000D01*
X84090000Y-62532000D02*
X84090000Y-58372000D01*
X86210000Y-60452000D02*
G75*
G03*
X86210000Y-60452000I-2120000J0D01*
G01*
X97474500Y-63871301D02*
X97874500Y-63871301D01*
X97674500Y-64071301D02*
X97674500Y-63671301D01*
X98499500Y-59720500D02*
X99239500Y-59720500D01*
X98332500Y-59760500D02*
X99406500Y-59760500D01*
X98205500Y-59800500D02*
X99533500Y-59800500D01*
X98101500Y-59840500D02*
X99637500Y-59840500D01*
X98010500Y-59880500D02*
X99728500Y-59880500D01*
X97929500Y-59920500D02*
X99809500Y-59920500D01*
X97856500Y-59960500D02*
X99882500Y-59960500D01*
X99709500Y-60000500D02*
X99949500Y-60000500D01*
X97789500Y-60000500D02*
X98029500Y-60000500D01*
X99709500Y-60040500D02*
X100011500Y-60040500D01*
X97727500Y-60040500D02*
X98029500Y-60040500D01*
X99709500Y-60080500D02*
X100069500Y-60080500D01*
X97669500Y-60080500D02*
X98029500Y-60080500D01*
X99709500Y-60120500D02*
X100123500Y-60120500D01*
X97615500Y-60120500D02*
X98029500Y-60120500D01*
X99709500Y-60160500D02*
X100173500Y-60160500D01*
X97565500Y-60160500D02*
X98029500Y-60160500D01*
X99709500Y-60200500D02*
X100220500Y-60200500D01*
X97518500Y-60200500D02*
X98029500Y-60200500D01*
X99709500Y-60240500D02*
X100265500Y-60240500D01*
X97473500Y-60240500D02*
X98029500Y-60240500D01*
X99709500Y-60280500D02*
X100307500Y-60280500D01*
X97431500Y-60280500D02*
X98029500Y-60280500D01*
X99709500Y-60320500D02*
X100347500Y-60320500D01*
X97391500Y-60320500D02*
X98029500Y-60320500D01*
X99709500Y-60360500D02*
X100385500Y-60360500D01*
X97353500Y-60360500D02*
X98029500Y-60360500D01*
X99709500Y-60400500D02*
X100421500Y-60400500D01*
X97317500Y-60400500D02*
X98029500Y-60400500D01*
X99709500Y-60440500D02*
X100456500Y-60440500D01*
X97282500Y-60440500D02*
X98029500Y-60440500D01*
X99709500Y-60480500D02*
X100488500Y-60480500D01*
X97250500Y-60480500D02*
X98029500Y-60480500D01*
X99709500Y-60520500D02*
X100519500Y-60520500D01*
X97219500Y-60520500D02*
X98029500Y-60520500D01*
X99709500Y-60560500D02*
X100549500Y-60560500D01*
X97189500Y-60560500D02*
X98029500Y-60560500D01*
X99709500Y-60600500D02*
X100577500Y-60600500D01*
X97161500Y-60600500D02*
X98029500Y-60600500D01*
X99709500Y-60640500D02*
X100604500Y-60640500D01*
X97134500Y-60640500D02*
X98029500Y-60640500D01*
X99709500Y-60680500D02*
X100629500Y-60680500D01*
X97109500Y-60680500D02*
X98029500Y-60680500D01*
X99709500Y-60720500D02*
X100654500Y-60720500D01*
X97084500Y-60720500D02*
X98029500Y-60720500D01*
X99709500Y-60760500D02*
X100677500Y-60760500D01*
X97061500Y-60760500D02*
X98029500Y-60760500D01*
X99709500Y-60800500D02*
X100699500Y-60800500D01*
X97039500Y-60800500D02*
X98029500Y-60800500D01*
X99709500Y-60840500D02*
X100720500Y-60840500D01*
X97018500Y-60840500D02*
X98029500Y-60840500D01*
X99709500Y-60880500D02*
X100739500Y-60880500D01*
X96999500Y-60880500D02*
X98029500Y-60880500D01*
X99709500Y-60920500D02*
X100758500Y-60920500D01*
X96980500Y-60920500D02*
X98029500Y-60920500D01*
X99709500Y-60960500D02*
X100776500Y-60960500D01*
X96962500Y-60960500D02*
X98029500Y-60960500D01*
X99709500Y-61000500D02*
X100793500Y-61000500D01*
X96945500Y-61000500D02*
X98029500Y-61000500D01*
X99709500Y-61040500D02*
X100809500Y-61040500D01*
X96929500Y-61040500D02*
X98029500Y-61040500D01*
X99709500Y-61080500D02*
X100823500Y-61080500D01*
X96915500Y-61080500D02*
X98029500Y-61080500D01*
X99709500Y-61121500D02*
X100837500Y-61121500D01*
X96901500Y-61121500D02*
X98029500Y-61121500D01*
X99709500Y-61161500D02*
X100851500Y-61161500D01*
X96887500Y-61161500D02*
X98029500Y-61161500D01*
X99709500Y-61201500D02*
X100863500Y-61201500D01*
X96875500Y-61201500D02*
X98029500Y-61201500D01*
X99709500Y-61241500D02*
X100874500Y-61241500D01*
X96864500Y-61241500D02*
X98029500Y-61241500D01*
X99709500Y-61281500D02*
X100885500Y-61281500D01*
X96853500Y-61281500D02*
X98029500Y-61281500D01*
X99709500Y-61321500D02*
X100894500Y-61321500D01*
X96844500Y-61321500D02*
X98029500Y-61321500D01*
X99709500Y-61361500D02*
X100903500Y-61361500D01*
X96835500Y-61361500D02*
X98029500Y-61361500D01*
X99709500Y-61401500D02*
X100911500Y-61401500D01*
X96827500Y-61401500D02*
X98029500Y-61401500D01*
X99709500Y-61441500D02*
X100919500Y-61441500D01*
X96819500Y-61441500D02*
X98029500Y-61441500D01*
X99709500Y-61481500D02*
X100925500Y-61481500D01*
X96813500Y-61481500D02*
X98029500Y-61481500D01*
X99709500Y-61521500D02*
X100931500Y-61521500D01*
X96807500Y-61521500D02*
X98029500Y-61521500D01*
X99709500Y-61561500D02*
X100936500Y-61561500D01*
X96802500Y-61561500D02*
X98029500Y-61561500D01*
X99709500Y-61601500D02*
X100940500Y-61601500D01*
X96798500Y-61601500D02*
X98029500Y-61601500D01*
X96795500Y-61641500D02*
X100943500Y-61641500D01*
X96792500Y-61681500D02*
X100946500Y-61681500D01*
X96790500Y-61721500D02*
X100948500Y-61721500D01*
X96789500Y-61761500D02*
X100949500Y-61761500D01*
X96789500Y-61801500D02*
X100949500Y-61801500D01*
X100989500Y-61801500D02*
G75*
G03*
X100989500Y-61801500I-2120000J0D01*
G01*
X97704400Y-58575400D02*
X97704400Y-55775400D01*
X97704400Y-55775400D02*
X99704400Y-55775400D01*
X99704400Y-55775400D02*
X99704400Y-58575400D01*
X99704400Y-58575400D02*
X97704400Y-58575400D01*
X105319500Y-66453000D02*
X104989500Y-66453000D01*
X105319500Y-72993000D02*
X105319500Y-66453000D01*
X104989500Y-72993000D02*
X105319500Y-72993000D01*
X102579500Y-66453000D02*
X102909500Y-66453000D01*
X102579500Y-72993000D02*
X102579500Y-66453000D01*
X102909500Y-72993000D02*
X102579500Y-72993000D01*
X100752500Y-84209500D02*
X104352500Y-84209500D01*
X104876684Y-83482295D02*
G75*
G02*
X104352500Y-84209500I-2324184J1122795D01*
G01*
X104908900Y-81260693D02*
G75*
G03*
X102552500Y-79759500I-2356400J-1098807D01*
G01*
X100196100Y-81260693D02*
G75*
G02*
X102552500Y-79759500I2356400J-1098807D01*
G01*
X100228316Y-83482295D02*
G75*
G03*
X100752500Y-84209500I2324184J1122795D01*
G01*
X92444500Y-87879422D02*
X92444500Y-88396578D01*
X93864500Y-87879422D02*
X93864500Y-88396578D01*
X103608000Y-57150000D02*
G75*
G03*
X103608000Y-57150000I-1500000J0D01*
G01*
X115503000Y-95310000D02*
X114173000Y-95310000D01*
X115503000Y-93980000D02*
X115503000Y-95310000D01*
X112903000Y-95310000D02*
X110303000Y-95310000D01*
X112903000Y-92710000D02*
X112903000Y-95310000D01*
X115503000Y-92710000D02*
X112903000Y-92710000D01*
X110303000Y-95310000D02*
X110303000Y-69790000D01*
X115503000Y-92710000D02*
X115503000Y-69790000D01*
X115503000Y-69790000D02*
X110303000Y-69790000D01*
D12*
X95748000Y-89143000D02*
X95748000Y-84643000D01*
X95748000Y-84643000D02*
X105948000Y-84643000D01*
X105948000Y-89143000D02*
X95748000Y-89143000D01*
X105948000Y-84643000D02*
X105948000Y-89143000D01*
D13*
X95198000Y-87503000D02*
G75*
G03*
X95198000Y-87503000I-100000J0D01*
G01*
D11*
X87441000Y-86507000D02*
X83991000Y-86507000D01*
X87441000Y-86507000D02*
X89391000Y-86507000D01*
X87441000Y-96627000D02*
X85491000Y-96627000D01*
X87441000Y-96627000D02*
X89391000Y-96627000D01*
X76464000Y-64393500D02*
X81534000Y-64393500D01*
X76464000Y-74163500D02*
X81534000Y-74163500D01*
X81534000Y-74163500D02*
X81534000Y-64393500D01*
X76464000Y-74163500D02*
X76464000Y-64393500D01*
X83189578Y-84126000D02*
X82672422Y-84126000D01*
X83189578Y-85546000D02*
X82672422Y-85546000D01*
X81586000Y-94864422D02*
X81586000Y-95381578D01*
X83006000Y-94864422D02*
X83006000Y-95381578D01*
X81586000Y-91308422D02*
X81586000Y-91825578D01*
X83006000Y-91308422D02*
X83006000Y-91825578D01*
X81586000Y-87752422D02*
X81586000Y-88269578D01*
X83006000Y-87752422D02*
X83006000Y-88269578D01*
X102817000Y-89754225D02*
X102317000Y-89754225D01*
X102567000Y-89504225D02*
X102567000Y-90004225D01*
X101376000Y-94910000D02*
X100808000Y-94910000D01*
X101610000Y-94870000D02*
X100574000Y-94870000D01*
X101769000Y-94830000D02*
X100415000Y-94830000D01*
X101897000Y-94790000D02*
X100287000Y-94790000D01*
X102007000Y-94750000D02*
X100177000Y-94750000D01*
X102103000Y-94710000D02*
X100081000Y-94710000D01*
X102190000Y-94670000D02*
X99994000Y-94670000D01*
X102270000Y-94630000D02*
X99914000Y-94630000D01*
X100052000Y-94590000D02*
X99841000Y-94590000D01*
X102343000Y-94590000D02*
X102132000Y-94590000D01*
X100052000Y-94550000D02*
X99773000Y-94550000D01*
X102411000Y-94550000D02*
X102132000Y-94550000D01*
X100052000Y-94510000D02*
X99709000Y-94510000D01*
X102475000Y-94510000D02*
X102132000Y-94510000D01*
X100052000Y-94470000D02*
X99649000Y-94470000D01*
X102535000Y-94470000D02*
X102132000Y-94470000D01*
X100052000Y-94430000D02*
X99592000Y-94430000D01*
X102592000Y-94430000D02*
X102132000Y-94430000D01*
X100052000Y-94390000D02*
X99538000Y-94390000D01*
X102646000Y-94390000D02*
X102132000Y-94390000D01*
X100052000Y-94350000D02*
X99487000Y-94350000D01*
X102697000Y-94350000D02*
X102132000Y-94350000D01*
X100052000Y-94310000D02*
X99439000Y-94310000D01*
X102745000Y-94310000D02*
X102132000Y-94310000D01*
X100052000Y-94270000D02*
X99393000Y-94270000D01*
X102791000Y-94270000D02*
X102132000Y-94270000D01*
X100052000Y-94230000D02*
X99349000Y-94230000D01*
X102835000Y-94230000D02*
X102132000Y-94230000D01*
X100052000Y-94190000D02*
X99307000Y-94190000D01*
X102877000Y-94190000D02*
X102132000Y-94190000D01*
X100052000Y-94150000D02*
X99266000Y-94150000D01*
X102918000Y-94150000D02*
X102132000Y-94150000D01*
X100052000Y-94110000D02*
X99228000Y-94110000D01*
X102956000Y-94110000D02*
X102132000Y-94110000D01*
X100052000Y-94070000D02*
X99191000Y-94070000D01*
X102993000Y-94070000D02*
X102132000Y-94070000D01*
X100052000Y-94030000D02*
X99155000Y-94030000D01*
X103029000Y-94030000D02*
X102132000Y-94030000D01*
X100052000Y-93990000D02*
X99121000Y-93990000D01*
X103063000Y-93990000D02*
X102132000Y-93990000D01*
X100052000Y-93950000D02*
X99088000Y-93950000D01*
X103096000Y-93950000D02*
X102132000Y-93950000D01*
X100052000Y-93910000D02*
X99057000Y-93910000D01*
X103127000Y-93910000D02*
X102132000Y-93910000D01*
X100052000Y-93870000D02*
X99027000Y-93870000D01*
X103157000Y-93870000D02*
X102132000Y-93870000D01*
X100052000Y-93830000D02*
X98997000Y-93830000D01*
X103187000Y-93830000D02*
X102132000Y-93830000D01*
X100052000Y-93790000D02*
X98970000Y-93790000D01*
X103214000Y-93790000D02*
X102132000Y-93790000D01*
X100052000Y-93750000D02*
X98943000Y-93750000D01*
X103241000Y-93750000D02*
X102132000Y-93750000D01*
X100052000Y-93710000D02*
X98917000Y-93710000D01*
X103267000Y-93710000D02*
X102132000Y-93710000D01*
X100052000Y-93670000D02*
X98892000Y-93670000D01*
X103292000Y-93670000D02*
X102132000Y-93670000D01*
X100052000Y-93630000D02*
X98868000Y-93630000D01*
X103316000Y-93630000D02*
X102132000Y-93630000D01*
X100052000Y-93590000D02*
X98845000Y-93590000D01*
X103339000Y-93590000D02*
X102132000Y-93590000D01*
X100052000Y-93550000D02*
X98824000Y-93550000D01*
X103360000Y-93550000D02*
X102132000Y-93550000D01*
X100052000Y-93510000D02*
X98802000Y-93510000D01*
X103382000Y-93510000D02*
X102132000Y-93510000D01*
X100052000Y-93470000D02*
X98782000Y-93470000D01*
X103402000Y-93470000D02*
X102132000Y-93470000D01*
X100052000Y-93430000D02*
X98763000Y-93430000D01*
X103421000Y-93430000D02*
X102132000Y-93430000D01*
X100052000Y-93390000D02*
X98744000Y-93390000D01*
X103440000Y-93390000D02*
X102132000Y-93390000D01*
X100052000Y-93350000D02*
X98727000Y-93350000D01*
X103457000Y-93350000D02*
X102132000Y-93350000D01*
X100052000Y-93310000D02*
X98710000Y-93310000D01*
X103474000Y-93310000D02*
X102132000Y-93310000D01*
X100052000Y-93270000D02*
X98694000Y-93270000D01*
X103490000Y-93270000D02*
X102132000Y-93270000D01*
X100052000Y-93230000D02*
X98678000Y-93230000D01*
X103506000Y-93230000D02*
X102132000Y-93230000D01*
X100052000Y-93190000D02*
X98664000Y-93190000D01*
X103520000Y-93190000D02*
X102132000Y-93190000D01*
X100052000Y-93150000D02*
X98650000Y-93150000D01*
X103534000Y-93150000D02*
X102132000Y-93150000D01*
X100052000Y-93110000D02*
X98637000Y-93110000D01*
X103547000Y-93110000D02*
X102132000Y-93110000D01*
X100052000Y-93070000D02*
X98624000Y-93070000D01*
X103560000Y-93070000D02*
X102132000Y-93070000D01*
X100052000Y-93030000D02*
X98612000Y-93030000D01*
X103572000Y-93030000D02*
X102132000Y-93030000D01*
X100052000Y-92989000D02*
X98601000Y-92989000D01*
X103583000Y-92989000D02*
X102132000Y-92989000D01*
X100052000Y-92949000D02*
X98591000Y-92949000D01*
X103593000Y-92949000D02*
X102132000Y-92949000D01*
X100052000Y-92909000D02*
X98581000Y-92909000D01*
X103603000Y-92909000D02*
X102132000Y-92909000D01*
X100052000Y-92869000D02*
X98572000Y-92869000D01*
X103612000Y-92869000D02*
X102132000Y-92869000D01*
X100052000Y-92829000D02*
X98564000Y-92829000D01*
X103620000Y-92829000D02*
X102132000Y-92829000D01*
X100052000Y-92789000D02*
X98556000Y-92789000D01*
X103628000Y-92789000D02*
X102132000Y-92789000D01*
X100052000Y-92749000D02*
X98549000Y-92749000D01*
X103635000Y-92749000D02*
X102132000Y-92749000D01*
X100052000Y-92709000D02*
X98542000Y-92709000D01*
X103642000Y-92709000D02*
X102132000Y-92709000D01*
X100052000Y-92669000D02*
X98536000Y-92669000D01*
X103648000Y-92669000D02*
X102132000Y-92669000D01*
X100052000Y-92629000D02*
X98531000Y-92629000D01*
X103653000Y-92629000D02*
X102132000Y-92629000D01*
X100052000Y-92589000D02*
X98527000Y-92589000D01*
X103657000Y-92589000D02*
X102132000Y-92589000D01*
X100052000Y-92549000D02*
X98523000Y-92549000D01*
X103661000Y-92549000D02*
X102132000Y-92549000D01*
X103665000Y-92509000D02*
X98519000Y-92509000D01*
X103668000Y-92469000D02*
X98516000Y-92469000D01*
X103670000Y-92429000D02*
X98514000Y-92429000D01*
X103671000Y-92389000D02*
X98513000Y-92389000D01*
X103672000Y-92349000D02*
X98512000Y-92349000D01*
X103672000Y-92309000D02*
X98512000Y-92309000D01*
X103712000Y-92309000D02*
G75*
G03*
X103712000Y-92309000I-2620000J0D01*
G01*
X108532000Y-89754225D02*
X108032000Y-89754225D01*
X108282000Y-89504225D02*
X108282000Y-90004225D01*
X107091000Y-94910000D02*
X106523000Y-94910000D01*
X107325000Y-94870000D02*
X106289000Y-94870000D01*
X107484000Y-94830000D02*
X106130000Y-94830000D01*
X107612000Y-94790000D02*
X106002000Y-94790000D01*
X107722000Y-94750000D02*
X105892000Y-94750000D01*
X107818000Y-94710000D02*
X105796000Y-94710000D01*
X107905000Y-94670000D02*
X105709000Y-94670000D01*
X107985000Y-94630000D02*
X105629000Y-94630000D01*
X105767000Y-94590000D02*
X105556000Y-94590000D01*
X108058000Y-94590000D02*
X107847000Y-94590000D01*
X105767000Y-94550000D02*
X105488000Y-94550000D01*
X108126000Y-94550000D02*
X107847000Y-94550000D01*
X105767000Y-94510000D02*
X105424000Y-94510000D01*
X108190000Y-94510000D02*
X107847000Y-94510000D01*
X105767000Y-94470000D02*
X105364000Y-94470000D01*
X108250000Y-94470000D02*
X107847000Y-94470000D01*
X105767000Y-94430000D02*
X105307000Y-94430000D01*
X108307000Y-94430000D02*
X107847000Y-94430000D01*
X105767000Y-94390000D02*
X105253000Y-94390000D01*
X108361000Y-94390000D02*
X107847000Y-94390000D01*
X105767000Y-94350000D02*
X105202000Y-94350000D01*
X108412000Y-94350000D02*
X107847000Y-94350000D01*
X105767000Y-94310000D02*
X105154000Y-94310000D01*
X108460000Y-94310000D02*
X107847000Y-94310000D01*
X105767000Y-94270000D02*
X105108000Y-94270000D01*
X108506000Y-94270000D02*
X107847000Y-94270000D01*
X105767000Y-94230000D02*
X105064000Y-94230000D01*
X108550000Y-94230000D02*
X107847000Y-94230000D01*
X105767000Y-94190000D02*
X105022000Y-94190000D01*
X108592000Y-94190000D02*
X107847000Y-94190000D01*
X105767000Y-94150000D02*
X104981000Y-94150000D01*
X108633000Y-94150000D02*
X107847000Y-94150000D01*
X105767000Y-94110000D02*
X104943000Y-94110000D01*
X108671000Y-94110000D02*
X107847000Y-94110000D01*
X105767000Y-94070000D02*
X104906000Y-94070000D01*
X108708000Y-94070000D02*
X107847000Y-94070000D01*
X105767000Y-94030000D02*
X104870000Y-94030000D01*
X108744000Y-94030000D02*
X107847000Y-94030000D01*
X105767000Y-93990000D02*
X104836000Y-93990000D01*
X108778000Y-93990000D02*
X107847000Y-93990000D01*
X105767000Y-93950000D02*
X104803000Y-93950000D01*
X108811000Y-93950000D02*
X107847000Y-93950000D01*
X105767000Y-93910000D02*
X104772000Y-93910000D01*
X108842000Y-93910000D02*
X107847000Y-93910000D01*
X105767000Y-93870000D02*
X104742000Y-93870000D01*
X108872000Y-93870000D02*
X107847000Y-93870000D01*
X105767000Y-93830000D02*
X104712000Y-93830000D01*
X108902000Y-93830000D02*
X107847000Y-93830000D01*
X105767000Y-93790000D02*
X104685000Y-93790000D01*
X108929000Y-93790000D02*
X107847000Y-93790000D01*
X105767000Y-93750000D02*
X104658000Y-93750000D01*
X108956000Y-93750000D02*
X107847000Y-93750000D01*
X105767000Y-93710000D02*
X104632000Y-93710000D01*
X108982000Y-93710000D02*
X107847000Y-93710000D01*
X105767000Y-93670000D02*
X104607000Y-93670000D01*
X109007000Y-93670000D02*
X107847000Y-93670000D01*
X105767000Y-93630000D02*
X104583000Y-93630000D01*
X109031000Y-93630000D02*
X107847000Y-93630000D01*
X105767000Y-93590000D02*
X104560000Y-93590000D01*
X109054000Y-93590000D02*
X107847000Y-93590000D01*
X105767000Y-93550000D02*
X104539000Y-93550000D01*
X109075000Y-93550000D02*
X107847000Y-93550000D01*
X105767000Y-93510000D02*
X104517000Y-93510000D01*
X109097000Y-93510000D02*
X107847000Y-93510000D01*
X105767000Y-93470000D02*
X104497000Y-93470000D01*
X109117000Y-93470000D02*
X107847000Y-93470000D01*
X105767000Y-93430000D02*
X104478000Y-93430000D01*
X109136000Y-93430000D02*
X107847000Y-93430000D01*
X105767000Y-93390000D02*
X104459000Y-93390000D01*
X109155000Y-93390000D02*
X107847000Y-93390000D01*
X105767000Y-93350000D02*
X104442000Y-93350000D01*
X109172000Y-93350000D02*
X107847000Y-93350000D01*
X105767000Y-93310000D02*
X104425000Y-93310000D01*
X109189000Y-93310000D02*
X107847000Y-93310000D01*
X105767000Y-93270000D02*
X104409000Y-93270000D01*
X109205000Y-93270000D02*
X107847000Y-93270000D01*
X105767000Y-93230000D02*
X104393000Y-93230000D01*
X109221000Y-93230000D02*
X107847000Y-93230000D01*
X105767000Y-93190000D02*
X104379000Y-93190000D01*
X109235000Y-93190000D02*
X107847000Y-93190000D01*
X105767000Y-93150000D02*
X104365000Y-93150000D01*
X109249000Y-93150000D02*
X107847000Y-93150000D01*
X105767000Y-93110000D02*
X104352000Y-93110000D01*
X109262000Y-93110000D02*
X107847000Y-93110000D01*
X105767000Y-93070000D02*
X104339000Y-93070000D01*
X109275000Y-93070000D02*
X107847000Y-93070000D01*
X105767000Y-93030000D02*
X104327000Y-93030000D01*
X109287000Y-93030000D02*
X107847000Y-93030000D01*
X105767000Y-92989000D02*
X104316000Y-92989000D01*
X109298000Y-92989000D02*
X107847000Y-92989000D01*
X105767000Y-92949000D02*
X104306000Y-92949000D01*
X109308000Y-92949000D02*
X107847000Y-92949000D01*
X105767000Y-92909000D02*
X104296000Y-92909000D01*
X109318000Y-92909000D02*
X107847000Y-92909000D01*
X105767000Y-92869000D02*
X104287000Y-92869000D01*
X109327000Y-92869000D02*
X107847000Y-92869000D01*
X105767000Y-92829000D02*
X104279000Y-92829000D01*
X109335000Y-92829000D02*
X107847000Y-92829000D01*
X105767000Y-92789000D02*
X104271000Y-92789000D01*
X109343000Y-92789000D02*
X107847000Y-92789000D01*
X105767000Y-92749000D02*
X104264000Y-92749000D01*
X109350000Y-92749000D02*
X107847000Y-92749000D01*
X105767000Y-92709000D02*
X104257000Y-92709000D01*
X109357000Y-92709000D02*
X107847000Y-92709000D01*
X105767000Y-92669000D02*
X104251000Y-92669000D01*
X109363000Y-92669000D02*
X107847000Y-92669000D01*
X105767000Y-92629000D02*
X104246000Y-92629000D01*
X109368000Y-92629000D02*
X107847000Y-92629000D01*
X105767000Y-92589000D02*
X104242000Y-92589000D01*
X109372000Y-92589000D02*
X107847000Y-92589000D01*
X105767000Y-92549000D02*
X104238000Y-92549000D01*
X109376000Y-92549000D02*
X107847000Y-92549000D01*
X109380000Y-92509000D02*
X104234000Y-92509000D01*
X109383000Y-92469000D02*
X104231000Y-92469000D01*
X109385000Y-92429000D02*
X104229000Y-92429000D01*
X109386000Y-92389000D02*
X104228000Y-92389000D01*
X109387000Y-92349000D02*
X104227000Y-92349000D01*
X109387000Y-92309000D02*
X104227000Y-92309000D01*
X109427000Y-92309000D02*
G75*
G03*
X109427000Y-92309000I-2620000J0D01*
G01*
X89372000Y-64456000D02*
X88122000Y-64456000D01*
X89372000Y-74736000D02*
X89372000Y-64456000D01*
X84872000Y-74736000D02*
X89372000Y-74736000D01*
X84872000Y-64456000D02*
X84872000Y-74736000D01*
X86122000Y-64456000D02*
X84872000Y-64456000D01*
X88122000Y-64456000D02*
G75*
G02*
X86122000Y-64456000I-1000000J0D01*
G01*
X99096500Y-66453000D02*
X98766500Y-66453000D01*
X99096500Y-72993000D02*
X99096500Y-66453000D01*
X98766500Y-72993000D02*
X99096500Y-72993000D01*
X96356500Y-66453000D02*
X96686500Y-66453000D01*
X96356500Y-72993000D02*
X96356500Y-66453000D01*
X96686500Y-72993000D02*
X96356500Y-72993000D01*
X105029500Y-78712500D02*
X105185500Y-78712500D01*
X102713500Y-78712500D02*
X102869500Y-78712500D01*
X105029337Y-76111370D02*
G75*
G02*
X105029500Y-78193461I-1079837J-1041130D01*
G01*
X102869663Y-76111370D02*
G75*
G03*
X102869500Y-78193461I1079837J-1041130D01*
G01*
X105028108Y-75480165D02*
G75*
G02*
X105185016Y-78712500I-1078608J-1672335D01*
G01*
X102870892Y-75480165D02*
G75*
G03*
X102713984Y-78712500I1078608J-1672335D01*
G01*
X100394000Y-78712500D02*
X100550000Y-78712500D01*
X98078000Y-78712500D02*
X98234000Y-78712500D01*
X100393837Y-76111370D02*
G75*
G02*
X100394000Y-78193461I-1079837J-1041130D01*
G01*
X98234163Y-76111370D02*
G75*
G03*
X98234000Y-78193461I1079837J-1041130D01*
G01*
X100392608Y-75480165D02*
G75*
G02*
X100549516Y-78712500I-1078608J-1672335D01*
G01*
X98235392Y-75480165D02*
G75*
G03*
X98078484Y-78712500I1078608J-1672335D01*
G01*
X71823000Y-63109000D02*
X71823000Y-58039000D01*
X81593000Y-63109000D02*
X81593000Y-58039000D01*
X81593000Y-58039000D02*
X71823000Y-58039000D01*
X81593000Y-63109000D02*
X71823000Y-63109000D01*
X101350500Y-64252000D02*
X101350500Y-59182000D01*
X111120500Y-64252000D02*
X111120500Y-59182000D01*
X111120500Y-59182000D02*
X101350500Y-59182000D01*
X111120500Y-64252000D02*
X101350500Y-64252000D01*
X94646500Y-63600000D02*
X94646500Y-63270000D01*
X88106500Y-63600000D02*
X94646500Y-63600000D01*
X88106500Y-63270000D02*
X88106500Y-63600000D01*
X94646500Y-60860000D02*
X94646500Y-61190000D01*
X88106500Y-60860000D02*
X94646500Y-60860000D01*
X88106500Y-61190000D02*
X88106500Y-60860000D01*
X96048500Y-66453000D02*
X95718500Y-66453000D01*
X96048500Y-72993000D02*
X96048500Y-66453000D01*
X95718500Y-72993000D02*
X96048500Y-72993000D01*
X93308500Y-66453000D02*
X93638500Y-66453000D01*
X93308500Y-72993000D02*
X93308500Y-66453000D01*
X93638500Y-72993000D02*
X93308500Y-72993000D01*
X87027000Y-83339000D02*
X87027000Y-83669000D01*
X93567000Y-83339000D02*
X87027000Y-83339000D01*
X93567000Y-83669000D02*
X93567000Y-83339000D01*
X87027000Y-86079000D02*
X87027000Y-85749000D01*
X93567000Y-86079000D02*
X87027000Y-86079000D01*
X93567000Y-85749000D02*
X93567000Y-86079000D01*
X95145000Y-55808000D02*
X91545000Y-55808000D01*
X91020816Y-56535205D02*
G75*
G02*
X91545000Y-55808000I2324184J-1122795D01*
G01*
X90988600Y-58756807D02*
G75*
G03*
X93345000Y-60258000I2356400J1098807D01*
G01*
X95701400Y-58756807D02*
G75*
G02*
X93345000Y-60258000I-2356400J1098807D01*
G01*
X95669184Y-56535205D02*
G75*
G03*
X95145000Y-55808000I-2324184J-1122795D01*
G01*
X73854000Y-57337000D02*
X73854000Y-56007000D01*
X75184000Y-57337000D02*
X73854000Y-57337000D01*
X76454000Y-57337000D02*
X76454000Y-54677000D01*
X76454000Y-54677000D02*
X89214000Y-54677000D01*
X76454000Y-57337000D02*
X89214000Y-57337000D01*
X89214000Y-57337000D02*
X89214000Y-54677000D01*
X95758500Y-78712500D02*
X95914500Y-78712500D01*
X93442500Y-78712500D02*
X93598500Y-78712500D01*
X95758337Y-76111370D02*
G75*
G02*
X95758500Y-78193461I-1079837J-1041130D01*
G01*
X93598663Y-76111370D02*
G75*
G03*
X93598500Y-78193461I1079837J-1041130D01*
G01*
X95757108Y-75480165D02*
G75*
G02*
X95914016Y-78712500I-1078608J-1672335D01*
G01*
X93599892Y-75480165D02*
G75*
G03*
X93442984Y-78712500I1078608J-1672335D01*
G01*
D10*
X96766142Y-102242880D02*
X96432809Y-101766690D01*
X96194714Y-102242880D02*
X96194714Y-101242880D01*
X96575666Y-101242880D01*
X96670904Y-101290500D01*
X96718523Y-101338119D01*
X96766142Y-101433357D01*
X96766142Y-101576214D01*
X96718523Y-101671452D01*
X96670904Y-101719071D01*
X96575666Y-101766690D01*
X96194714Y-101766690D01*
X97718523Y-102242880D02*
X97147095Y-102242880D01*
X97432809Y-102242880D02*
X97432809Y-101242880D01*
X97337571Y-101385738D01*
X97242333Y-101480976D01*
X97147095Y-101528595D01*
X98337571Y-101242880D02*
X98432809Y-101242880D01*
X98528047Y-101290500D01*
X98575666Y-101338119D01*
X98623285Y-101433357D01*
X98670904Y-101623833D01*
X98670904Y-101861928D01*
X98623285Y-102052404D01*
X98575666Y-102147642D01*
X98528047Y-102195261D01*
X98432809Y-102242880D01*
X98337571Y-102242880D01*
X98242333Y-102195261D01*
X98194714Y-102147642D01*
X98147095Y-102052404D01*
X98099476Y-101861928D01*
X98099476Y-101623833D01*
X98147095Y-101433357D01*
X98194714Y-101338119D01*
X98242333Y-101290500D01*
X98337571Y-101242880D01*
X94384833Y-96273880D02*
X94051500Y-95797690D01*
X93813404Y-96273880D02*
X93813404Y-95273880D01*
X94194357Y-95273880D01*
X94289595Y-95321500D01*
X94337214Y-95369119D01*
X94384833Y-95464357D01*
X94384833Y-95607214D01*
X94337214Y-95702452D01*
X94289595Y-95750071D01*
X94194357Y-95797690D01*
X93813404Y-95797690D01*
X94861023Y-96273880D02*
X95051500Y-96273880D01*
X95146738Y-96226261D01*
X95194357Y-96178642D01*
X95289595Y-96035785D01*
X95337214Y-95845309D01*
X95337214Y-95464357D01*
X95289595Y-95369119D01*
X95241976Y-95321500D01*
X95146738Y-95273880D01*
X94956261Y-95273880D01*
X94861023Y-95321500D01*
X94813404Y-95369119D01*
X94765785Y-95464357D01*
X94765785Y-95702452D01*
X94813404Y-95797690D01*
X94861023Y-95845309D01*
X94956261Y-95892928D01*
X95146738Y-95892928D01*
X95241976Y-95845309D01*
X95289595Y-95797690D01*
X95337214Y-95702452D01*
X96797833Y-99004380D02*
X96464500Y-98528190D01*
X96226404Y-99004380D02*
X96226404Y-98004380D01*
X96607357Y-98004380D01*
X96702595Y-98052000D01*
X96750214Y-98099619D01*
X96797833Y-98194857D01*
X96797833Y-98337714D01*
X96750214Y-98432952D01*
X96702595Y-98480571D01*
X96607357Y-98528190D01*
X96226404Y-98528190D01*
X97369261Y-98432952D02*
X97274023Y-98385333D01*
X97226404Y-98337714D01*
X97178785Y-98242476D01*
X97178785Y-98194857D01*
X97226404Y-98099619D01*
X97274023Y-98052000D01*
X97369261Y-98004380D01*
X97559738Y-98004380D01*
X97654976Y-98052000D01*
X97702595Y-98099619D01*
X97750214Y-98194857D01*
X97750214Y-98242476D01*
X97702595Y-98337714D01*
X97654976Y-98385333D01*
X97559738Y-98432952D01*
X97369261Y-98432952D01*
X97274023Y-98480571D01*
X97226404Y-98528190D01*
X97178785Y-98623428D01*
X97178785Y-98813904D01*
X97226404Y-98909142D01*
X97274023Y-98956761D01*
X97369261Y-99004380D01*
X97559738Y-99004380D01*
X97654976Y-98956761D01*
X97702595Y-98909142D01*
X97750214Y-98813904D01*
X97750214Y-98623428D01*
X97702595Y-98528190D01*
X97654976Y-98480571D01*
X97559738Y-98432952D01*
X112601476Y-48684380D02*
X112601476Y-49398666D01*
X112553857Y-49541523D01*
X112458619Y-49636761D01*
X112315761Y-49684380D01*
X112220523Y-49684380D01*
X113601476Y-49684380D02*
X113030047Y-49684380D01*
X113315761Y-49684380D02*
X113315761Y-48684380D01*
X113220523Y-48827238D01*
X113125285Y-48922476D01*
X113030047Y-48970095D01*
X114458619Y-48684380D02*
X114268142Y-48684380D01*
X114172904Y-48732000D01*
X114125285Y-48779619D01*
X114030047Y-48922476D01*
X113982428Y-49112952D01*
X113982428Y-49493904D01*
X114030047Y-49589142D01*
X114077666Y-49636761D01*
X114172904Y-49684380D01*
X114363380Y-49684380D01*
X114458619Y-49636761D01*
X114506238Y-49589142D01*
X114553857Y-49493904D01*
X114553857Y-49255809D01*
X114506238Y-49160571D01*
X114458619Y-49112952D01*
X114363380Y-49065333D01*
X114172904Y-49065333D01*
X114077666Y-49112952D01*
X114030047Y-49160571D01*
X113982428Y-49255809D01*
X127174666Y-74191880D02*
X127174666Y-74906166D01*
X127127047Y-75049023D01*
X127031809Y-75144261D01*
X126888952Y-75191880D01*
X126793714Y-75191880D01*
X127555619Y-74191880D02*
X128222285Y-74191880D01*
X127793714Y-75191880D01*
X127174666Y-54526380D02*
X127174666Y-55240666D01*
X127127047Y-55383523D01*
X127031809Y-55478761D01*
X126888952Y-55526380D01*
X126793714Y-55526380D01*
X128079428Y-54526380D02*
X127888952Y-54526380D01*
X127793714Y-54574000D01*
X127746095Y-54621619D01*
X127650857Y-54764476D01*
X127603238Y-54954952D01*
X127603238Y-55335904D01*
X127650857Y-55431142D01*
X127698476Y-55478761D01*
X127793714Y-55526380D01*
X127984190Y-55526380D01*
X128079428Y-55478761D01*
X128127047Y-55431142D01*
X128174666Y-55335904D01*
X128174666Y-55097809D01*
X128127047Y-55002571D01*
X128079428Y-54954952D01*
X127984190Y-54907333D01*
X127793714Y-54907333D01*
X127698476Y-54954952D01*
X127650857Y-55002571D01*
X127603238Y-55097809D01*
X113045976Y-98893380D02*
X113045976Y-99607666D01*
X112998357Y-99750523D01*
X112903119Y-99845761D01*
X112760261Y-99893380D01*
X112665023Y-99893380D01*
X114045976Y-99893380D02*
X113474547Y-99893380D01*
X113760261Y-99893380D02*
X113760261Y-98893380D01*
X113665023Y-99036238D01*
X113569785Y-99131476D01*
X113474547Y-99179095D01*
X114379309Y-98893380D02*
X115045976Y-98893380D01*
X114617404Y-99893380D01*
X109080380Y-54552904D02*
X109080380Y-55124333D01*
X109042285Y-55238619D01*
X108966095Y-55314809D01*
X108851809Y-55352904D01*
X108775619Y-55352904D01*
X109880380Y-55352904D02*
X109423238Y-55352904D01*
X109651809Y-55352904D02*
X109651809Y-54552904D01*
X109575619Y-54667190D01*
X109499428Y-54743380D01*
X109423238Y-54781476D01*
X110375619Y-54552904D02*
X110451809Y-54552904D01*
X110528000Y-54591000D01*
X110566095Y-54629095D01*
X110604190Y-54705285D01*
X110642285Y-54857666D01*
X110642285Y-55048142D01*
X110604190Y-55200523D01*
X110566095Y-55276714D01*
X110528000Y-55314809D01*
X110451809Y-55352904D01*
X110375619Y-55352904D01*
X110299428Y-55314809D01*
X110261333Y-55276714D01*
X110223238Y-55200523D01*
X110185142Y-55048142D01*
X110185142Y-54857666D01*
X110223238Y-54705285D01*
X110261333Y-54629095D01*
X110299428Y-54591000D01*
X110375619Y-54552904D01*
X66540142Y-56078380D02*
X66206809Y-55602190D01*
X65968714Y-56078380D02*
X65968714Y-55078380D01*
X66349666Y-55078380D01*
X66444904Y-55126000D01*
X66492523Y-55173619D01*
X66540142Y-55268857D01*
X66540142Y-55411714D01*
X66492523Y-55506952D01*
X66444904Y-55554571D01*
X66349666Y-55602190D01*
X65968714Y-55602190D01*
X67492523Y-56078380D02*
X66921095Y-56078380D01*
X67206809Y-56078380D02*
X67206809Y-55078380D01*
X67111571Y-55221238D01*
X67016333Y-55316476D01*
X66921095Y-55364095D01*
X68349666Y-55411714D02*
X68349666Y-56078380D01*
X68111571Y-55030761D02*
X67873476Y-55745047D01*
X68492523Y-55745047D01*
X71350142Y-64587357D02*
X71397761Y-64634976D01*
X71445380Y-64777833D01*
X71445380Y-64873071D01*
X71397761Y-65015928D01*
X71302523Y-65111166D01*
X71207285Y-65158785D01*
X71016809Y-65206404D01*
X70873952Y-65206404D01*
X70683476Y-65158785D01*
X70588238Y-65111166D01*
X70493000Y-65015928D01*
X70445380Y-64873071D01*
X70445380Y-64777833D01*
X70493000Y-64634976D01*
X70540619Y-64587357D01*
X71445380Y-63634976D02*
X71445380Y-64206404D01*
X71445380Y-63920690D02*
X70445380Y-63920690D01*
X70588238Y-64015928D01*
X70683476Y-64111166D01*
X70731095Y-64206404D01*
X70445380Y-63301642D02*
X70445380Y-62634976D01*
X71445380Y-63063547D01*
X71286642Y-59761357D02*
X71334261Y-59808976D01*
X71381880Y-59951833D01*
X71381880Y-60047071D01*
X71334261Y-60189928D01*
X71239023Y-60285166D01*
X71143785Y-60332785D01*
X70953309Y-60380404D01*
X70810452Y-60380404D01*
X70619976Y-60332785D01*
X70524738Y-60285166D01*
X70429500Y-60189928D01*
X70381880Y-60047071D01*
X70381880Y-59951833D01*
X70429500Y-59808976D01*
X70477119Y-59761357D01*
X71381880Y-58808976D02*
X71381880Y-59380404D01*
X71381880Y-59094690D02*
X70381880Y-59094690D01*
X70524738Y-59189928D01*
X70619976Y-59285166D01*
X70667595Y-59380404D01*
X70381880Y-57951833D02*
X70381880Y-58142309D01*
X70429500Y-58237547D01*
X70477119Y-58285166D01*
X70619976Y-58380404D01*
X70810452Y-58428023D01*
X71191404Y-58428023D01*
X71286642Y-58380404D01*
X71334261Y-58332785D01*
X71381880Y-58237547D01*
X71381880Y-58047071D01*
X71334261Y-57951833D01*
X71286642Y-57904214D01*
X71191404Y-57856595D01*
X70953309Y-57856595D01*
X70858071Y-57904214D01*
X70810452Y-57951833D01*
X70762833Y-58047071D01*
X70762833Y-58237547D01*
X70810452Y-58332785D01*
X70858071Y-58380404D01*
X70953309Y-58428023D01*
X125483880Y-52014357D02*
X125007690Y-52347690D01*
X125483880Y-52585785D02*
X124483880Y-52585785D01*
X124483880Y-52204833D01*
X124531500Y-52109595D01*
X124579119Y-52061976D01*
X124674357Y-52014357D01*
X124817214Y-52014357D01*
X124912452Y-52061976D01*
X124960071Y-52109595D01*
X125007690Y-52204833D01*
X125007690Y-52585785D01*
X125483880Y-51061976D02*
X125483880Y-51633404D01*
X125483880Y-51347690D02*
X124483880Y-51347690D01*
X124626738Y-51442928D01*
X124721976Y-51538166D01*
X124769595Y-51633404D01*
X124912452Y-50490547D02*
X124864833Y-50585785D01*
X124817214Y-50633404D01*
X124721976Y-50681023D01*
X124674357Y-50681023D01*
X124579119Y-50633404D01*
X124531500Y-50585785D01*
X124483880Y-50490547D01*
X124483880Y-50300071D01*
X124531500Y-50204833D01*
X124579119Y-50157214D01*
X124674357Y-50109595D01*
X124721976Y-50109595D01*
X124817214Y-50157214D01*
X124864833Y-50204833D01*
X124912452Y-50300071D01*
X124912452Y-50490547D01*
X124960071Y-50585785D01*
X125007690Y-50633404D01*
X125102928Y-50681023D01*
X125293404Y-50681023D01*
X125388642Y-50633404D01*
X125436261Y-50585785D01*
X125483880Y-50490547D01*
X125483880Y-50300071D01*
X125436261Y-50204833D01*
X125388642Y-50157214D01*
X125293404Y-50109595D01*
X125102928Y-50109595D01*
X125007690Y-50157214D01*
X124960071Y-50204833D01*
X124912452Y-50300071D01*
X74795142Y-84081880D02*
X74461809Y-83605690D01*
X74223714Y-84081880D02*
X74223714Y-83081880D01*
X74604666Y-83081880D01*
X74699904Y-83129500D01*
X74747523Y-83177119D01*
X74795142Y-83272357D01*
X74795142Y-83415214D01*
X74747523Y-83510452D01*
X74699904Y-83558071D01*
X74604666Y-83605690D01*
X74223714Y-83605690D01*
X75747523Y-84081880D02*
X75176095Y-84081880D01*
X75461809Y-84081880D02*
X75461809Y-83081880D01*
X75366571Y-83224738D01*
X75271333Y-83319976D01*
X75176095Y-83367595D01*
X76080857Y-83081880D02*
X76747523Y-83081880D01*
X76318952Y-84081880D01*
X74096642Y-73032880D02*
X73763309Y-72556690D01*
X73525214Y-73032880D02*
X73525214Y-72032880D01*
X73906166Y-72032880D01*
X74001404Y-72080500D01*
X74049023Y-72128119D01*
X74096642Y-72223357D01*
X74096642Y-72366214D01*
X74049023Y-72461452D01*
X74001404Y-72509071D01*
X73906166Y-72556690D01*
X73525214Y-72556690D01*
X75049023Y-73032880D02*
X74477595Y-73032880D01*
X74763309Y-73032880D02*
X74763309Y-72032880D01*
X74668071Y-72175738D01*
X74572833Y-72270976D01*
X74477595Y-72318595D01*
X75906166Y-72032880D02*
X75715690Y-72032880D01*
X75620452Y-72080500D01*
X75572833Y-72128119D01*
X75477595Y-72270976D01*
X75429976Y-72461452D01*
X75429976Y-72842404D01*
X75477595Y-72937642D01*
X75525214Y-72985261D01*
X75620452Y-73032880D01*
X75810928Y-73032880D01*
X75906166Y-72985261D01*
X75953785Y-72937642D01*
X76001404Y-72842404D01*
X76001404Y-72604309D01*
X75953785Y-72509071D01*
X75906166Y-72461452D01*
X75810928Y-72413833D01*
X75620452Y-72413833D01*
X75525214Y-72461452D01*
X75477595Y-72509071D01*
X75429976Y-72604309D01*
X104743333Y-54552904D02*
X104743333Y-55124333D01*
X104705238Y-55238619D01*
X104629047Y-55314809D01*
X104514761Y-55352904D01*
X104438571Y-55352904D01*
X105124285Y-55352904D02*
X105124285Y-54552904D01*
X105429047Y-54552904D01*
X105505238Y-54591000D01*
X105543333Y-54629095D01*
X105581428Y-54705285D01*
X105581428Y-54819571D01*
X105543333Y-54895761D01*
X105505238Y-54933857D01*
X105429047Y-54971952D01*
X105124285Y-54971952D01*
X106343333Y-55352904D02*
X105886190Y-55352904D01*
X106114761Y-55352904D02*
X106114761Y-54552904D01*
X106038571Y-54667190D01*
X105962380Y-54743380D01*
X105886190Y-54781476D01*
X62095142Y-66778142D02*
X62047523Y-66825761D01*
X61904666Y-66873380D01*
X61809428Y-66873380D01*
X61666571Y-66825761D01*
X61571333Y-66730523D01*
X61523714Y-66635285D01*
X61476095Y-66444809D01*
X61476095Y-66301952D01*
X61523714Y-66111476D01*
X61571333Y-66016238D01*
X61666571Y-65921000D01*
X61809428Y-65873380D01*
X61904666Y-65873380D01*
X62047523Y-65921000D01*
X62095142Y-65968619D01*
X63047523Y-66873380D02*
X62476095Y-66873380D01*
X62761809Y-66873380D02*
X62761809Y-65873380D01*
X62666571Y-66016238D01*
X62571333Y-66111476D01*
X62476095Y-66159095D01*
X63952285Y-65873380D02*
X63476095Y-65873380D01*
X63428476Y-66349571D01*
X63476095Y-66301952D01*
X63571333Y-66254333D01*
X63809428Y-66254333D01*
X63904666Y-66301952D01*
X63952285Y-66349571D01*
X63999904Y-66444809D01*
X63999904Y-66682904D01*
X63952285Y-66778142D01*
X63904666Y-66825761D01*
X63809428Y-66873380D01*
X63571333Y-66873380D01*
X63476095Y-66825761D01*
X63428476Y-66778142D01*
X100893642Y-64968380D02*
X100560309Y-64492190D01*
X100322214Y-64968380D02*
X100322214Y-63968380D01*
X100703166Y-63968380D01*
X100798404Y-64016000D01*
X100846023Y-64063619D01*
X100893642Y-64158857D01*
X100893642Y-64301714D01*
X100846023Y-64396952D01*
X100798404Y-64444571D01*
X100703166Y-64492190D01*
X100322214Y-64492190D01*
X101846023Y-64968380D02*
X101274595Y-64968380D01*
X101560309Y-64968380D02*
X101560309Y-63968380D01*
X101465071Y-64111238D01*
X101369833Y-64206476D01*
X101274595Y-64254095D01*
X102750785Y-63968380D02*
X102274595Y-63968380D01*
X102226976Y-64444571D01*
X102274595Y-64396952D01*
X102369833Y-64349333D01*
X102607928Y-64349333D01*
X102703166Y-64396952D01*
X102750785Y-64444571D01*
X102798404Y-64539809D01*
X102798404Y-64777904D01*
X102750785Y-64873142D01*
X102703166Y-64920761D01*
X102607928Y-64968380D01*
X102369833Y-64968380D01*
X102274595Y-64920761D01*
X102226976Y-64873142D01*
X117721142Y-60015380D02*
X117387809Y-59539190D01*
X117149714Y-60015380D02*
X117149714Y-59015380D01*
X117530666Y-59015380D01*
X117625904Y-59063000D01*
X117673523Y-59110619D01*
X117721142Y-59205857D01*
X117721142Y-59348714D01*
X117673523Y-59443952D01*
X117625904Y-59491571D01*
X117530666Y-59539190D01*
X117149714Y-59539190D01*
X118673523Y-60015380D02*
X118102095Y-60015380D01*
X118387809Y-60015380D02*
X118387809Y-59015380D01*
X118292571Y-59158238D01*
X118197333Y-59253476D01*
X118102095Y-59301095D01*
X119625904Y-60015380D02*
X119054476Y-60015380D01*
X119340190Y-60015380D02*
X119340190Y-59015380D01*
X119244952Y-59158238D01*
X119149714Y-59253476D01*
X119054476Y-59301095D01*
X117530642Y-53855880D02*
X117197309Y-53379690D01*
X116959214Y-53855880D02*
X116959214Y-52855880D01*
X117340166Y-52855880D01*
X117435404Y-52903500D01*
X117483023Y-52951119D01*
X117530642Y-53046357D01*
X117530642Y-53189214D01*
X117483023Y-53284452D01*
X117435404Y-53332071D01*
X117340166Y-53379690D01*
X116959214Y-53379690D01*
X118483023Y-53855880D02*
X117911595Y-53855880D01*
X118197309Y-53855880D02*
X118197309Y-52855880D01*
X118102071Y-52998738D01*
X118006833Y-53093976D01*
X117911595Y-53141595D01*
X118863976Y-52951119D02*
X118911595Y-52903500D01*
X119006833Y-52855880D01*
X119244928Y-52855880D01*
X119340166Y-52903500D01*
X119387785Y-52951119D01*
X119435404Y-53046357D01*
X119435404Y-53141595D01*
X119387785Y-53284452D01*
X118816357Y-53855880D01*
X119435404Y-53855880D01*
X109370904Y-67254380D02*
X109370904Y-66254380D01*
X109609000Y-66254380D01*
X109751857Y-66302000D01*
X109847095Y-66397238D01*
X109894714Y-66492476D01*
X109942333Y-66682952D01*
X109942333Y-66825809D01*
X109894714Y-67016285D01*
X109847095Y-67111523D01*
X109751857Y-67206761D01*
X109609000Y-67254380D01*
X109370904Y-67254380D01*
X110799476Y-66587714D02*
X110799476Y-67254380D01*
X110561380Y-66206761D02*
X110323285Y-66921047D01*
X110942333Y-66921047D01*
X106910166Y-74025095D02*
X106910166Y-73548904D01*
X107195880Y-74120333D02*
X106195880Y-73787000D01*
X107195880Y-73453666D01*
X62658666Y-74890380D02*
X62658666Y-75604666D01*
X62611047Y-75747523D01*
X62515809Y-75842761D01*
X62372952Y-75890380D01*
X62277714Y-75890380D01*
X63182476Y-75890380D02*
X63372952Y-75890380D01*
X63468190Y-75842761D01*
X63515809Y-75795142D01*
X63611047Y-75652285D01*
X63658666Y-75461809D01*
X63658666Y-75080857D01*
X63611047Y-74985619D01*
X63563428Y-74938000D01*
X63468190Y-74890380D01*
X63277714Y-74890380D01*
X63182476Y-74938000D01*
X63134857Y-74985619D01*
X63087238Y-75080857D01*
X63087238Y-75318952D01*
X63134857Y-75414190D01*
X63182476Y-75461809D01*
X63277714Y-75509428D01*
X63468190Y-75509428D01*
X63563428Y-75461809D01*
X63611047Y-75414190D01*
X63658666Y-75318952D01*
X112696666Y-67587880D02*
X112696666Y-68302166D01*
X112649047Y-68445023D01*
X112553809Y-68540261D01*
X112410952Y-68587880D01*
X112315714Y-68587880D01*
X113601428Y-67921214D02*
X113601428Y-68587880D01*
X113363333Y-67540261D02*
X113125238Y-68254547D01*
X113744285Y-68254547D01*
X113617476Y-54570380D02*
X113617476Y-55284666D01*
X113569857Y-55427523D01*
X113474619Y-55522761D01*
X113331761Y-55570380D01*
X113236523Y-55570380D01*
X114617476Y-55570380D02*
X114046047Y-55570380D01*
X114331761Y-55570380D02*
X114331761Y-54570380D01*
X114236523Y-54713238D01*
X114141285Y-54808476D01*
X114046047Y-54856095D01*
X115474619Y-54903714D02*
X115474619Y-55570380D01*
X115236523Y-54522761D02*
X114998428Y-55237047D01*
X115617476Y-55237047D01*
X64008095Y-73366380D02*
X64008095Y-74175904D01*
X64055714Y-74271142D01*
X64103333Y-74318761D01*
X64198571Y-74366380D01*
X64389047Y-74366380D01*
X64484285Y-74318761D01*
X64531904Y-74271142D01*
X64579523Y-74175904D01*
X64579523Y-73366380D01*
X65484285Y-73699714D02*
X65484285Y-74366380D01*
X65246190Y-73318761D02*
X65008095Y-74033047D01*
X65627142Y-74033047D01*
X61833166Y-95781880D02*
X61833166Y-96496166D01*
X61785547Y-96639023D01*
X61690309Y-96734261D01*
X61547452Y-96781880D01*
X61452214Y-96781880D01*
X62785547Y-95781880D02*
X62309357Y-95781880D01*
X62261738Y-96258071D01*
X62309357Y-96210452D01*
X62404595Y-96162833D01*
X62642690Y-96162833D01*
X62737928Y-96210452D01*
X62785547Y-96258071D01*
X62833166Y-96353309D01*
X62833166Y-96591404D01*
X62785547Y-96686642D01*
X62737928Y-96734261D01*
X62642690Y-96781880D01*
X62404595Y-96781880D01*
X62309357Y-96734261D01*
X62261738Y-96686642D01*
X78549595Y-89114380D02*
X78549595Y-89923904D01*
X78597214Y-90019142D01*
X78644833Y-90066761D01*
X78740071Y-90114380D01*
X78930547Y-90114380D01*
X79025785Y-90066761D01*
X79073404Y-90019142D01*
X79121023Y-89923904D01*
X79121023Y-89114380D01*
X80073404Y-89114380D02*
X79597214Y-89114380D01*
X79549595Y-89590571D01*
X79597214Y-89542952D01*
X79692452Y-89495333D01*
X79930547Y-89495333D01*
X80025785Y-89542952D01*
X80073404Y-89590571D01*
X80121023Y-89685809D01*
X80121023Y-89923904D01*
X80073404Y-90019142D01*
X80025785Y-90066761D01*
X79930547Y-90114380D01*
X79692452Y-90114380D01*
X79597214Y-90066761D01*
X79549595Y-90019142D01*
X57062761Y-65476380D02*
X56729428Y-65000190D01*
X56491333Y-65476380D02*
X56491333Y-64476380D01*
X56872285Y-64476380D01*
X56967523Y-64524000D01*
X57015142Y-64571619D01*
X57062761Y-64666857D01*
X57062761Y-64809714D01*
X57015142Y-64904952D01*
X56967523Y-64952571D01*
X56872285Y-65000190D01*
X56491333Y-65000190D01*
X57348476Y-64476380D02*
X57681809Y-65476380D01*
X58015142Y-64476380D01*
X58777047Y-64476380D02*
X58586571Y-64476380D01*
X58491333Y-64524000D01*
X58443714Y-64571619D01*
X58348476Y-64714476D01*
X58300857Y-64904952D01*
X58300857Y-65285904D01*
X58348476Y-65381142D01*
X58396095Y-65428761D01*
X58491333Y-65476380D01*
X58681809Y-65476380D01*
X58777047Y-65428761D01*
X58824666Y-65381142D01*
X58872285Y-65285904D01*
X58872285Y-65047809D01*
X58824666Y-64952571D01*
X58777047Y-64904952D01*
X58681809Y-64857333D01*
X58491333Y-64857333D01*
X58396095Y-64904952D01*
X58348476Y-64952571D01*
X58300857Y-65047809D01*
X61761761Y-65603380D02*
X61428428Y-65127190D01*
X61190333Y-65603380D02*
X61190333Y-64603380D01*
X61571285Y-64603380D01*
X61666523Y-64651000D01*
X61714142Y-64698619D01*
X61761761Y-64793857D01*
X61761761Y-64936714D01*
X61714142Y-65031952D01*
X61666523Y-65079571D01*
X61571285Y-65127190D01*
X61190333Y-65127190D01*
X62047476Y-64603380D02*
X62380809Y-65603380D01*
X62714142Y-64603380D01*
X63476047Y-64936714D02*
X63476047Y-65603380D01*
X63237952Y-64555761D02*
X62999857Y-65270047D01*
X63618904Y-65270047D01*
X72644095Y-89622380D02*
X72644095Y-90431904D01*
X72691714Y-90527142D01*
X72739333Y-90574761D01*
X72834571Y-90622380D01*
X73025047Y-90622380D01*
X73120285Y-90574761D01*
X73167904Y-90527142D01*
X73215523Y-90431904D01*
X73215523Y-89622380D01*
X73834571Y-90050952D02*
X73739333Y-90003333D01*
X73691714Y-89955714D01*
X73644095Y-89860476D01*
X73644095Y-89812857D01*
X73691714Y-89717619D01*
X73739333Y-89670000D01*
X73834571Y-89622380D01*
X74025047Y-89622380D01*
X74120285Y-89670000D01*
X74167904Y-89717619D01*
X74215523Y-89812857D01*
X74215523Y-89860476D01*
X74167904Y-89955714D01*
X74120285Y-90003333D01*
X74025047Y-90050952D01*
X73834571Y-90050952D01*
X73739333Y-90098571D01*
X73691714Y-90146190D01*
X73644095Y-90241428D01*
X73644095Y-90431904D01*
X73691714Y-90527142D01*
X73739333Y-90574761D01*
X73834571Y-90622380D01*
X74025047Y-90622380D01*
X74120285Y-90574761D01*
X74167904Y-90527142D01*
X74215523Y-90431904D01*
X74215523Y-90241428D01*
X74167904Y-90146190D01*
X74120285Y-90098571D01*
X74025047Y-90050952D01*
X65809833Y-72397880D02*
X65476500Y-71921690D01*
X65238404Y-72397880D02*
X65238404Y-71397880D01*
X65619357Y-71397880D01*
X65714595Y-71445500D01*
X65762214Y-71493119D01*
X65809833Y-71588357D01*
X65809833Y-71731214D01*
X65762214Y-71826452D01*
X65714595Y-71874071D01*
X65619357Y-71921690D01*
X65238404Y-71921690D01*
X66190785Y-71493119D02*
X66238404Y-71445500D01*
X66333642Y-71397880D01*
X66571738Y-71397880D01*
X66666976Y-71445500D01*
X66714595Y-71493119D01*
X66762214Y-71588357D01*
X66762214Y-71683595D01*
X66714595Y-71826452D01*
X66143166Y-72397880D01*
X66762214Y-72397880D01*
X65492333Y-66936880D02*
X65159000Y-66460690D01*
X64920904Y-66936880D02*
X64920904Y-65936880D01*
X65301857Y-65936880D01*
X65397095Y-65984500D01*
X65444714Y-66032119D01*
X65492333Y-66127357D01*
X65492333Y-66270214D01*
X65444714Y-66365452D01*
X65397095Y-66413071D01*
X65301857Y-66460690D01*
X64920904Y-66460690D01*
X66444714Y-66936880D02*
X65873285Y-66936880D01*
X66159000Y-66936880D02*
X66159000Y-65936880D01*
X66063761Y-66079738D01*
X65968523Y-66174976D01*
X65873285Y-66222595D01*
X63833476Y-94702380D02*
X63833476Y-95416666D01*
X63785857Y-95559523D01*
X63690619Y-95654761D01*
X63547761Y-95702380D01*
X63452523Y-95702380D01*
X64833476Y-95702380D02*
X64262047Y-95702380D01*
X64547761Y-95702380D02*
X64547761Y-94702380D01*
X64452523Y-94845238D01*
X64357285Y-94940476D01*
X64262047Y-94988095D01*
X65738238Y-94702380D02*
X65262047Y-94702380D01*
X65214428Y-95178571D01*
X65262047Y-95130952D01*
X65357285Y-95083333D01*
X65595380Y-95083333D01*
X65690619Y-95130952D01*
X65738238Y-95178571D01*
X65785857Y-95273809D01*
X65785857Y-95511904D01*
X65738238Y-95607142D01*
X65690619Y-95654761D01*
X65595380Y-95702380D01*
X65357285Y-95702380D01*
X65262047Y-95654761D01*
X65214428Y-95607142D01*
X76255642Y-94908642D02*
X76208023Y-94956261D01*
X76065166Y-95003880D01*
X75969928Y-95003880D01*
X75827071Y-94956261D01*
X75731833Y-94861023D01*
X75684214Y-94765785D01*
X75636595Y-94575309D01*
X75636595Y-94432452D01*
X75684214Y-94241976D01*
X75731833Y-94146738D01*
X75827071Y-94051500D01*
X75969928Y-94003880D01*
X76065166Y-94003880D01*
X76208023Y-94051500D01*
X76255642Y-94099119D01*
X77208023Y-95003880D02*
X76636595Y-95003880D01*
X76922309Y-95003880D02*
X76922309Y-94003880D01*
X76827071Y-94146738D01*
X76731833Y-94241976D01*
X76636595Y-94289595D01*
X78065166Y-94337214D02*
X78065166Y-95003880D01*
X77827071Y-93956261D02*
X77588976Y-94670547D01*
X78208023Y-94670547D01*
X90606642Y-76430142D02*
X90559023Y-76477761D01*
X90416166Y-76525380D01*
X90320928Y-76525380D01*
X90178071Y-76477761D01*
X90082833Y-76382523D01*
X90035214Y-76287285D01*
X89987595Y-76096809D01*
X89987595Y-75953952D01*
X90035214Y-75763476D01*
X90082833Y-75668238D01*
X90178071Y-75573000D01*
X90320928Y-75525380D01*
X90416166Y-75525380D01*
X90559023Y-75573000D01*
X90606642Y-75620619D01*
X91559023Y-76525380D02*
X90987595Y-76525380D01*
X91273309Y-76525380D02*
X91273309Y-75525380D01*
X91178071Y-75668238D01*
X91082833Y-75763476D01*
X90987595Y-75811095D01*
X91892357Y-75525380D02*
X92511404Y-75525380D01*
X92178071Y-75906333D01*
X92320928Y-75906333D01*
X92416166Y-75953952D01*
X92463785Y-76001571D01*
X92511404Y-76096809D01*
X92511404Y-76334904D01*
X92463785Y-76430142D01*
X92416166Y-76477761D01*
X92320928Y-76525380D01*
X92035214Y-76525380D01*
X91939976Y-76477761D01*
X91892357Y-76430142D01*
X77716142Y-97829642D02*
X77668523Y-97877261D01*
X77525666Y-97924880D01*
X77430428Y-97924880D01*
X77287571Y-97877261D01*
X77192333Y-97782023D01*
X77144714Y-97686785D01*
X77097095Y-97496309D01*
X77097095Y-97353452D01*
X77144714Y-97162976D01*
X77192333Y-97067738D01*
X77287571Y-96972500D01*
X77430428Y-96924880D01*
X77525666Y-96924880D01*
X77668523Y-96972500D01*
X77716142Y-97020119D01*
X78668523Y-97924880D02*
X78097095Y-97924880D01*
X78382809Y-97924880D02*
X78382809Y-96924880D01*
X78287571Y-97067738D01*
X78192333Y-97162976D01*
X78097095Y-97210595D01*
X79049476Y-97020119D02*
X79097095Y-96972500D01*
X79192333Y-96924880D01*
X79430428Y-96924880D01*
X79525666Y-96972500D01*
X79573285Y-97020119D01*
X79620904Y-97115357D01*
X79620904Y-97210595D01*
X79573285Y-97353452D01*
X79001857Y-97924880D01*
X79620904Y-97924880D01*
X80319642Y-83605642D02*
X80272023Y-83653261D01*
X80129166Y-83700880D01*
X80033928Y-83700880D01*
X79891071Y-83653261D01*
X79795833Y-83558023D01*
X79748214Y-83462785D01*
X79700595Y-83272309D01*
X79700595Y-83129452D01*
X79748214Y-82938976D01*
X79795833Y-82843738D01*
X79891071Y-82748500D01*
X80033928Y-82700880D01*
X80129166Y-82700880D01*
X80272023Y-82748500D01*
X80319642Y-82796119D01*
X81272023Y-83700880D02*
X80700595Y-83700880D01*
X80986309Y-83700880D02*
X80986309Y-82700880D01*
X80891071Y-82843738D01*
X80795833Y-82938976D01*
X80700595Y-82986595D01*
X82224404Y-83700880D02*
X81652976Y-83700880D01*
X81938690Y-83700880D02*
X81938690Y-82700880D01*
X81843452Y-82843738D01*
X81748214Y-82938976D01*
X81652976Y-82986595D01*
X83367642Y-83605642D02*
X83320023Y-83653261D01*
X83177166Y-83700880D01*
X83081928Y-83700880D01*
X82939071Y-83653261D01*
X82843833Y-83558023D01*
X82796214Y-83462785D01*
X82748595Y-83272309D01*
X82748595Y-83129452D01*
X82796214Y-82938976D01*
X82843833Y-82843738D01*
X82939071Y-82748500D01*
X83081928Y-82700880D01*
X83177166Y-82700880D01*
X83320023Y-82748500D01*
X83367642Y-82796119D01*
X84320023Y-83700880D02*
X83748595Y-83700880D01*
X84034309Y-83700880D02*
X84034309Y-82700880D01*
X83939071Y-82843738D01*
X83843833Y-82938976D01*
X83748595Y-82986595D01*
X84939071Y-82700880D02*
X85034309Y-82700880D01*
X85129547Y-82748500D01*
X85177166Y-82796119D01*
X85224785Y-82891357D01*
X85272404Y-83081833D01*
X85272404Y-83319928D01*
X85224785Y-83510404D01*
X85177166Y-83605642D01*
X85129547Y-83653261D01*
X85034309Y-83700880D01*
X84939071Y-83700880D01*
X84843833Y-83653261D01*
X84796214Y-83605642D01*
X84748595Y-83510404D01*
X84700976Y-83319928D01*
X84700976Y-83081833D01*
X84748595Y-82891357D01*
X84796214Y-82796119D01*
X84843833Y-82748500D01*
X84939071Y-82700880D01*
X46569380Y-54149523D02*
X47283666Y-54149523D01*
X47426523Y-54197142D01*
X47521761Y-54292380D01*
X47569380Y-54435238D01*
X47569380Y-54530476D01*
X47569380Y-53149523D02*
X47569380Y-53720952D01*
X47569380Y-53435238D02*
X46569380Y-53435238D01*
X46712238Y-53530476D01*
X46807476Y-53625714D01*
X46855095Y-53720952D01*
X46664619Y-52768571D02*
X46617000Y-52720952D01*
X46569380Y-52625714D01*
X46569380Y-52387619D01*
X46617000Y-52292380D01*
X46664619Y-52244761D01*
X46759857Y-52197142D01*
X46855095Y-52197142D01*
X46997952Y-52244761D01*
X47569380Y-52816190D01*
X47569380Y-52197142D01*
X86987142Y-81160880D02*
X86653809Y-80684690D01*
X86415714Y-81160880D02*
X86415714Y-80160880D01*
X86796666Y-80160880D01*
X86891904Y-80208500D01*
X86939523Y-80256119D01*
X86987142Y-80351357D01*
X86987142Y-80494214D01*
X86939523Y-80589452D01*
X86891904Y-80637071D01*
X86796666Y-80684690D01*
X86415714Y-80684690D01*
X87939523Y-81160880D02*
X87368095Y-81160880D01*
X87653809Y-81160880D02*
X87653809Y-80160880D01*
X87558571Y-80303738D01*
X87463333Y-80398976D01*
X87368095Y-80446595D01*
X88272857Y-80160880D02*
X88891904Y-80160880D01*
X88558571Y-80541833D01*
X88701428Y-80541833D01*
X88796666Y-80589452D01*
X88844285Y-80637071D01*
X88891904Y-80732309D01*
X88891904Y-80970404D01*
X88844285Y-81065642D01*
X88796666Y-81113261D01*
X88701428Y-81160880D01*
X88415714Y-81160880D01*
X88320476Y-81113261D01*
X88272857Y-81065642D01*
X117808476Y-102322380D02*
X117808476Y-103036666D01*
X117760857Y-103179523D01*
X117665619Y-103274761D01*
X117522761Y-103322380D01*
X117427523Y-103322380D01*
X118808476Y-103322380D02*
X118237047Y-103322380D01*
X118522761Y-103322380D02*
X118522761Y-102322380D01*
X118427523Y-102465238D01*
X118332285Y-102560476D01*
X118237047Y-102608095D01*
X119141809Y-102322380D02*
X119760857Y-102322380D01*
X119427523Y-102703333D01*
X119570380Y-102703333D01*
X119665619Y-102750952D01*
X119713238Y-102798571D01*
X119760857Y-102893809D01*
X119760857Y-103131904D01*
X119713238Y-103227142D01*
X119665619Y-103274761D01*
X119570380Y-103322380D01*
X119284666Y-103322380D01*
X119189428Y-103274761D01*
X119141809Y-103227142D01*
X116951166Y-65746380D02*
X116951166Y-66460666D01*
X116903547Y-66603523D01*
X116808309Y-66698761D01*
X116665452Y-66746380D01*
X116570214Y-66746380D01*
X117570214Y-66174952D02*
X117474976Y-66127333D01*
X117427357Y-66079714D01*
X117379738Y-65984476D01*
X117379738Y-65936857D01*
X117427357Y-65841619D01*
X117474976Y-65794000D01*
X117570214Y-65746380D01*
X117760690Y-65746380D01*
X117855928Y-65794000D01*
X117903547Y-65841619D01*
X117951166Y-65936857D01*
X117951166Y-65984476D01*
X117903547Y-66079714D01*
X117855928Y-66127333D01*
X117760690Y-66174952D01*
X117570214Y-66174952D01*
X117474976Y-66222571D01*
X117427357Y-66270190D01*
X117379738Y-66365428D01*
X117379738Y-66555904D01*
X117427357Y-66651142D01*
X117474976Y-66698761D01*
X117570214Y-66746380D01*
X117760690Y-66746380D01*
X117855928Y-66698761D01*
X117903547Y-66651142D01*
X117951166Y-66555904D01*
X117951166Y-66365428D01*
X117903547Y-66270190D01*
X117855928Y-66222571D01*
X117760690Y-66174952D01*
X85367833Y-63412642D02*
X85320214Y-63460261D01*
X85177357Y-63507880D01*
X85082119Y-63507880D01*
X84939261Y-63460261D01*
X84844023Y-63365023D01*
X84796404Y-63269785D01*
X84748785Y-63079309D01*
X84748785Y-62936452D01*
X84796404Y-62745976D01*
X84844023Y-62650738D01*
X84939261Y-62555500D01*
X85082119Y-62507880D01*
X85177357Y-62507880D01*
X85320214Y-62555500D01*
X85367833Y-62603119D01*
X85844023Y-63507880D02*
X86034500Y-63507880D01*
X86129738Y-63460261D01*
X86177357Y-63412642D01*
X86272595Y-63269785D01*
X86320214Y-63079309D01*
X86320214Y-62698357D01*
X86272595Y-62603119D01*
X86224976Y-62555500D01*
X86129738Y-62507880D01*
X85939261Y-62507880D01*
X85844023Y-62555500D01*
X85796404Y-62603119D01*
X85748785Y-62698357D01*
X85748785Y-62936452D01*
X85796404Y-63031690D01*
X85844023Y-63079309D01*
X85939261Y-63126928D01*
X86129738Y-63126928D01*
X86224976Y-63079309D01*
X86272595Y-63031690D01*
X86320214Y-62936452D01*
X100290333Y-59793142D02*
X100242714Y-59840761D01*
X100099857Y-59888380D01*
X100004619Y-59888380D01*
X99861761Y-59840761D01*
X99766523Y-59745523D01*
X99718904Y-59650285D01*
X99671285Y-59459809D01*
X99671285Y-59316952D01*
X99718904Y-59126476D01*
X99766523Y-59031238D01*
X99861761Y-58936000D01*
X100004619Y-58888380D01*
X100099857Y-58888380D01*
X100242714Y-58936000D01*
X100290333Y-58983619D01*
X100861761Y-59316952D02*
X100766523Y-59269333D01*
X100718904Y-59221714D01*
X100671285Y-59126476D01*
X100671285Y-59078857D01*
X100718904Y-58983619D01*
X100766523Y-58936000D01*
X100861761Y-58888380D01*
X101052238Y-58888380D01*
X101147476Y-58936000D01*
X101195095Y-58983619D01*
X101242714Y-59078857D01*
X101242714Y-59126476D01*
X101195095Y-59221714D01*
X101147476Y-59269333D01*
X101052238Y-59316952D01*
X100861761Y-59316952D01*
X100766523Y-59364571D01*
X100718904Y-59412190D01*
X100671285Y-59507428D01*
X100671285Y-59697904D01*
X100718904Y-59793142D01*
X100766523Y-59840761D01*
X100861761Y-59888380D01*
X101052238Y-59888380D01*
X101147476Y-59840761D01*
X101195095Y-59793142D01*
X101242714Y-59697904D01*
X101242714Y-59507428D01*
X101195095Y-59412190D01*
X101147476Y-59364571D01*
X101052238Y-59316952D01*
X97885333Y-54666104D02*
X97885333Y-55237533D01*
X97847238Y-55351819D01*
X97771047Y-55428009D01*
X97656761Y-55466104D01*
X97580571Y-55466104D01*
X98266285Y-55466104D02*
X98266285Y-54666104D01*
X98571047Y-54666104D01*
X98647238Y-54704200D01*
X98685333Y-54742295D01*
X98723428Y-54818485D01*
X98723428Y-54932771D01*
X98685333Y-55008961D01*
X98647238Y-55047057D01*
X98571047Y-55085152D01*
X98266285Y-55085152D01*
X99028190Y-54742295D02*
X99066285Y-54704200D01*
X99142476Y-54666104D01*
X99332952Y-54666104D01*
X99409142Y-54704200D01*
X99447238Y-54742295D01*
X99485333Y-54818485D01*
X99485333Y-54894676D01*
X99447238Y-55008961D01*
X98990095Y-55466104D01*
X99485333Y-55466104D01*
X105687833Y-65603380D02*
X105354500Y-65127190D01*
X105116404Y-65603380D02*
X105116404Y-64603380D01*
X105497357Y-64603380D01*
X105592595Y-64651000D01*
X105640214Y-64698619D01*
X105687833Y-64793857D01*
X105687833Y-64936714D01*
X105640214Y-65031952D01*
X105592595Y-65079571D01*
X105497357Y-65127190D01*
X105116404Y-65127190D01*
X106021166Y-64603380D02*
X106687833Y-64603380D01*
X106259261Y-65603380D01*
X98012261Y-84240619D02*
X97917023Y-84193000D01*
X97821785Y-84097761D01*
X97678928Y-83954904D01*
X97583690Y-83907285D01*
X97488452Y-83907285D01*
X97536071Y-84145380D02*
X97440833Y-84097761D01*
X97345595Y-84002523D01*
X97297976Y-83812047D01*
X97297976Y-83478714D01*
X97345595Y-83288238D01*
X97440833Y-83193000D01*
X97536071Y-83145380D01*
X97726547Y-83145380D01*
X97821785Y-83193000D01*
X97917023Y-83288238D01*
X97964642Y-83478714D01*
X97964642Y-83812047D01*
X97917023Y-84002523D01*
X97821785Y-84097761D01*
X97726547Y-84145380D01*
X97536071Y-84145380D01*
X98345595Y-83240619D02*
X98393214Y-83193000D01*
X98488452Y-83145380D01*
X98726547Y-83145380D01*
X98821785Y-83193000D01*
X98869404Y-83240619D01*
X98917023Y-83335857D01*
X98917023Y-83431095D01*
X98869404Y-83573952D01*
X98297976Y-84145380D01*
X98917023Y-84145380D01*
X92987833Y-90908142D02*
X92940214Y-90955761D01*
X92797357Y-91003380D01*
X92702119Y-91003380D01*
X92559261Y-90955761D01*
X92464023Y-90860523D01*
X92416404Y-90765285D01*
X92368785Y-90574809D01*
X92368785Y-90431952D01*
X92416404Y-90241476D01*
X92464023Y-90146238D01*
X92559261Y-90051000D01*
X92702119Y-90003380D01*
X92797357Y-90003380D01*
X92940214Y-90051000D01*
X92987833Y-90098619D01*
X93321166Y-90003380D02*
X93987833Y-90003380D01*
X93559261Y-91003380D01*
X102222380Y-54552904D02*
X102222380Y-55124333D01*
X102184285Y-55238619D01*
X102108095Y-55314809D01*
X101993809Y-55352904D01*
X101917619Y-55352904D01*
X103022380Y-55352904D02*
X102565238Y-55352904D01*
X102793809Y-55352904D02*
X102793809Y-54552904D01*
X102717619Y-54667190D01*
X102641428Y-54743380D01*
X102565238Y-54781476D01*
X103784285Y-55352904D02*
X103327142Y-55352904D01*
X103555714Y-55352904D02*
X103555714Y-54552904D01*
X103479523Y-54667190D01*
X103403333Y-54743380D01*
X103327142Y-54781476D01*
X108950166Y-69238880D02*
X108950166Y-69953166D01*
X108902547Y-70096023D01*
X108807309Y-70191261D01*
X108664452Y-70238880D01*
X108569214Y-70238880D01*
X109331119Y-69238880D02*
X109950166Y-69238880D01*
X109616833Y-69619833D01*
X109759690Y-69619833D01*
X109854928Y-69667452D01*
X109902547Y-69715071D01*
X109950166Y-69810309D01*
X109950166Y-70048404D01*
X109902547Y-70143642D01*
X109854928Y-70191261D01*
X109759690Y-70238880D01*
X109473976Y-70238880D01*
X109378738Y-70191261D01*
X109331119Y-70143642D01*
X106489595Y-85748880D02*
X106489595Y-86558404D01*
X106537214Y-86653642D01*
X106584833Y-86701261D01*
X106680071Y-86748880D01*
X106870547Y-86748880D01*
X106965785Y-86701261D01*
X107013404Y-86653642D01*
X107061023Y-86558404D01*
X107061023Y-85748880D01*
X107441976Y-85748880D02*
X108061023Y-85748880D01*
X107727690Y-86129833D01*
X107870547Y-86129833D01*
X107965785Y-86177452D01*
X108013404Y-86225071D01*
X108061023Y-86320309D01*
X108061023Y-86558404D01*
X108013404Y-86653642D01*
X107965785Y-86701261D01*
X107870547Y-86748880D01*
X107584833Y-86748880D01*
X107489595Y-86701261D01*
X107441976Y-86653642D01*
X83629595Y-96924880D02*
X83629595Y-97734404D01*
X83677214Y-97829642D01*
X83724833Y-97877261D01*
X83820071Y-97924880D01*
X84010547Y-97924880D01*
X84105785Y-97877261D01*
X84153404Y-97829642D01*
X84201023Y-97734404D01*
X84201023Y-96924880D01*
X84629595Y-97020119D02*
X84677214Y-96972500D01*
X84772452Y-96924880D01*
X85010547Y-96924880D01*
X85105785Y-96972500D01*
X85153404Y-97020119D01*
X85201023Y-97115357D01*
X85201023Y-97210595D01*
X85153404Y-97353452D01*
X84581976Y-97924880D01*
X85201023Y-97924880D01*
X74271261Y-65349380D02*
X73937928Y-64873190D01*
X73699833Y-65349380D02*
X73699833Y-64349380D01*
X74080785Y-64349380D01*
X74176023Y-64397000D01*
X74223642Y-64444619D01*
X74271261Y-64539857D01*
X74271261Y-64682714D01*
X74223642Y-64777952D01*
X74176023Y-64825571D01*
X74080785Y-64873190D01*
X73699833Y-64873190D01*
X74556976Y-64349380D02*
X74890309Y-65349380D01*
X75223642Y-64349380D01*
X75461738Y-64349380D02*
X76080785Y-64349380D01*
X75747452Y-64730333D01*
X75890309Y-64730333D01*
X75985547Y-64777952D01*
X76033166Y-64825571D01*
X76080785Y-64920809D01*
X76080785Y-65158904D01*
X76033166Y-65254142D01*
X75985547Y-65301761D01*
X75890309Y-65349380D01*
X75604595Y-65349380D01*
X75509357Y-65301761D01*
X75461738Y-65254142D01*
X80160833Y-85574142D02*
X80113214Y-85621761D01*
X79970357Y-85669380D01*
X79875119Y-85669380D01*
X79732261Y-85621761D01*
X79637023Y-85526523D01*
X79589404Y-85431285D01*
X79541785Y-85240809D01*
X79541785Y-85097952D01*
X79589404Y-84907476D01*
X79637023Y-84812238D01*
X79732261Y-84717000D01*
X79875119Y-84669380D01*
X79970357Y-84669380D01*
X80113214Y-84717000D01*
X80160833Y-84764619D01*
X81017976Y-84669380D02*
X80827500Y-84669380D01*
X80732261Y-84717000D01*
X80684642Y-84764619D01*
X80589404Y-84907476D01*
X80541785Y-85097952D01*
X80541785Y-85478904D01*
X80589404Y-85574142D01*
X80637023Y-85621761D01*
X80732261Y-85669380D01*
X80922738Y-85669380D01*
X81017976Y-85621761D01*
X81065595Y-85574142D01*
X81113214Y-85478904D01*
X81113214Y-85240809D01*
X81065595Y-85145571D01*
X81017976Y-85097952D01*
X80922738Y-85050333D01*
X80732261Y-85050333D01*
X80637023Y-85097952D01*
X80589404Y-85145571D01*
X80541785Y-85240809D01*
X81002142Y-95289666D02*
X81049761Y-95337285D01*
X81097380Y-95480142D01*
X81097380Y-95575380D01*
X81049761Y-95718238D01*
X80954523Y-95813476D01*
X80859285Y-95861095D01*
X80668809Y-95908714D01*
X80525952Y-95908714D01*
X80335476Y-95861095D01*
X80240238Y-95813476D01*
X80145000Y-95718238D01*
X80097380Y-95575380D01*
X80097380Y-95480142D01*
X80145000Y-95337285D01*
X80192619Y-95289666D01*
X80097380Y-94384904D02*
X80097380Y-94861095D01*
X80573571Y-94908714D01*
X80525952Y-94861095D01*
X80478333Y-94765857D01*
X80478333Y-94527761D01*
X80525952Y-94432523D01*
X80573571Y-94384904D01*
X80668809Y-94337285D01*
X80906904Y-94337285D01*
X81002142Y-94384904D01*
X81049761Y-94432523D01*
X81097380Y-94527761D01*
X81097380Y-94765857D01*
X81049761Y-94861095D01*
X81002142Y-94908714D01*
X81065642Y-91479666D02*
X81113261Y-91527285D01*
X81160880Y-91670142D01*
X81160880Y-91765380D01*
X81113261Y-91908238D01*
X81018023Y-92003476D01*
X80922785Y-92051095D01*
X80732309Y-92098714D01*
X80589452Y-92098714D01*
X80398976Y-92051095D01*
X80303738Y-92003476D01*
X80208500Y-91908238D01*
X80160880Y-91765380D01*
X80160880Y-91670142D01*
X80208500Y-91527285D01*
X80256119Y-91479666D01*
X80494214Y-90622523D02*
X81160880Y-90622523D01*
X80113261Y-90860619D02*
X80827547Y-91098714D01*
X80827547Y-90479666D01*
X81065642Y-88304666D02*
X81113261Y-88352285D01*
X81160880Y-88495142D01*
X81160880Y-88590380D01*
X81113261Y-88733238D01*
X81018023Y-88828476D01*
X80922785Y-88876095D01*
X80732309Y-88923714D01*
X80589452Y-88923714D01*
X80398976Y-88876095D01*
X80303738Y-88828476D01*
X80208500Y-88733238D01*
X80160880Y-88590380D01*
X80160880Y-88495142D01*
X80208500Y-88352285D01*
X80256119Y-88304666D01*
X80160880Y-87971333D02*
X80160880Y-87352285D01*
X80541833Y-87685619D01*
X80541833Y-87542761D01*
X80589452Y-87447523D01*
X80637071Y-87399904D01*
X80732309Y-87352285D01*
X80970404Y-87352285D01*
X81065642Y-87399904D01*
X81113261Y-87447523D01*
X81160880Y-87542761D01*
X81160880Y-87828476D01*
X81113261Y-87923714D01*
X81065642Y-87971333D01*
X102195333Y-96115142D02*
X102147714Y-96162761D01*
X102004857Y-96210380D01*
X101909619Y-96210380D01*
X101766761Y-96162761D01*
X101671523Y-96067523D01*
X101623904Y-95972285D01*
X101576285Y-95781809D01*
X101576285Y-95638952D01*
X101623904Y-95448476D01*
X101671523Y-95353238D01*
X101766761Y-95258000D01*
X101909619Y-95210380D01*
X102004857Y-95210380D01*
X102147714Y-95258000D01*
X102195333Y-95305619D01*
X102576285Y-95305619D02*
X102623904Y-95258000D01*
X102719142Y-95210380D01*
X102957238Y-95210380D01*
X103052476Y-95258000D01*
X103100095Y-95305619D01*
X103147714Y-95400857D01*
X103147714Y-95496095D01*
X103100095Y-95638952D01*
X102528666Y-96210380D01*
X103147714Y-96210380D01*
X105243333Y-96115142D02*
X105195714Y-96162761D01*
X105052857Y-96210380D01*
X104957619Y-96210380D01*
X104814761Y-96162761D01*
X104719523Y-96067523D01*
X104671904Y-95972285D01*
X104624285Y-95781809D01*
X104624285Y-95638952D01*
X104671904Y-95448476D01*
X104719523Y-95353238D01*
X104814761Y-95258000D01*
X104957619Y-95210380D01*
X105052857Y-95210380D01*
X105195714Y-95258000D01*
X105243333Y-95305619D01*
X106195714Y-96210380D02*
X105624285Y-96210380D01*
X105910000Y-96210380D02*
X105910000Y-95210380D01*
X105814761Y-95353238D01*
X105719523Y-95448476D01*
X105624285Y-95496095D01*
X85725095Y-74953880D02*
X85725095Y-75763404D01*
X85772714Y-75858642D01*
X85820333Y-75906261D01*
X85915571Y-75953880D01*
X86106047Y-75953880D01*
X86201285Y-75906261D01*
X86248904Y-75858642D01*
X86296523Y-75763404D01*
X86296523Y-74953880D01*
X87296523Y-75953880D02*
X86725095Y-75953880D01*
X87010809Y-75953880D02*
X87010809Y-74953880D01*
X86915571Y-75096738D01*
X86820333Y-75191976D01*
X86725095Y-75239595D01*
X98575833Y-64968380D02*
X98242500Y-64492190D01*
X98004404Y-64968380D02*
X98004404Y-63968380D01*
X98385357Y-63968380D01*
X98480595Y-64016000D01*
X98528214Y-64063619D01*
X98575833Y-64158857D01*
X98575833Y-64301714D01*
X98528214Y-64396952D01*
X98480595Y-64444571D01*
X98385357Y-64492190D01*
X98004404Y-64492190D01*
X99432976Y-63968380D02*
X99242500Y-63968380D01*
X99147261Y-64016000D01*
X99099642Y-64063619D01*
X99004404Y-64206476D01*
X98956785Y-64396952D01*
X98956785Y-64777904D01*
X99004404Y-64873142D01*
X99052023Y-64920761D01*
X99147261Y-64968380D01*
X99337738Y-64968380D01*
X99432976Y-64920761D01*
X99480595Y-64873142D01*
X99528214Y-64777904D01*
X99528214Y-64539809D01*
X99480595Y-64444571D01*
X99432976Y-64396952D01*
X99337738Y-64349333D01*
X99147261Y-64349333D01*
X99052023Y-64396952D01*
X99004404Y-64444571D01*
X98956785Y-64539809D01*
X105370404Y-75763380D02*
X105370404Y-74763380D01*
X105608500Y-74763380D01*
X105751357Y-74811000D01*
X105846595Y-74906238D01*
X105894214Y-75001476D01*
X105941833Y-75191952D01*
X105941833Y-75334809D01*
X105894214Y-75525285D01*
X105846595Y-75620523D01*
X105751357Y-75715761D01*
X105608500Y-75763380D01*
X105370404Y-75763380D01*
X106275166Y-74763380D02*
X106894214Y-74763380D01*
X106560880Y-75144333D01*
X106703738Y-75144333D01*
X106798976Y-75191952D01*
X106846595Y-75239571D01*
X106894214Y-75334809D01*
X106894214Y-75572904D01*
X106846595Y-75668142D01*
X106798976Y-75715761D01*
X106703738Y-75763380D01*
X106418023Y-75763380D01*
X106322785Y-75715761D01*
X106275166Y-75668142D01*
X100544404Y-75699880D02*
X100544404Y-74699880D01*
X100782500Y-74699880D01*
X100925357Y-74747500D01*
X101020595Y-74842738D01*
X101068214Y-74937976D01*
X101115833Y-75128452D01*
X101115833Y-75271309D01*
X101068214Y-75461785D01*
X101020595Y-75557023D01*
X100925357Y-75652261D01*
X100782500Y-75699880D01*
X100544404Y-75699880D01*
X101496785Y-74795119D02*
X101544404Y-74747500D01*
X101639642Y-74699880D01*
X101877738Y-74699880D01*
X101972976Y-74747500D01*
X102020595Y-74795119D01*
X102068214Y-74890357D01*
X102068214Y-74985595D01*
X102020595Y-75128452D01*
X101449166Y-75699880D01*
X102068214Y-75699880D01*
X82589761Y-63952380D02*
X82256428Y-63476190D01*
X82018333Y-63952380D02*
X82018333Y-62952380D01*
X82399285Y-62952380D01*
X82494523Y-63000000D01*
X82542142Y-63047619D01*
X82589761Y-63142857D01*
X82589761Y-63285714D01*
X82542142Y-63380952D01*
X82494523Y-63428571D01*
X82399285Y-63476190D01*
X82018333Y-63476190D01*
X82875476Y-62952380D02*
X83208809Y-63952380D01*
X83542142Y-62952380D01*
X83827857Y-63047619D02*
X83875476Y-63000000D01*
X83970714Y-62952380D01*
X84208809Y-62952380D01*
X84304047Y-63000000D01*
X84351666Y-63047619D01*
X84399285Y-63142857D01*
X84399285Y-63238095D01*
X84351666Y-63380952D01*
X83780238Y-63952380D01*
X84399285Y-63952380D01*
X108688261Y-65476380D02*
X108354928Y-65000190D01*
X108116833Y-65476380D02*
X108116833Y-64476380D01*
X108497785Y-64476380D01*
X108593023Y-64524000D01*
X108640642Y-64571619D01*
X108688261Y-64666857D01*
X108688261Y-64809714D01*
X108640642Y-64904952D01*
X108593023Y-64952571D01*
X108497785Y-65000190D01*
X108116833Y-65000190D01*
X108973976Y-64476380D02*
X109307309Y-65476380D01*
X109640642Y-64476380D01*
X110497785Y-65476380D02*
X109926357Y-65476380D01*
X110212071Y-65476380D02*
X110212071Y-64476380D01*
X110116833Y-64619238D01*
X110021595Y-64714476D01*
X109926357Y-64762095D01*
X87971333Y-60523380D02*
X87638000Y-60047190D01*
X87399904Y-60523380D02*
X87399904Y-59523380D01*
X87780857Y-59523380D01*
X87876095Y-59571000D01*
X87923714Y-59618619D01*
X87971333Y-59713857D01*
X87971333Y-59856714D01*
X87923714Y-59951952D01*
X87876095Y-59999571D01*
X87780857Y-60047190D01*
X87399904Y-60047190D01*
X88876095Y-59523380D02*
X88399904Y-59523380D01*
X88352285Y-59999571D01*
X88399904Y-59951952D01*
X88495142Y-59904333D01*
X88733238Y-59904333D01*
X88828476Y-59951952D01*
X88876095Y-59999571D01*
X88923714Y-60094809D01*
X88923714Y-60332904D01*
X88876095Y-60428142D01*
X88828476Y-60475761D01*
X88733238Y-60523380D01*
X88495142Y-60523380D01*
X88399904Y-60475761D01*
X88352285Y-60428142D01*
X95146833Y-64968380D02*
X94813500Y-64492190D01*
X94575404Y-64968380D02*
X94575404Y-63968380D01*
X94956357Y-63968380D01*
X95051595Y-64016000D01*
X95099214Y-64063619D01*
X95146833Y-64158857D01*
X95146833Y-64301714D01*
X95099214Y-64396952D01*
X95051595Y-64444571D01*
X94956357Y-64492190D01*
X94575404Y-64492190D01*
X96003976Y-64301714D02*
X96003976Y-64968380D01*
X95765880Y-63920761D02*
X95527785Y-64635047D01*
X96146833Y-64635047D01*
X95591333Y-84145380D02*
X95258000Y-83669190D01*
X95019904Y-84145380D02*
X95019904Y-83145380D01*
X95400857Y-83145380D01*
X95496095Y-83193000D01*
X95543714Y-83240619D01*
X95591333Y-83335857D01*
X95591333Y-83478714D01*
X95543714Y-83573952D01*
X95496095Y-83621571D01*
X95400857Y-83669190D01*
X95019904Y-83669190D01*
X95924666Y-83145380D02*
X96543714Y-83145380D01*
X96210380Y-83526333D01*
X96353238Y-83526333D01*
X96448476Y-83573952D01*
X96496095Y-83621571D01*
X96543714Y-83716809D01*
X96543714Y-83954904D01*
X96496095Y-84050142D01*
X96448476Y-84097761D01*
X96353238Y-84145380D01*
X96067523Y-84145380D01*
X95972285Y-84097761D01*
X95924666Y-84050142D01*
X92106761Y-55665619D02*
X92011523Y-55618000D01*
X91916285Y-55522761D01*
X91773428Y-55379904D01*
X91678190Y-55332285D01*
X91582952Y-55332285D01*
X91630571Y-55570380D02*
X91535333Y-55522761D01*
X91440095Y-55427523D01*
X91392476Y-55237047D01*
X91392476Y-54903714D01*
X91440095Y-54713238D01*
X91535333Y-54618000D01*
X91630571Y-54570380D01*
X91821047Y-54570380D01*
X91916285Y-54618000D01*
X92011523Y-54713238D01*
X92059142Y-54903714D01*
X92059142Y-55237047D01*
X92011523Y-55427523D01*
X91916285Y-55522761D01*
X91821047Y-55570380D01*
X91630571Y-55570380D01*
X93011523Y-55570380D02*
X92440095Y-55570380D01*
X92725809Y-55570380D02*
X92725809Y-54570380D01*
X92630571Y-54713238D01*
X92535333Y-54808476D01*
X92440095Y-54856095D01*
X86915666Y-57554880D02*
X86915666Y-58269166D01*
X86868047Y-58412023D01*
X86772809Y-58507261D01*
X86629952Y-58554880D01*
X86534714Y-58554880D01*
X87344238Y-57650119D02*
X87391857Y-57602500D01*
X87487095Y-57554880D01*
X87725190Y-57554880D01*
X87820428Y-57602500D01*
X87868047Y-57650119D01*
X87915666Y-57745357D01*
X87915666Y-57840595D01*
X87868047Y-57983452D01*
X87296619Y-58554880D01*
X87915666Y-58554880D01*
X96035904Y-75699880D02*
X96035904Y-74699880D01*
X96274000Y-74699880D01*
X96416857Y-74747500D01*
X96512095Y-74842738D01*
X96559714Y-74937976D01*
X96607333Y-75128452D01*
X96607333Y-75271309D01*
X96559714Y-75461785D01*
X96512095Y-75557023D01*
X96416857Y-75652261D01*
X96274000Y-75699880D01*
X96035904Y-75699880D01*
X97559714Y-75699880D02*
X96988285Y-75699880D01*
X97274000Y-75699880D02*
X97274000Y-74699880D01*
X97178761Y-74842738D01*
X97083523Y-74937976D01*
X96988285Y-74985595D01*
M02*
